<svg width="224" height="22" viewBox="0 0 224 22" fill="none" xmlns="http://www.w3.org/2000/svg">
<path d="M213.141 8.55469V15.3281H211.688V6.875H213.062L213.141 8.55469ZM212.844 10.7812L212.172 10.7578C212.177 10.1797 212.253 9.64583 212.398 9.15625C212.544 8.66146 212.76 8.23177 213.047 7.86719C213.333 7.5026 213.69 7.22135 214.117 7.02344C214.544 6.82031 215.039 6.71875 215.602 6.71875C215.997 6.71875 216.362 6.77604 216.695 6.89062C217.029 7 217.318 7.17448 217.562 7.41406C217.807 7.65365 217.997 7.96094 218.133 8.33594C218.268 8.71094 218.336 9.16406 218.336 9.69531V15.3281H216.891V9.76562C216.891 9.32292 216.815 8.96875 216.664 8.70312C216.518 8.4375 216.31 8.24479 216.039 8.125C215.768 8 215.451 7.9375 215.086 7.9375C214.659 7.9375 214.302 8.01302 214.016 8.16406C213.729 8.3151 213.5 8.52344 213.328 8.78906C213.156 9.05469 213.031 9.35938 212.953 9.70312C212.88 10.0417 212.844 10.401 212.844 10.7812ZM218.32 9.98438L217.352 10.2812C217.357 9.81771 217.432 9.3724 217.578 8.94531C217.729 8.51823 217.945 8.13802 218.227 7.80469C218.513 7.47135 218.865 7.20833 219.281 7.01562C219.698 6.81771 220.174 6.71875 220.711 6.71875C221.164 6.71875 221.565 6.77865 221.914 6.89844C222.268 7.01823 222.565 7.20312 222.805 7.45312C223.049 7.69792 223.234 8.01302 223.359 8.39844C223.484 8.78385 223.547 9.24219 223.547 9.77344V15.3281H222.094V9.75781C222.094 9.28385 222.018 8.91667 221.867 8.65625C221.721 8.39062 221.513 8.20573 221.242 8.10156C220.977 7.99219 220.659 7.9375 220.289 7.9375C219.971 7.9375 219.69 7.99219 219.445 8.10156C219.201 8.21094 218.995 8.36198 218.828 8.55469C218.661 8.74219 218.534 8.95833 218.445 9.20312C218.362 9.44792 218.32 9.70833 218.32 9.98438Z" fill="#191D22"/>
<path d="M202.195 11.1953V11.0156C202.195 10.4062 202.284 9.84115 202.461 9.32031C202.638 8.79427 202.893 8.33854 203.227 7.95312C203.56 7.5625 203.964 7.26042 204.438 7.04688C204.911 6.82812 205.443 6.71875 206.031 6.71875C206.625 6.71875 207.159 6.82812 207.633 7.04688C208.112 7.26042 208.518 7.5625 208.852 7.95312C209.19 8.33854 209.448 8.79427 209.625 9.32031C209.802 9.84115 209.891 10.4062 209.891 11.0156V11.1953C209.891 11.8047 209.802 12.3698 209.625 12.8906C209.448 13.4115 209.19 13.8672 208.852 14.2578C208.518 14.6432 208.115 14.9453 207.641 15.1641C207.172 15.3776 206.641 15.4844 206.047 15.4844C205.453 15.4844 204.919 15.3776 204.445 15.1641C203.971 14.9453 203.565 14.6432 203.227 14.2578C202.893 13.8672 202.638 13.4115 202.461 12.8906C202.284 12.3698 202.195 11.8047 202.195 11.1953ZM203.641 11.0156V11.1953C203.641 11.6172 203.69 12.0156 203.789 12.3906C203.888 12.7604 204.036 13.0885 204.234 13.375C204.438 13.6615 204.69 13.888 204.992 14.0547C205.294 14.2161 205.646 14.2969 206.047 14.2969C206.443 14.2969 206.789 14.2161 207.086 14.0547C207.388 13.888 207.638 13.6615 207.836 13.375C208.034 13.0885 208.182 12.7604 208.281 12.3906C208.385 12.0156 208.438 11.6172 208.438 11.1953V11.0156C208.438 10.599 208.385 10.2057 208.281 9.83594C208.182 9.46094 208.031 9.13021 207.828 8.84375C207.63 8.55208 207.38 8.32292 207.078 8.15625C206.781 7.98958 206.432 7.90625 206.031 7.90625C205.635 7.90625 205.286 7.98958 204.984 8.15625C204.688 8.32292 204.438 8.55208 204.234 8.84375C204.036 9.13021 203.888 9.46094 203.789 9.83594C203.69 10.2057 203.641 10.599 203.641 11.0156Z" fill="#191D22"/>
<path d="M197.586 14.2969C197.93 14.2969 198.247 14.2266 198.539 14.0859C198.831 13.9453 199.07 13.7526 199.258 13.5078C199.445 13.2578 199.552 12.974 199.578 12.6562H200.953C200.927 13.1562 200.758 13.6224 200.445 14.0547C200.138 14.4818 199.734 14.8281 199.234 15.0938C198.734 15.3542 198.185 15.4844 197.586 15.4844C196.951 15.4844 196.396 15.3724 195.922 15.1484C195.453 14.9245 195.062 14.6172 194.75 14.2266C194.443 13.8359 194.211 13.388 194.055 12.8828C193.904 12.3724 193.828 11.8333 193.828 11.2656V10.9375C193.828 10.3698 193.904 9.83333 194.055 9.32812C194.211 8.81771 194.443 8.36719 194.75 7.97656C195.062 7.58594 195.453 7.27865 195.922 7.05469C196.396 6.83073 196.951 6.71875 197.586 6.71875C198.247 6.71875 198.826 6.85417 199.32 7.125C199.815 7.39062 200.203 7.75521 200.484 8.21875C200.771 8.67708 200.927 9.19792 200.953 9.78125H199.578C199.552 9.43229 199.453 9.11719 199.281 8.83594C199.115 8.55469 198.885 8.33073 198.594 8.16406C198.307 7.99219 197.971 7.90625 197.586 7.90625C197.143 7.90625 196.771 7.99479 196.469 8.17188C196.172 8.34375 195.935 8.57812 195.758 8.875C195.586 9.16667 195.461 9.49219 195.383 9.85156C195.31 10.2057 195.273 10.5677 195.273 10.9375V11.2656C195.273 11.6354 195.31 12 195.383 12.3594C195.456 12.7188 195.578 13.0443 195.75 13.3359C195.927 13.6276 196.164 13.862 196.461 14.0391C196.763 14.2109 197.138 14.2969 197.586 14.2969Z" fill="#191D22"/>
<path d="M190.008 14.5625C190.008 14.3177 190.083 14.112 190.234 13.9453C190.391 13.7734 190.615 13.6875 190.906 13.6875C191.198 13.6875 191.419 13.7734 191.57 13.9453C191.727 14.112 191.805 14.3177 191.805 14.5625C191.805 14.8021 191.727 15.0052 191.57 15.1719C191.419 15.3385 191.198 15.4219 190.906 15.4219C190.615 15.4219 190.391 15.3385 190.234 15.1719C190.083 15.0052 190.008 14.8021 190.008 14.5625Z" fill="#191D22"/>
<path d="M186.641 13.0859C186.641 12.8776 186.594 12.6849 186.5 12.5078C186.411 12.3255 186.227 12.1615 185.945 12.0156C185.669 11.8646 185.253 11.7344 184.695 11.625C184.227 11.526 183.802 11.4089 183.422 11.2734C183.047 11.138 182.727 10.974 182.461 10.7812C182.201 10.5885 182 10.362 181.859 10.1016C181.719 9.84115 181.648 9.53646 181.648 9.1875C181.648 8.85417 181.721 8.53906 181.867 8.24219C182.018 7.94531 182.229 7.68229 182.5 7.45312C182.776 7.22396 183.107 7.04427 183.492 6.91406C183.878 6.78385 184.307 6.71875 184.781 6.71875C185.458 6.71875 186.036 6.83854 186.516 7.07812C186.995 7.31771 187.362 7.63802 187.617 8.03906C187.872 8.4349 188 8.875 188 9.35938H186.555C186.555 9.125 186.484 8.89844 186.344 8.67969C186.208 8.45573 186.008 8.27083 185.742 8.125C185.482 7.97917 185.161 7.90625 184.781 7.90625C184.38 7.90625 184.055 7.96875 183.805 8.09375C183.56 8.21354 183.38 8.36719 183.266 8.55469C183.156 8.74219 183.102 8.9401 183.102 9.14844C183.102 9.30469 183.128 9.44531 183.18 9.57031C183.237 9.6901 183.336 9.80208 183.477 9.90625C183.617 10.0052 183.815 10.099 184.07 10.1875C184.326 10.276 184.651 10.3646 185.047 10.4531C185.74 10.6094 186.31 10.7969 186.758 11.0156C187.206 11.2344 187.539 11.5026 187.758 11.8203C187.977 12.138 188.086 12.5234 188.086 12.9766C188.086 13.3464 188.008 13.6849 187.852 13.9922C187.701 14.2995 187.479 14.5651 187.188 14.7891C186.901 15.0078 186.557 15.1797 186.156 15.3047C185.76 15.4245 185.315 15.4844 184.82 15.4844C184.076 15.4844 183.445 15.3516 182.93 15.0859C182.414 14.8203 182.023 14.4766 181.758 14.0547C181.492 13.6328 181.359 13.1875 181.359 12.7188H182.812C182.833 13.1146 182.948 13.4297 183.156 13.6641C183.365 13.8932 183.62 14.0573 183.922 14.1562C184.224 14.25 184.523 14.2969 184.82 14.2969C185.216 14.2969 185.547 14.2448 185.812 14.1406C186.083 14.0365 186.289 13.8932 186.43 13.7109C186.57 13.5286 186.641 13.3203 186.641 13.0859Z" fill="#191D22"/>
<path d="M180.023 6.875V7.98438H175.453V6.875H180.023ZM177 4.82031H178.445V13.2344C178.445 13.5208 178.49 13.737 178.578 13.8828C178.667 14.0286 178.781 14.125 178.922 14.1719C179.062 14.2188 179.214 14.2422 179.375 14.2422C179.495 14.2422 179.62 14.2318 179.75 14.2109C179.885 14.1849 179.987 14.1641 180.055 14.1484L180.062 15.3281C179.948 15.3646 179.797 15.3984 179.609 15.4297C179.427 15.4661 179.206 15.4844 178.945 15.4844C178.591 15.4844 178.266 15.4141 177.969 15.2734C177.672 15.1328 177.435 14.8984 177.258 14.5703C177.086 14.237 177 13.7891 177 13.2266V4.82031Z" fill="#191D22"/>
<path d="M171.508 15.4844C170.919 15.4844 170.385 15.3854 169.906 15.1875C169.432 14.9844 169.023 14.7005 168.68 14.3359C168.341 13.9714 168.081 13.5391 167.898 13.0391C167.716 12.5391 167.625 11.9922 167.625 11.3984V11.0703C167.625 10.3828 167.727 9.77083 167.93 9.23438C168.133 8.69271 168.409 8.23438 168.758 7.85938C169.107 7.48438 169.503 7.20052 169.945 7.00781C170.388 6.8151 170.846 6.71875 171.32 6.71875C171.924 6.71875 172.445 6.82292 172.883 7.03125C173.326 7.23958 173.688 7.53125 173.969 7.90625C174.25 8.27604 174.458 8.71354 174.594 9.21875C174.729 9.71875 174.797 10.2656 174.797 10.8594V11.5078H168.484V10.3281H173.352V10.2188C173.331 9.84375 173.253 9.47917 173.117 9.125C172.987 8.77083 172.779 8.47917 172.492 8.25C172.206 8.02083 171.815 7.90625 171.32 7.90625C170.992 7.90625 170.69 7.97656 170.414 8.11719C170.138 8.2526 169.901 8.45573 169.703 8.72656C169.505 8.9974 169.352 9.32812 169.242 9.71875C169.133 10.1094 169.078 10.5599 169.078 11.0703V11.3984C169.078 11.7995 169.133 12.1771 169.242 12.5312C169.357 12.8802 169.521 13.1875 169.734 13.4531C169.953 13.7188 170.216 13.9271 170.523 14.0781C170.836 14.2292 171.19 14.3047 171.586 14.3047C172.096 14.3047 172.529 14.2005 172.883 13.9922C173.237 13.7839 173.547 13.5052 173.812 13.1562L174.688 13.8516C174.505 14.1276 174.273 14.3906 173.992 14.6406C173.711 14.8906 173.365 15.0938 172.953 15.25C172.547 15.4062 172.065 15.4844 171.508 15.4844Z" fill="#191D22"/>
<path d="M164.492 6.875H165.805V15.1484C165.805 15.8932 165.654 16.5286 165.352 17.0547C165.049 17.5807 164.628 17.9792 164.086 18.25C163.549 18.526 162.93 18.6641 162.227 18.6641C161.935 18.6641 161.591 18.6172 161.195 18.5234C160.805 18.4349 160.419 18.2812 160.039 18.0625C159.664 17.849 159.349 17.5599 159.094 17.1953L159.852 16.3359C160.206 16.763 160.576 17.0599 160.961 17.2266C161.352 17.3932 161.737 17.4766 162.117 17.4766C162.576 17.4766 162.971 17.3906 163.305 17.2188C163.638 17.0469 163.896 16.7917 164.078 16.4531C164.266 16.1198 164.359 15.7083 164.359 15.2188V8.73438L164.492 6.875ZM158.672 11.1953V11.0312C158.672 10.3854 158.747 9.79948 158.898 9.27344C159.055 8.74219 159.276 8.28646 159.562 7.90625C159.854 7.52604 160.206 7.23438 160.617 7.03125C161.029 6.82292 161.492 6.71875 162.008 6.71875C162.539 6.71875 163.003 6.8125 163.398 7C163.799 7.18229 164.138 7.45052 164.414 7.80469C164.695 8.15365 164.917 8.57552 165.078 9.07031C165.24 9.5651 165.352 10.125 165.414 10.75V11.4688C165.357 12.0885 165.245 12.6458 165.078 13.1406C164.917 13.6354 164.695 14.0573 164.414 14.4062C164.138 14.7552 163.799 15.0234 163.398 15.2109C162.997 15.3932 162.529 15.4844 161.992 15.4844C161.487 15.4844 161.029 15.3776 160.617 15.1641C160.211 14.9505 159.862 14.651 159.57 14.2656C159.279 13.8802 159.055 13.4271 158.898 12.9062C158.747 12.3802 158.672 11.8099 158.672 11.1953ZM160.117 11.0312V11.1953C160.117 11.6172 160.159 12.013 160.242 12.3828C160.331 12.7526 160.464 13.0781 160.641 13.3594C160.823 13.6406 161.055 13.862 161.336 14.0234C161.617 14.1797 161.953 14.2578 162.344 14.2578C162.823 14.2578 163.219 14.1562 163.531 13.9531C163.844 13.75 164.091 13.4818 164.273 13.1484C164.461 12.8151 164.607 12.4531 164.711 12.0625V10.1797C164.654 9.89323 164.565 9.61719 164.445 9.35156C164.331 9.08073 164.18 8.84115 163.992 8.63281C163.81 8.41927 163.583 8.25 163.312 8.125C163.042 8 162.724 7.9375 162.359 7.9375C161.964 7.9375 161.622 8.02083 161.336 8.1875C161.055 8.34896 160.823 8.57292 160.641 8.85938C160.464 9.14062 160.331 9.46875 160.242 9.84375C160.159 10.2135 160.117 10.6094 160.117 11.0312Z" fill="#191D22"/>
<path d="M155.312 13.6875V3.32812H156.766V15.3281H155.438L155.312 13.6875ZM149.625 11.1953V11.0312C149.625 10.3854 149.703 9.79948 149.859 9.27344C150.021 8.74219 150.247 8.28646 150.539 7.90625C150.836 7.52604 151.188 7.23438 151.594 7.03125C152.005 6.82292 152.464 6.71875 152.969 6.71875C153.5 6.71875 153.964 6.8125 154.359 7C154.76 7.18229 155.099 7.45052 155.375 7.80469C155.656 8.15365 155.878 8.57552 156.039 9.07031C156.201 9.5651 156.312 10.125 156.375 10.75V11.4688C156.318 12.0885 156.206 12.6458 156.039 13.1406C155.878 13.6354 155.656 14.0573 155.375 14.4062C155.099 14.7552 154.76 15.0234 154.359 15.2109C153.958 15.3932 153.49 15.4844 152.953 15.4844C152.458 15.4844 152.005 15.3776 151.594 15.1641C151.188 14.9505 150.836 14.651 150.539 14.2656C150.247 13.8802 150.021 13.4271 149.859 12.9062C149.703 12.3802 149.625 11.8099 149.625 11.1953ZM151.078 11.0312V11.1953C151.078 11.6172 151.12 12.013 151.203 12.3828C151.292 12.7526 151.427 13.0781 151.609 13.3594C151.792 13.6406 152.023 13.862 152.305 14.0234C152.586 14.1797 152.922 14.2578 153.312 14.2578C153.792 14.2578 154.185 14.1562 154.492 13.9531C154.805 13.75 155.055 13.4818 155.242 13.1484C155.43 12.8151 155.576 12.4531 155.68 12.0625V10.1797C155.617 9.89323 155.526 9.61719 155.406 9.35156C155.292 9.08073 155.141 8.84115 154.953 8.63281C154.771 8.41927 154.544 8.25 154.273 8.125C154.008 8 153.693 7.9375 153.328 7.9375C152.932 7.9375 152.591 8.02083 152.305 8.1875C152.023 8.34896 151.792 8.57292 151.609 8.85938C151.427 9.14062 151.292 9.46875 151.203 9.84375C151.12 10.2135 151.078 10.6094 151.078 11.0312Z" fill="#191D22"/>
<path d="M147.664 6.875V15.3281H146.211V6.875H147.664ZM146.102 4.63281C146.102 4.39844 146.172 4.20052 146.312 4.03906C146.458 3.8776 146.672 3.79688 146.953 3.79688C147.229 3.79688 147.44 3.8776 147.586 4.03906C147.737 4.20052 147.812 4.39844 147.812 4.63281C147.812 4.85677 147.737 5.04948 147.586 5.21094C147.44 5.36719 147.229 5.44531 146.953 5.44531C146.672 5.44531 146.458 5.36719 146.312 5.21094C146.172 5.04948 146.102 4.85677 146.102 4.63281Z" fill="#191D22"/>
<path d="M136.203 13.8281L138.375 6.875H139.328L139.141 8.25781L136.93 15.3281H136L136.203 13.8281ZM134.742 6.875L136.594 13.9062L136.727 15.3281H135.75L133.297 6.875H134.742ZM141.406 13.8516L143.172 6.875H144.609L142.156 15.3281H141.188L141.406 13.8516ZM139.539 6.875L141.664 13.7109L141.906 15.3281H140.984L138.711 8.24219L138.523 6.875H139.539Z" fill="#191D22"/>
<path d="M130.359 13.6875V3.32812H131.812V15.3281H130.484L130.359 13.6875ZM124.672 11.1953V11.0312C124.672 10.3854 124.75 9.79948 124.906 9.27344C125.068 8.74219 125.294 8.28646 125.586 7.90625C125.883 7.52604 126.234 7.23438 126.641 7.03125C127.052 6.82292 127.51 6.71875 128.016 6.71875C128.547 6.71875 129.01 6.8125 129.406 7C129.807 7.18229 130.146 7.45052 130.422 7.80469C130.703 8.15365 130.924 8.57552 131.086 9.07031C131.247 9.5651 131.359 10.125 131.422 10.75V11.4688C131.365 12.0885 131.253 12.6458 131.086 13.1406C130.924 13.6354 130.703 14.0573 130.422 14.4062C130.146 14.7552 129.807 15.0234 129.406 15.2109C129.005 15.3932 128.536 15.4844 128 15.4844C127.505 15.4844 127.052 15.3776 126.641 15.1641C126.234 14.9505 125.883 14.651 125.586 14.2656C125.294 13.8802 125.068 13.4271 124.906 12.9062C124.75 12.3802 124.672 11.8099 124.672 11.1953ZM126.125 11.0312V11.1953C126.125 11.6172 126.167 12.013 126.25 12.3828C126.339 12.7526 126.474 13.0781 126.656 13.3594C126.839 13.6406 127.07 13.862 127.352 14.0234C127.633 14.1797 127.969 14.2578 128.359 14.2578C128.839 14.2578 129.232 14.1562 129.539 13.9531C129.852 13.75 130.102 13.4818 130.289 13.1484C130.477 12.8151 130.622 12.4531 130.727 12.0625V10.1797C130.664 9.89323 130.573 9.61719 130.453 9.35156C130.339 9.08073 130.188 8.84115 130 8.63281C129.818 8.41927 129.591 8.25 129.32 8.125C129.055 8 128.74 7.9375 128.375 7.9375C127.979 7.9375 127.638 8.02083 127.352 8.1875C127.07 8.34896 126.839 8.57292 126.656 8.85938C126.474 9.14062 126.339 9.46875 126.25 9.84375C126.167 10.2135 126.125 10.6094 126.125 11.0312Z" fill="#191D22"/>
<path d="M117.633 8.67969V15.3281H116.188V6.875H117.555L117.633 8.67969ZM117.289 10.7812L116.688 10.7578C116.693 10.1797 116.779 9.64583 116.945 9.15625C117.112 8.66146 117.346 8.23177 117.648 7.86719C117.951 7.5026 118.31 7.22135 118.727 7.02344C119.148 6.82031 119.615 6.71875 120.125 6.71875C120.542 6.71875 120.917 6.77604 121.25 6.89062C121.583 7 121.867 7.17708 122.102 7.42188C122.341 7.66667 122.523 7.98438 122.648 8.375C122.773 8.76042 122.836 9.23177 122.836 9.78906V15.3281H121.383V9.77344C121.383 9.33073 121.318 8.97656 121.188 8.71094C121.057 8.4401 120.867 8.24479 120.617 8.125C120.367 8 120.06 7.9375 119.695 7.9375C119.336 7.9375 119.008 8.01302 118.711 8.16406C118.419 8.3151 118.167 8.52344 117.953 8.78906C117.745 9.05469 117.581 9.35938 117.461 9.70312C117.346 10.0417 117.289 10.401 117.289 10.7812Z" fill="#191D22"/>
<path d="M112.531 13.375V6.875H113.984V15.3281H112.602L112.531 13.375ZM112.805 11.5938L113.406 11.5781C113.406 12.1406 113.346 12.6615 113.227 13.1406C113.112 13.6146 112.924 14.026 112.664 14.375C112.404 14.724 112.062 14.9974 111.641 15.1953C111.219 15.388 110.706 15.4844 110.102 15.4844C109.69 15.4844 109.312 15.4245 108.969 15.3047C108.63 15.1849 108.339 15 108.094 14.75C107.849 14.5 107.659 14.1745 107.523 13.7734C107.393 13.3724 107.328 12.8906 107.328 12.3281V6.875H108.773V12.3438C108.773 12.724 108.815 13.0391 108.898 13.2891C108.987 13.5339 109.104 13.7292 109.25 13.875C109.401 14.0156 109.568 14.1146 109.75 14.1719C109.938 14.2292 110.13 14.2578 110.328 14.2578C110.943 14.2578 111.43 14.1406 111.789 13.9062C112.148 13.6667 112.406 13.3464 112.562 12.9453C112.724 12.5391 112.805 12.0885 112.805 11.5938Z" fill="#191D22"/>
<path d="M97.8516 11.1953V11.0156C97.8516 10.4062 97.9401 9.84115 98.1172 9.32031C98.2943 8.79427 98.5495 8.33854 98.8828 7.95312C99.2161 7.5625 99.6198 7.26042 100.094 7.04688C100.568 6.82812 101.099 6.71875 101.688 6.71875C102.281 6.71875 102.815 6.82812 103.289 7.04688C103.768 7.26042 104.174 7.5625 104.508 7.95312C104.846 8.33854 105.104 8.79427 105.281 9.32031C105.458 9.84115 105.547 10.4062 105.547 11.0156V11.1953C105.547 11.8047 105.458 12.3698 105.281 12.8906C105.104 13.4115 104.846 13.8672 104.508 14.2578C104.174 14.6432 103.771 14.9453 103.297 15.1641C102.828 15.3776 102.297 15.4844 101.703 15.4844C101.109 15.4844 100.576 15.3776 100.102 15.1641C99.6276 14.9453 99.2214 14.6432 98.8828 14.2578C98.5495 13.8672 98.2943 13.4115 98.1172 12.8906C97.9401 12.3698 97.8516 11.8047 97.8516 11.1953ZM99.2969 11.0156V11.1953C99.2969 11.6172 99.3464 12.0156 99.4453 12.3906C99.5443 12.7604 99.6927 13.0885 99.8906 13.375C100.094 13.6615 100.346 13.888 100.648 14.0547C100.951 14.2161 101.302 14.2969 101.703 14.2969C102.099 14.2969 102.445 14.2161 102.742 14.0547C103.044 13.888 103.294 13.6615 103.492 13.375C103.69 13.0885 103.839 12.7604 103.938 12.3906C104.042 12.0156 104.094 11.6172 104.094 11.1953V11.0156C104.094 10.599 104.042 10.2057 103.938 9.83594C103.839 9.46094 103.688 9.13021 103.484 8.84375C103.286 8.55208 103.036 8.32292 102.734 8.15625C102.438 7.98958 102.089 7.90625 101.688 7.90625C101.292 7.90625 100.943 7.98958 100.641 8.15625C100.344 8.32292 100.094 8.55208 99.8906 8.84375C99.6927 9.13021 99.5443 9.46094 99.4453 9.83594C99.3464 10.2057 99.2969 10.599 99.2969 11.0156Z" fill="#191D22"/>
<path d="M94.4141 8.20312V15.3281H92.9688V6.875H94.375L94.4141 8.20312ZM97.0547 6.82812L97.0469 8.17188C96.9271 8.14583 96.8125 8.13021 96.7031 8.125C96.599 8.11458 96.4792 8.10938 96.3438 8.10938C96.0104 8.10938 95.7161 8.16146 95.4609 8.26562C95.2057 8.36979 94.9896 8.51562 94.8125 8.70312C94.6354 8.89062 94.4948 9.11458 94.3906 9.375C94.2917 9.63021 94.2266 9.91146 94.1953 10.2188L93.7891 10.4531C93.7891 9.94271 93.8385 9.46354 93.9375 9.01562C94.0417 8.56771 94.2005 8.17188 94.4141 7.82812C94.6276 7.47917 94.8984 7.20833 95.2266 7.01562C95.5599 6.81771 95.9557 6.71875 96.4141 6.71875C96.5182 6.71875 96.638 6.73177 96.7734 6.75781C96.9089 6.77865 97.0026 6.80208 97.0547 6.82812Z" fill="#191D22"/>
<path d="M89.4609 6.875H90.7734V15.1484C90.7734 15.8932 90.6224 16.5286 90.3203 17.0547C90.0182 17.5807 89.5964 17.9792 89.0547 18.25C88.5182 18.526 87.8984 18.6641 87.1953 18.6641C86.9036 18.6641 86.5599 18.6172 86.1641 18.5234C85.7734 18.4349 85.388 18.2812 85.0078 18.0625C84.6328 17.849 84.3177 17.5599 84.0625 17.1953L84.8203 16.3359C85.1745 16.763 85.5443 17.0599 85.9297 17.2266C86.3203 17.3932 86.7057 17.4766 87.0859 17.4766C87.5443 17.4766 87.9401 17.3906 88.2734 17.2188C88.6068 17.0469 88.8646 16.7917 89.0469 16.4531C89.2344 16.1198 89.3281 15.7083 89.3281 15.2188V8.73438L89.4609 6.875ZM83.6406 11.1953V11.0312C83.6406 10.3854 83.7161 9.79948 83.8672 9.27344C84.0234 8.74219 84.2448 8.28646 84.5312 7.90625C84.8229 7.52604 85.1745 7.23438 85.5859 7.03125C85.9974 6.82292 86.4609 6.71875 86.9766 6.71875C87.5078 6.71875 87.9714 6.8125 88.3672 7C88.7682 7.18229 89.1068 7.45052 89.3828 7.80469C89.6641 8.15365 89.8854 8.57552 90.0469 9.07031C90.2083 9.5651 90.3203 10.125 90.3828 10.75V11.4688C90.3255 12.0885 90.2135 12.6458 90.0469 13.1406C89.8854 13.6354 89.6641 14.0573 89.3828 14.4062C89.1068 14.7552 88.7682 15.0234 88.3672 15.2109C87.9661 15.3932 87.4974 15.4844 86.9609 15.4844C86.4557 15.4844 85.9974 15.3776 85.5859 15.1641C85.1797 14.9505 84.8307 14.651 84.5391 14.2656C84.2474 13.8802 84.0234 13.4271 83.8672 12.9062C83.7161 12.3802 83.6406 11.8099 83.6406 11.1953ZM85.0859 11.0312V11.1953C85.0859 11.6172 85.1276 12.013 85.2109 12.3828C85.2995 12.7526 85.4323 13.0781 85.6094 13.3594C85.7917 13.6406 86.0234 13.862 86.3047 14.0234C86.5859 14.1797 86.9219 14.2578 87.3125 14.2578C87.7917 14.2578 88.1875 14.1562 88.5 13.9531C88.8125 13.75 89.0599 13.4818 89.2422 13.1484C89.4297 12.8151 89.5755 12.4531 89.6797 12.0625V10.1797C89.6224 9.89323 89.5339 9.61719 89.4141 9.35156C89.2995 9.08073 89.1484 8.84115 88.9609 8.63281C88.7786 8.41927 88.5521 8.25 88.2812 8.125C88.0104 8 87.6927 7.9375 87.3281 7.9375C86.9323 7.9375 86.5911 8.02083 86.3047 8.1875C86.0234 8.34896 85.7917 8.57292 85.6094 8.85938C85.4323 9.14062 85.2995 9.46875 85.2109 9.84375C85.1276 10.2135 85.0859 10.6094 85.0859 11.0312Z" fill="#191D22"/>
<path d="M82.0704 11.3984C82.0496 11.8776 81.9767 12.3594 81.8517 12.8438C81.7267 13.3229 81.5392 13.763 81.2892 14.1641C81.0392 14.5651 80.7136 14.888 80.3126 15.1328C79.9168 15.3724 79.4376 15.4922 78.8751 15.4922C78.5157 15.4922 78.2006 15.4297 77.9298 15.3047C77.6642 15.1745 77.4454 14.9896 77.2735 14.75C77.1069 14.5104 76.9897 14.2214 76.922 13.8828C76.8595 13.5443 76.8491 13.1667 76.8907 12.75L77.2892 8.42188H78.4376L78.0392 12.75C78.0079 13.1302 78.0157 13.4401 78.0626 13.6797C78.1147 13.9193 78.1928 14.1042 78.297 14.2344C78.4011 14.3594 78.5183 14.4453 78.6485 14.4922C78.7839 14.5391 78.9142 14.5625 79.0392 14.5625C79.3517 14.5625 79.6303 14.4818 79.8751 14.3203C80.1199 14.1536 80.3256 13.9271 80.4923 13.6406C80.6642 13.349 80.797 13.013 80.8907 12.6328C80.9845 12.2474 81.0418 11.8359 81.0626 11.3984C81.0991 10.6224 81.0626 9.90885 80.9532 9.25781C80.8491 8.60677 80.6694 8.02865 80.4142 7.52344C80.1642 7.01823 79.836 6.59115 79.4298 6.24219C79.0235 5.89323 78.5392 5.6276 77.9767 5.44531C77.4142 5.26302 76.7709 5.17188 76.047 5.17188C75.3907 5.17188 74.7839 5.27344 74.2267 5.47656C73.6746 5.67448 73.1772 5.96094 72.7345 6.33594C72.297 6.71094 71.9194 7.16146 71.6017 7.6875C71.2892 8.21354 71.0418 8.80729 70.8595 9.46875C70.6824 10.125 70.5782 10.8333 70.547 11.5938C70.5105 12.375 70.5522 13.0938 70.672 13.75C70.7918 14.401 70.9845 14.9818 71.2501 15.4922C71.5209 16.0078 71.8621 16.4427 72.2735 16.7969C72.685 17.1562 73.1616 17.4271 73.7032 17.6094C74.2449 17.7969 74.8491 17.8906 75.5157 17.8906C75.9741 17.8906 76.4376 17.8359 76.9063 17.7266C77.3803 17.6172 77.7761 17.4688 78.0938 17.2812L78.3907 18.1719C78.0261 18.4062 77.5704 18.5807 77.0235 18.6953C76.4819 18.8099 75.9688 18.8672 75.4845 18.8672C74.6928 18.8672 73.9688 18.7578 73.3126 18.5391C72.6616 18.3255 72.0834 18.0104 71.5782 17.5938C71.0782 17.1823 70.6616 16.6797 70.3282 16.0859C69.9949 15.4974 69.7501 14.8255 69.5938 14.0703C69.4376 13.3151 69.3777 12.4896 69.4142 11.5938C69.4506 10.7396 69.5782 9.9349 69.797 9.17969C70.0209 8.42448 70.3256 7.73958 70.711 7.125C71.0964 6.51042 71.5548 5.98177 72.086 5.53906C72.6225 5.09115 73.2241 4.7474 73.8907 4.50781C74.5626 4.26823 75.2918 4.14844 76.0782 4.14844C76.8803 4.14844 77.6069 4.25781 78.2579 4.47656C78.9089 4.69531 79.4793 5.01042 79.9688 5.42188C80.4636 5.83333 80.8725 6.33594 81.1954 6.92969C81.5183 7.52344 81.7527 8.19531 81.8985 8.94531C82.0496 9.69531 82.1069 10.513 82.0704 11.3984ZM74.047 12.0625C74.0105 12.4271 74.0105 12.7526 74.047 13.0391C74.0834 13.3255 74.1537 13.5677 74.2579 13.7656C74.3621 13.9635 74.4975 14.1146 74.6642 14.2188C74.836 14.3177 75.0366 14.3672 75.2657 14.3672C75.4168 14.3672 75.5756 14.3307 75.7423 14.2578C75.9089 14.1797 76.073 14.0599 76.2345 13.8984C76.3959 13.737 76.547 13.526 76.6876 13.2656C76.8282 13.0052 76.9454 12.6927 77.0392 12.3281L77.5548 12.8906C77.435 13.3177 77.2787 13.6927 77.086 14.0156C76.8985 14.3385 76.6876 14.6094 76.4532 14.8281C76.2188 15.0469 75.9688 15.2135 75.7032 15.3281C75.4428 15.4375 75.1772 15.4922 74.9063 15.4922C74.5261 15.4922 74.1928 15.4115 73.9063 15.25C73.6199 15.0833 73.3881 14.849 73.211 14.5469C73.0339 14.2448 72.9089 13.8854 72.836 13.4688C72.7683 13.0469 72.7579 12.5781 72.8048 12.0625C72.8517 11.5156 72.948 11.0104 73.0938 10.5469C73.2397 10.0833 73.4194 9.66927 73.6329 9.30469C73.8517 8.9401 74.0964 8.63021 74.3673 8.375C74.6433 8.11979 74.935 7.92708 75.2423 7.79688C75.5496 7.66146 75.8647 7.59375 76.1876 7.59375C76.7501 7.59375 77.1928 7.67708 77.5157 7.84375C77.8386 8.00521 78.1459 8.19792 78.4376 8.42188L77.7735 9.19531C77.6225 9.04948 77.4246 8.91406 77.1798 8.78906C76.935 8.66406 76.6459 8.60156 76.3126 8.60156C76.0261 8.60156 75.7579 8.67448 75.5079 8.82031C75.2579 8.96615 75.0313 9.1849 74.8282 9.47656C74.6303 9.76823 74.4636 10.1302 74.3282 10.5625C74.1928 10.9896 74.0991 11.4896 74.047 12.0625Z" fill="#191D22"/>
<path d="M60.1016 11.1953V11.0156C60.1016 10.4062 60.1901 9.84115 60.3672 9.32031C60.5443 8.79427 60.7995 8.33854 61.1328 7.95312C61.4661 7.5625 61.8698 7.26042 62.3438 7.04688C62.8177 6.82812 63.349 6.71875 63.9375 6.71875C64.5312 6.71875 65.0651 6.82812 65.5391 7.04688C66.0182 7.26042 66.4245 7.5625 66.7578 7.95312C67.0964 8.33854 67.3542 8.79427 67.5312 9.32031C67.7083 9.84115 67.7969 10.4062 67.7969 11.0156V11.1953C67.7969 11.8047 67.7083 12.3698 67.5312 12.8906C67.3542 13.4115 67.0964 13.8672 66.7578 14.2578C66.4245 14.6432 66.0208 14.9453 65.5469 15.1641C65.0781 15.3776 64.5469 15.4844 63.9531 15.4844C63.3594 15.4844 62.8255 15.3776 62.3516 15.1641C61.8776 14.9453 61.4714 14.6432 61.1328 14.2578C60.7995 13.8672 60.5443 13.4115 60.3672 12.8906C60.1901 12.3698 60.1016 11.8047 60.1016 11.1953ZM61.5469 11.0156V11.1953C61.5469 11.6172 61.5964 12.0156 61.6953 12.3906C61.7943 12.7604 61.9427 13.0885 62.1406 13.375C62.3438 13.6615 62.5964 13.888 62.8984 14.0547C63.2005 14.2161 63.5521 14.2969 63.9531 14.2969C64.349 14.2969 64.6953 14.2161 64.9922 14.0547C65.2943 13.888 65.5443 13.6615 65.7422 13.375C65.9401 13.0885 66.0885 12.7604 66.1875 12.3906C66.2917 12.0156 66.3438 11.6172 66.3438 11.1953V11.0156C66.3438 10.599 66.2917 10.2057 66.1875 9.83594C66.0885 9.46094 65.9375 9.13021 65.7344 8.84375C65.5365 8.55208 65.2865 8.32292 64.9844 8.15625C64.6875 7.98958 64.3385 7.90625 63.9375 7.90625C63.5417 7.90625 63.1927 7.98958 62.8906 8.15625C62.5938 8.32292 62.3438 8.55208 62.1406 8.84375C61.9427 9.13021 61.7943 9.46094 61.6953 9.83594C61.5964 10.2057 61.5469 10.599 61.5469 11.0156Z" fill="#191D22"/>
<path d="M57.0781 15.3281H55.6328V5.98438C55.6328 5.375 55.7422 4.86198 55.9609 4.44531C56.1849 4.02344 56.5052 3.70573 56.9219 3.49219C57.3385 3.27344 57.8333 3.16406 58.4062 3.16406C58.5729 3.16406 58.7396 3.17448 58.9062 3.19531C59.0781 3.21615 59.2448 3.2474 59.4062 3.28906L59.3281 4.46875C59.2188 4.44271 59.0938 4.42448 58.9531 4.41406C58.8177 4.40365 58.6823 4.39844 58.5469 4.39844C58.2396 4.39844 57.974 4.46094 57.75 4.58594C57.5312 4.70573 57.3646 4.88281 57.25 5.11719C57.1354 5.35156 57.0781 5.64062 57.0781 5.98438V15.3281ZM58.875 6.875V7.98438H54.2969V6.875H58.875Z" fill="#191D22"/>
<path d="M47.5234 8.67969V15.3281H46.0781V6.875H47.4453L47.5234 8.67969ZM47.1797 10.7812L46.5781 10.7578C46.5833 10.1797 46.6693 9.64583 46.8359 9.15625C47.0026 8.66146 47.237 8.23177 47.5391 7.86719C47.8411 7.5026 48.2005 7.22135 48.6172 7.02344C49.0391 6.82031 49.5052 6.71875 50.0156 6.71875C50.4323 6.71875 50.8073 6.77604 51.1406 6.89062C51.474 7 51.7578 7.17708 51.9922 7.42188C52.2318 7.66667 52.4141 7.98438 52.5391 8.375C52.6641 8.76042 52.7266 9.23177 52.7266 9.78906V15.3281H51.2734V9.77344C51.2734 9.33073 51.2083 8.97656 51.0781 8.71094C50.9479 8.4401 50.7578 8.24479 50.5078 8.125C50.2578 8 49.9505 7.9375 49.5859 7.9375C49.2266 7.9375 48.8984 8.01302 48.6016 8.16406C48.3099 8.3151 48.0573 8.52344 47.8438 8.78906C47.6354 9.05469 47.4714 9.35938 47.3516 9.70312C47.237 10.0417 47.1797 10.401 47.1797 10.7812Z" fill="#191D22"/>
<path d="M43.7578 6.875V15.3281H42.3047V6.875H43.7578ZM42.1953 4.63281C42.1953 4.39844 42.2656 4.20052 42.4062 4.03906C42.5521 3.8776 42.7656 3.79688 43.0469 3.79688C43.3229 3.79688 43.5339 3.8776 43.6797 4.03906C43.8307 4.20052 43.9062 4.39844 43.9062 4.63281C43.9062 4.85677 43.8307 5.04948 43.6797 5.21094C43.5339 5.36719 43.3229 5.44531 43.0469 5.44531C42.7656 5.44531 42.5521 5.36719 42.4062 5.21094C42.2656 5.04948 42.1953 4.85677 42.1953 4.63281Z" fill="#191D22"/>
<path d="M37.9922 14.5625C37.9922 14.3177 38.0677 14.112 38.2188 13.9453C38.375 13.7734 38.599 13.6875 38.8906 13.6875C39.1823 13.6875 39.4036 13.7734 39.5547 13.9453C39.7109 14.112 39.7891 14.3177 39.7891 14.5625C39.7891 14.8021 39.7109 15.0052 39.5547 15.1719C39.4036 15.3385 39.1823 15.4219 38.8906 15.4219C38.599 15.4219 38.375 15.3385 38.2188 15.1719C38.0677 15.0052 37.9922 14.8021 37.9922 14.5625Z" fill="#191D22"/>
<path d="M34.625 13.0859C34.625 12.8776 34.5781 12.6849 34.4844 12.5078C34.3958 12.3255 34.2109 12.1615 33.9297 12.0156C33.6536 11.8646 33.237 11.7344 32.6797 11.625C32.2109 11.526 31.7865 11.4089 31.4062 11.2734C31.0312 11.138 30.7109 10.974 30.4453 10.7812C30.1849 10.5885 29.9844 10.362 29.8438 10.1016C29.7031 9.84115 29.6328 9.53646 29.6328 9.1875C29.6328 8.85417 29.7057 8.53906 29.8516 8.24219C30.0026 7.94531 30.2135 7.68229 30.4844 7.45312C30.7604 7.22396 31.0911 7.04427 31.4766 6.91406C31.862 6.78385 32.2917 6.71875 32.7656 6.71875C33.4427 6.71875 34.0208 6.83854 34.5 7.07812C34.9792 7.31771 35.3464 7.63802 35.6016 8.03906C35.8568 8.4349 35.9844 8.875 35.9844 9.35938H34.5391C34.5391 9.125 34.4688 8.89844 34.3281 8.67969C34.1927 8.45573 33.9922 8.27083 33.7266 8.125C33.4661 7.97917 33.1458 7.90625 32.7656 7.90625C32.3646 7.90625 32.0391 7.96875 31.7891 8.09375C31.5443 8.21354 31.3646 8.36719 31.25 8.55469C31.1406 8.74219 31.0859 8.9401 31.0859 9.14844C31.0859 9.30469 31.112 9.44531 31.1641 9.57031C31.2214 9.6901 31.3203 9.80208 31.4609 9.90625C31.6016 10.0052 31.7995 10.099 32.0547 10.1875C32.3099 10.276 32.6354 10.3646 33.0312 10.4531C33.724 10.6094 34.2943 10.7969 34.7422 11.0156C35.1901 11.2344 35.5234 11.5026 35.7422 11.8203C35.9609 12.138 36.0703 12.5234 36.0703 12.9766C36.0703 13.3464 35.9922 13.6849 35.8359 13.9922C35.6849 14.2995 35.4635 14.5651 35.1719 14.7891C34.8854 15.0078 34.5417 15.1797 34.1406 15.3047C33.7448 15.4245 33.2995 15.4844 32.8047 15.4844C32.0599 15.4844 31.4297 15.3516 30.9141 15.0859C30.3984 14.8203 30.0078 14.4766 29.7422 14.0547C29.4766 13.6328 29.3438 13.1875 29.3438 12.7188H30.7969C30.8177 13.1146 30.9323 13.4297 31.1406 13.6641C31.349 13.8932 31.6042 14.0573 31.9062 14.1562C32.2083 14.25 32.5078 14.2969 32.8047 14.2969C33.2005 14.2969 33.5312 14.2448 33.7969 14.1406C34.0677 14.0365 34.2734 13.8932 34.4141 13.7109C34.5547 13.5286 34.625 13.3203 34.625 13.0859Z" fill="#191D22"/>
<path d="M24.7266 15.4844C24.138 15.4844 23.6042 15.3854 23.125 15.1875C22.651 14.9844 22.2422 14.7005 21.8984 14.3359C21.5599 13.9714 21.2995 13.5391 21.1172 13.0391C20.9349 12.5391 20.8438 11.9922 20.8438 11.3984V11.0703C20.8438 10.3828 20.9453 9.77083 21.1484 9.23438C21.3516 8.69271 21.6276 8.23438 21.9766 7.85938C22.3255 7.48438 22.7214 7.20052 23.1641 7.00781C23.6068 6.8151 24.0651 6.71875 24.5391 6.71875C25.1432 6.71875 25.6641 6.82292 26.1016 7.03125C26.5443 7.23958 26.9062 7.53125 27.1875 7.90625C27.4688 8.27604 27.6771 8.71354 27.8125 9.21875C27.9479 9.71875 28.0156 10.2656 28.0156 10.8594V11.5078H21.7031V10.3281H26.5703V10.2188C26.5495 9.84375 26.4714 9.47917 26.3359 9.125C26.2057 8.77083 25.9974 8.47917 25.7109 8.25C25.4245 8.02083 25.0339 7.90625 24.5391 7.90625C24.2109 7.90625 23.9089 7.97656 23.6328 8.11719C23.3568 8.2526 23.1198 8.45573 22.9219 8.72656C22.724 8.9974 22.5703 9.32812 22.4609 9.71875C22.3516 10.1094 22.2969 10.5599 22.2969 11.0703V11.3984C22.2969 11.7995 22.3516 12.1771 22.4609 12.5312C22.5755 12.8802 22.7396 13.1875 22.9531 13.4531C23.1719 13.7188 23.4349 13.9271 23.7422 14.0781C24.0547 14.2292 24.4089 14.3047 24.8047 14.3047C25.3151 14.3047 25.7474 14.2005 26.1016 13.9922C26.4557 13.7839 26.7656 13.5052 27.0312 13.1562L27.9062 13.8516C27.724 14.1276 27.4922 14.3906 27.2109 14.6406C26.9297 14.8906 26.5833 15.0938 26.1719 15.25C25.7656 15.4062 25.2839 15.4844 24.7266 15.4844Z" fill="#191D22"/>
<path d="M18.8984 3.32812V15.3281H17.4453V3.32812H18.8984Z" fill="#191D22"/>
<path d="M13.6094 13.8828V9.53125C13.6094 9.19792 13.5417 8.90885 13.4062 8.66406C13.276 8.41406 13.0781 8.22135 12.8125 8.08594C12.5469 7.95052 12.2188 7.88281 11.8281 7.88281C11.4635 7.88281 11.1432 7.94531 10.8672 8.07031C10.5964 8.19531 10.3828 8.35938 10.2266 8.5625C10.0755 8.76562 10 8.98438 10 9.21875H8.55469C8.55469 8.91667 8.63281 8.61719 8.78906 8.32031C8.94531 8.02344 9.16927 7.75521 9.46094 7.51562C9.75781 7.27083 10.112 7.07812 10.5234 6.9375C10.9401 6.79167 11.4036 6.71875 11.9141 6.71875C12.5286 6.71875 13.0703 6.82292 13.5391 7.03125C14.013 7.23958 14.3828 7.55469 14.6484 7.97656C14.9193 8.39323 15.0547 8.91667 15.0547 9.54688V13.4844C15.0547 13.7656 15.0781 14.0651 15.125 14.3828C15.1771 14.7005 15.2526 14.974 15.3516 15.2031V15.3281H13.8438C13.7708 15.1615 13.7135 14.9401 13.6719 14.6641C13.6302 14.3828 13.6094 14.1224 13.6094 13.8828ZM13.8594 10.2031L13.875 11.2188H12.4141C12.0026 11.2188 11.6354 11.2526 11.3125 11.3203C10.9896 11.3828 10.7188 11.4792 10.5 11.6094C10.2812 11.7396 10.1146 11.9036 10 12.1016C9.88542 12.2943 9.82812 12.5208 9.82812 12.7812C9.82812 13.0469 9.88802 13.2891 10.0078 13.5078C10.1276 13.7266 10.3073 13.901 10.5469 14.0312C10.7917 14.1562 11.0911 14.2188 11.4453 14.2188C11.888 14.2188 12.2786 14.125 12.6172 13.9375C12.9557 13.75 13.224 13.5208 13.4219 13.25C13.625 12.9792 13.7344 12.7161 13.75 12.4609L14.3672 13.1562C14.3307 13.375 14.2318 13.6172 14.0703 13.8828C13.9089 14.1484 13.6927 14.4036 13.4219 14.6484C13.1562 14.888 12.8385 15.0885 12.4688 15.25C12.1042 15.4062 11.6927 15.4844 11.2344 15.4844C10.6615 15.4844 10.1589 15.3724 9.72656 15.1484C9.29948 14.9245 8.96615 14.625 8.72656 14.25C8.49219 13.8698 8.375 13.4453 8.375 12.9766C8.375 12.5234 8.46354 12.125 8.64062 11.7812C8.81771 11.4323 9.07292 11.1432 9.40625 10.9141C9.73958 10.6797 10.1406 10.5026 10.6094 10.3828C11.0781 10.263 11.6016 10.2031 12.1797 10.2031H13.8594Z" fill="#191D22"/>
<path d="M5.28125 13.0859C5.28125 12.8776 5.23438 12.6849 5.14062 12.5078C5.05208 12.3255 4.86719 12.1615 4.58594 12.0156C4.3099 11.8646 3.89323 11.7344 3.33594 11.625C2.86719 11.526 2.44271 11.4089 2.0625 11.2734C1.6875 11.138 1.36719 10.974 1.10156 10.7812C0.841146 10.5885 0.640625 10.362 0.5 10.1016C0.359375 9.84115 0.289062 9.53646 0.289062 9.1875C0.289062 8.85417 0.361979 8.53906 0.507812 8.24219C0.658854 7.94531 0.869792 7.68229 1.14062 7.45312C1.41667 7.22396 1.7474 7.04427 2.13281 6.91406C2.51823 6.78385 2.94792 6.71875 3.42188 6.71875C4.09896 6.71875 4.67708 6.83854 5.15625 7.07812C5.63542 7.31771 6.0026 7.63802 6.25781 8.03906C6.51302 8.4349 6.64062 8.875 6.64062 9.35938H5.19531C5.19531 9.125 5.125 8.89844 4.98438 8.67969C4.84896 8.45573 4.64844 8.27083 4.38281 8.125C4.1224 7.97917 3.80208 7.90625 3.42188 7.90625C3.02083 7.90625 2.69531 7.96875 2.44531 8.09375C2.20052 8.21354 2.02083 8.36719 1.90625 8.55469C1.79688 8.74219 1.74219 8.9401 1.74219 9.14844C1.74219 9.30469 1.76823 9.44531 1.82031 9.57031C1.8776 9.6901 1.97656 9.80208 2.11719 9.90625C2.25781 10.0052 2.45573 10.099 2.71094 10.1875C2.96615 10.276 3.29167 10.3646 3.6875 10.4531C4.38021 10.6094 4.95052 10.7969 5.39844 11.0156C5.84635 11.2344 6.17969 11.5026 6.39844 11.8203C6.61719 12.138 6.72656 12.5234 6.72656 12.9766C6.72656 13.3464 6.64844 13.6849 6.49219 13.9922C6.34115 14.2995 6.11979 14.5651 5.82812 14.7891C5.54167 15.0078 5.19792 15.1797 4.79688 15.3047C4.40104 15.4245 3.95573 15.4844 3.46094 15.4844C2.71615 15.4844 2.08594 15.3516 1.57031 15.0859C1.05469 14.8203 0.664062 14.4766 0.398438 14.0547C0.132812 13.6328 0 13.1875 0 12.7188H1.45312C1.47396 13.1146 1.58854 13.4297 1.79688 13.6641C2.00521 13.8932 2.26042 14.0573 2.5625 14.1562C2.86458 14.25 3.16406 14.2969 3.46094 14.2969C3.85677 14.2969 4.1875 14.2448 4.45312 14.1406C4.72396 14.0365 4.92969 13.8932 5.07031 13.7109C5.21094 13.5286 5.28125 13.3203 5.28125 13.0859Z" fill="#191D22"/>
</svg>
