<svg width="211" height="22" viewBox="0 0 211 22" fill="none" xmlns="http://www.w3.org/2000/svg">
<path d="M199.867 8.22656V15H198.414V6.54688H199.789L199.867 8.22656ZM199.57 10.4531L198.898 10.4297C198.904 9.85156 198.979 9.31771 199.125 8.82812C199.271 8.33333 199.487 7.90365 199.773 7.53906C200.06 7.17448 200.417 6.89323 200.844 6.69531C201.271 6.49219 201.766 6.39062 202.328 6.39062C202.724 6.39062 203.089 6.44792 203.422 6.5625C203.755 6.67188 204.044 6.84635 204.289 7.08594C204.534 7.32552 204.724 7.63281 204.859 8.00781C204.995 8.38281 205.062 8.83594 205.062 9.36719V15H203.617V9.4375C203.617 8.99479 203.542 8.64062 203.391 8.375C203.245 8.10938 203.036 7.91667 202.766 7.79688C202.495 7.67188 202.177 7.60938 201.812 7.60938C201.385 7.60938 201.029 7.6849 200.742 7.83594C200.456 7.98698 200.227 8.19531 200.055 8.46094C199.883 8.72656 199.758 9.03125 199.68 9.375C199.607 9.71354 199.57 10.0729 199.57 10.4531ZM205.047 9.65625L204.078 9.95312C204.083 9.48958 204.159 9.04427 204.305 8.61719C204.456 8.1901 204.672 7.8099 204.953 7.47656C205.24 7.14323 205.591 6.88021 206.008 6.6875C206.424 6.48958 206.901 6.39062 207.438 6.39062C207.891 6.39062 208.292 6.45052 208.641 6.57031C208.995 6.6901 209.292 6.875 209.531 7.125C209.776 7.36979 209.961 7.6849 210.086 8.07031C210.211 8.45573 210.273 8.91406 210.273 9.44531V15H208.82V9.42969C208.82 8.95573 208.745 8.58854 208.594 8.32812C208.448 8.0625 208.24 7.8776 207.969 7.77344C207.703 7.66406 207.385 7.60938 207.016 7.60938C206.698 7.60938 206.417 7.66406 206.172 7.77344C205.927 7.88281 205.721 8.03385 205.555 8.22656C205.388 8.41406 205.26 8.63021 205.172 8.875C205.089 9.11979 205.047 9.38021 205.047 9.65625Z" fill="#191D22"/>
<path d="M188.922 10.8672V10.6875C188.922 10.0781 189.01 9.51302 189.188 8.99219C189.365 8.46615 189.62 8.01042 189.953 7.625C190.286 7.23438 190.69 6.93229 191.164 6.71875C191.638 6.5 192.169 6.39062 192.758 6.39062C193.352 6.39062 193.885 6.5 194.359 6.71875C194.839 6.93229 195.245 7.23438 195.578 7.625C195.917 8.01042 196.174 8.46615 196.352 8.99219C196.529 9.51302 196.617 10.0781 196.617 10.6875V10.8672C196.617 11.4766 196.529 12.0417 196.352 12.5625C196.174 13.0833 195.917 13.5391 195.578 13.9297C195.245 14.3151 194.841 14.6172 194.367 14.8359C193.898 15.0495 193.367 15.1562 192.773 15.1562C192.18 15.1562 191.646 15.0495 191.172 14.8359C190.698 14.6172 190.292 14.3151 189.953 13.9297C189.62 13.5391 189.365 13.0833 189.188 12.5625C189.01 12.0417 188.922 11.4766 188.922 10.8672ZM190.367 10.6875V10.8672C190.367 11.2891 190.417 11.6875 190.516 12.0625C190.615 12.4323 190.763 12.7604 190.961 13.0469C191.164 13.3333 191.417 13.5599 191.719 13.7266C192.021 13.888 192.372 13.9688 192.773 13.9688C193.169 13.9688 193.516 13.888 193.812 13.7266C194.115 13.5599 194.365 13.3333 194.562 13.0469C194.76 12.7604 194.909 12.4323 195.008 12.0625C195.112 11.6875 195.164 11.2891 195.164 10.8672V10.6875C195.164 10.2708 195.112 9.8776 195.008 9.50781C194.909 9.13281 194.758 8.80208 194.555 8.51562C194.357 8.22396 194.107 7.99479 193.805 7.82812C193.508 7.66146 193.159 7.57812 192.758 7.57812C192.362 7.57812 192.013 7.66146 191.711 7.82812C191.414 7.99479 191.164 8.22396 190.961 8.51562C190.763 8.80208 190.615 9.13281 190.516 9.50781C190.417 9.8776 190.367 10.2708 190.367 10.6875Z" fill="#191D22"/>
<path d="M184.312 13.9688C184.656 13.9688 184.974 13.8984 185.266 13.7578C185.557 13.6172 185.797 13.4245 185.984 13.1797C186.172 12.9297 186.279 12.6458 186.305 12.3281H187.68C187.654 12.8281 187.484 13.2943 187.172 13.7266C186.865 14.1536 186.461 14.5 185.961 14.7656C185.461 15.026 184.911 15.1562 184.312 15.1562C183.677 15.1562 183.122 15.0443 182.648 14.8203C182.18 14.5964 181.789 14.2891 181.477 13.8984C181.169 13.5078 180.938 13.0599 180.781 12.5547C180.63 12.0443 180.555 11.5052 180.555 10.9375V10.6094C180.555 10.0417 180.63 9.50521 180.781 9C180.938 8.48958 181.169 8.03906 181.477 7.64844C181.789 7.25781 182.18 6.95052 182.648 6.72656C183.122 6.5026 183.677 6.39062 184.312 6.39062C184.974 6.39062 185.552 6.52604 186.047 6.79688C186.542 7.0625 186.93 7.42708 187.211 7.89062C187.497 8.34896 187.654 8.86979 187.68 9.45312H186.305C186.279 9.10417 186.18 8.78906 186.008 8.50781C185.841 8.22656 185.612 8.0026 185.32 7.83594C185.034 7.66406 184.698 7.57812 184.312 7.57812C183.87 7.57812 183.497 7.66667 183.195 7.84375C182.898 8.01562 182.661 8.25 182.484 8.54688C182.312 8.83854 182.188 9.16406 182.109 9.52344C182.036 9.8776 182 10.2396 182 10.6094V10.9375C182 11.3073 182.036 11.6719 182.109 12.0312C182.182 12.3906 182.305 12.7161 182.477 13.0078C182.654 13.2995 182.891 13.5339 183.188 13.7109C183.49 13.8828 183.865 13.9688 184.312 13.9688Z" fill="#191D22"/>
<path d="M176.734 14.2344C176.734 13.9896 176.81 13.7839 176.961 13.6172C177.117 13.4453 177.341 13.3594 177.633 13.3594C177.924 13.3594 178.146 13.4453 178.297 13.6172C178.453 13.7839 178.531 13.9896 178.531 14.2344C178.531 14.474 178.453 14.6771 178.297 14.8438C178.146 15.0104 177.924 15.0938 177.633 15.0938C177.341 15.0938 177.117 15.0104 176.961 14.8438C176.81 14.6771 176.734 14.474 176.734 14.2344Z" fill="#191D22"/>
<path d="M173.367 12.7578C173.367 12.5495 173.32 12.3568 173.227 12.1797C173.138 11.9974 172.953 11.8333 172.672 11.6875C172.396 11.5365 171.979 11.4062 171.422 11.2969C170.953 11.1979 170.529 11.0807 170.148 10.9453C169.773 10.8099 169.453 10.6458 169.188 10.4531C168.927 10.2604 168.727 10.0339 168.586 9.77344C168.445 9.51302 168.375 9.20833 168.375 8.85938C168.375 8.52604 168.448 8.21094 168.594 7.91406C168.745 7.61719 168.956 7.35417 169.227 7.125C169.503 6.89583 169.833 6.71615 170.219 6.58594C170.604 6.45573 171.034 6.39062 171.508 6.39062C172.185 6.39062 172.763 6.51042 173.242 6.75C173.721 6.98958 174.089 7.3099 174.344 7.71094C174.599 8.10677 174.727 8.54688 174.727 9.03125H173.281C173.281 8.79688 173.211 8.57031 173.07 8.35156C172.935 8.1276 172.734 7.94271 172.469 7.79688C172.208 7.65104 171.888 7.57812 171.508 7.57812C171.107 7.57812 170.781 7.64062 170.531 7.76562C170.286 7.88542 170.107 8.03906 169.992 8.22656C169.883 8.41406 169.828 8.61198 169.828 8.82031C169.828 8.97656 169.854 9.11719 169.906 9.24219C169.964 9.36198 170.062 9.47396 170.203 9.57812C170.344 9.67708 170.542 9.77083 170.797 9.85938C171.052 9.94792 171.378 10.0365 171.773 10.125C172.466 10.2812 173.036 10.4688 173.484 10.6875C173.932 10.9062 174.266 11.1745 174.484 11.4922C174.703 11.8099 174.812 12.1953 174.812 12.6484C174.812 13.0182 174.734 13.3568 174.578 13.6641C174.427 13.9714 174.206 14.237 173.914 14.4609C173.628 14.6797 173.284 14.8516 172.883 14.9766C172.487 15.0964 172.042 15.1562 171.547 15.1562C170.802 15.1562 170.172 15.0234 169.656 14.7578C169.141 14.4922 168.75 14.1484 168.484 13.7266C168.219 13.3047 168.086 12.8594 168.086 12.3906H169.539C169.56 12.7865 169.674 13.1016 169.883 13.3359C170.091 13.5651 170.346 13.7292 170.648 13.8281C170.951 13.9219 171.25 13.9688 171.547 13.9688C171.943 13.9688 172.273 13.9167 172.539 13.8125C172.81 13.7083 173.016 13.5651 173.156 13.3828C173.297 13.2005 173.367 12.9922 173.367 12.7578Z" fill="#191D22"/>
<path d="M166.75 6.54688V7.65625H162.18V6.54688H166.75ZM163.727 4.49219H165.172V12.9062C165.172 13.1927 165.216 13.4089 165.305 13.5547C165.393 13.7005 165.508 13.7969 165.648 13.8438C165.789 13.8906 165.94 13.9141 166.102 13.9141C166.221 13.9141 166.346 13.9036 166.477 13.8828C166.612 13.8568 166.714 13.8359 166.781 13.8203L166.789 15C166.674 15.0365 166.523 15.0703 166.336 15.1016C166.154 15.138 165.932 15.1562 165.672 15.1562C165.318 15.1562 164.992 15.0859 164.695 14.9453C164.398 14.8047 164.161 14.5703 163.984 14.2422C163.812 13.9089 163.727 13.4609 163.727 12.8984V4.49219Z" fill="#191D22"/>
<path d="M158.234 15.1562C157.646 15.1562 157.112 15.0573 156.633 14.8594C156.159 14.6562 155.75 14.3724 155.406 14.0078C155.068 13.6432 154.807 13.2109 154.625 12.7109C154.443 12.2109 154.352 11.6641 154.352 11.0703V10.7422C154.352 10.0547 154.453 9.44271 154.656 8.90625C154.859 8.36458 155.135 7.90625 155.484 7.53125C155.833 7.15625 156.229 6.8724 156.672 6.67969C157.115 6.48698 157.573 6.39062 158.047 6.39062C158.651 6.39062 159.172 6.49479 159.609 6.70312C160.052 6.91146 160.414 7.20312 160.695 7.57812C160.977 7.94792 161.185 8.38542 161.32 8.89062C161.456 9.39062 161.523 9.9375 161.523 10.5312V11.1797H155.211V10H160.078V9.89062C160.057 9.51562 159.979 9.15104 159.844 8.79688C159.714 8.44271 159.505 8.15104 159.219 7.92188C158.932 7.69271 158.542 7.57812 158.047 7.57812C157.719 7.57812 157.417 7.64844 157.141 7.78906C156.865 7.92448 156.628 8.1276 156.43 8.39844C156.232 8.66927 156.078 9 155.969 9.39062C155.859 9.78125 155.805 10.2318 155.805 10.7422V11.0703C155.805 11.4714 155.859 11.849 155.969 12.2031C156.083 12.5521 156.247 12.8594 156.461 13.125C156.68 13.3906 156.943 13.599 157.25 13.75C157.562 13.901 157.917 13.9766 158.312 13.9766C158.823 13.9766 159.255 13.8724 159.609 13.6641C159.964 13.4557 160.273 13.1771 160.539 12.8281L161.414 13.5234C161.232 13.7995 161 14.0625 160.719 14.3125C160.438 14.5625 160.091 14.7656 159.68 14.9219C159.273 15.0781 158.792 15.1562 158.234 15.1562Z" fill="#191D22"/>
<path d="M151.219 6.54688H152.531V14.8203C152.531 15.5651 152.38 16.2005 152.078 16.7266C151.776 17.2526 151.354 17.651 150.812 17.9219C150.276 18.1979 149.656 18.3359 148.953 18.3359C148.661 18.3359 148.318 18.2891 147.922 18.1953C147.531 18.1068 147.146 17.9531 146.766 17.7344C146.391 17.5208 146.076 17.2318 145.82 16.8672L146.578 16.0078C146.932 16.4349 147.302 16.7318 147.688 16.8984C148.078 17.0651 148.464 17.1484 148.844 17.1484C149.302 17.1484 149.698 17.0625 150.031 16.8906C150.365 16.7188 150.622 16.4635 150.805 16.125C150.992 15.7917 151.086 15.3802 151.086 14.8906V8.40625L151.219 6.54688ZM145.398 10.8672V10.7031C145.398 10.0573 145.474 9.47135 145.625 8.94531C145.781 8.41406 146.003 7.95833 146.289 7.57812C146.581 7.19792 146.932 6.90625 147.344 6.70312C147.755 6.49479 148.219 6.39062 148.734 6.39062C149.266 6.39062 149.729 6.48438 150.125 6.67188C150.526 6.85417 150.865 7.1224 151.141 7.47656C151.422 7.82552 151.643 8.2474 151.805 8.74219C151.966 9.23698 152.078 9.79688 152.141 10.4219V11.1406C152.083 11.7604 151.971 12.3177 151.805 12.8125C151.643 13.3073 151.422 13.7292 151.141 14.0781C150.865 14.4271 150.526 14.6953 150.125 14.8828C149.724 15.0651 149.255 15.1562 148.719 15.1562C148.214 15.1562 147.755 15.0495 147.344 14.8359C146.938 14.6224 146.589 14.3229 146.297 13.9375C146.005 13.5521 145.781 13.099 145.625 12.5781C145.474 12.0521 145.398 11.4818 145.398 10.8672ZM146.844 10.7031V10.8672C146.844 11.2891 146.885 11.6849 146.969 12.0547C147.057 12.4245 147.19 12.75 147.367 13.0312C147.549 13.3125 147.781 13.5339 148.062 13.6953C148.344 13.8516 148.68 13.9297 149.07 13.9297C149.549 13.9297 149.945 13.8281 150.258 13.625C150.57 13.4219 150.818 13.1536 151 12.8203C151.188 12.487 151.333 12.125 151.438 11.7344V9.85156C151.38 9.5651 151.292 9.28906 151.172 9.02344C151.057 8.7526 150.906 8.51302 150.719 8.30469C150.536 8.09115 150.31 7.92188 150.039 7.79688C149.768 7.67188 149.451 7.60938 149.086 7.60938C148.69 7.60938 148.349 7.69271 148.062 7.85938C147.781 8.02083 147.549 8.24479 147.367 8.53125C147.19 8.8125 147.057 9.14062 146.969 9.51562C146.885 9.88542 146.844 10.2812 146.844 10.7031Z" fill="#191D22"/>
<path d="M142.039 13.3594V3H143.492V15H142.164L142.039 13.3594ZM136.352 10.8672V10.7031C136.352 10.0573 136.43 9.47135 136.586 8.94531C136.747 8.41406 136.974 7.95833 137.266 7.57812C137.562 7.19792 137.914 6.90625 138.32 6.70312C138.732 6.49479 139.19 6.39062 139.695 6.39062C140.227 6.39062 140.69 6.48438 141.086 6.67188C141.487 6.85417 141.826 7.1224 142.102 7.47656C142.383 7.82552 142.604 8.2474 142.766 8.74219C142.927 9.23698 143.039 9.79688 143.102 10.4219V11.1406C143.044 11.7604 142.932 12.3177 142.766 12.8125C142.604 13.3073 142.383 13.7292 142.102 14.0781C141.826 14.4271 141.487 14.6953 141.086 14.8828C140.685 15.0651 140.216 15.1562 139.68 15.1562C139.185 15.1562 138.732 15.0495 138.32 14.8359C137.914 14.6224 137.562 14.3229 137.266 13.9375C136.974 13.5521 136.747 13.099 136.586 12.5781C136.43 12.0521 136.352 11.4818 136.352 10.8672ZM137.805 10.7031V10.8672C137.805 11.2891 137.846 11.6849 137.93 12.0547C138.018 12.4245 138.154 12.75 138.336 13.0312C138.518 13.3125 138.75 13.5339 139.031 13.6953C139.312 13.8516 139.648 13.9297 140.039 13.9297C140.518 13.9297 140.911 13.8281 141.219 13.625C141.531 13.4219 141.781 13.1536 141.969 12.8203C142.156 12.487 142.302 12.125 142.406 11.7344V9.85156C142.344 9.5651 142.253 9.28906 142.133 9.02344C142.018 8.7526 141.867 8.51302 141.68 8.30469C141.497 8.09115 141.271 7.92188 141 7.79688C140.734 7.67188 140.419 7.60938 140.055 7.60938C139.659 7.60938 139.318 7.69271 139.031 7.85938C138.75 8.02083 138.518 8.24479 138.336 8.53125C138.154 8.8125 138.018 9.14062 137.93 9.51562C137.846 9.88542 137.805 10.2812 137.805 10.7031Z" fill="#191D22"/>
<path d="M134.391 6.54688V15H132.938V6.54688H134.391ZM132.828 4.30469C132.828 4.07031 132.898 3.8724 133.039 3.71094C133.185 3.54948 133.398 3.46875 133.68 3.46875C133.956 3.46875 134.167 3.54948 134.312 3.71094C134.464 3.8724 134.539 4.07031 134.539 4.30469C134.539 4.52865 134.464 4.72135 134.312 4.88281C134.167 5.03906 133.956 5.11719 133.68 5.11719C133.398 5.11719 133.185 5.03906 133.039 4.88281C132.898 4.72135 132.828 4.52865 132.828 4.30469Z" fill="#191D22"/>
<path d="M122.93 13.5L125.102 6.54688H126.055L125.867 7.92969L123.656 15H122.727L122.93 13.5ZM121.469 6.54688L123.32 13.5781L123.453 15H122.477L120.023 6.54688H121.469ZM128.133 13.5234L129.898 6.54688H131.336L128.883 15H127.914L128.133 13.5234ZM126.266 6.54688L128.391 13.3828L128.633 15H127.711L125.438 7.91406L125.25 6.54688H126.266Z" fill="#191D22"/>
<path d="M117.086 13.3594V3H118.539V15H117.211L117.086 13.3594ZM111.398 10.8672V10.7031C111.398 10.0573 111.477 9.47135 111.633 8.94531C111.794 8.41406 112.021 7.95833 112.312 7.57812C112.609 7.19792 112.961 6.90625 113.367 6.70312C113.779 6.49479 114.237 6.39062 114.742 6.39062C115.273 6.39062 115.737 6.48438 116.133 6.67188C116.534 6.85417 116.872 7.1224 117.148 7.47656C117.43 7.82552 117.651 8.2474 117.812 8.74219C117.974 9.23698 118.086 9.79688 118.148 10.4219V11.1406C118.091 11.7604 117.979 12.3177 117.812 12.8125C117.651 13.3073 117.43 13.7292 117.148 14.0781C116.872 14.4271 116.534 14.6953 116.133 14.8828C115.732 15.0651 115.263 15.1562 114.727 15.1562C114.232 15.1562 113.779 15.0495 113.367 14.8359C112.961 14.6224 112.609 14.3229 112.312 13.9375C112.021 13.5521 111.794 13.099 111.633 12.5781C111.477 12.0521 111.398 11.4818 111.398 10.8672ZM112.852 10.7031V10.8672C112.852 11.2891 112.893 11.6849 112.977 12.0547C113.065 12.4245 113.201 12.75 113.383 13.0312C113.565 13.3125 113.797 13.5339 114.078 13.6953C114.359 13.8516 114.695 13.9297 115.086 13.9297C115.565 13.9297 115.958 13.8281 116.266 13.625C116.578 13.4219 116.828 13.1536 117.016 12.8203C117.203 12.487 117.349 12.125 117.453 11.7344V9.85156C117.391 9.5651 117.299 9.28906 117.18 9.02344C117.065 8.7526 116.914 8.51302 116.727 8.30469C116.544 8.09115 116.318 7.92188 116.047 7.79688C115.781 7.67188 115.466 7.60938 115.102 7.60938C114.706 7.60938 114.365 7.69271 114.078 7.85938C113.797 8.02083 113.565 8.24479 113.383 8.53125C113.201 8.8125 113.065 9.14062 112.977 9.51562C112.893 9.88542 112.852 10.2812 112.852 10.7031Z" fill="#191D22"/>
<path d="M104.359 8.35156V15H102.914V6.54688H104.281L104.359 8.35156ZM104.016 10.4531L103.414 10.4297C103.419 9.85156 103.505 9.31771 103.672 8.82812C103.839 8.33333 104.073 7.90365 104.375 7.53906C104.677 7.17448 105.036 6.89323 105.453 6.69531C105.875 6.49219 106.341 6.39062 106.852 6.39062C107.268 6.39062 107.643 6.44792 107.977 6.5625C108.31 6.67188 108.594 6.84896 108.828 7.09375C109.068 7.33854 109.25 7.65625 109.375 8.04688C109.5 8.43229 109.562 8.90365 109.562 9.46094V15H108.109V9.44531C108.109 9.0026 108.044 8.64844 107.914 8.38281C107.784 8.11198 107.594 7.91667 107.344 7.79688C107.094 7.67188 106.786 7.60938 106.422 7.60938C106.062 7.60938 105.734 7.6849 105.438 7.83594C105.146 7.98698 104.893 8.19531 104.68 8.46094C104.471 8.72656 104.307 9.03125 104.188 9.375C104.073 9.71354 104.016 10.0729 104.016 10.4531Z" fill="#191D22"/>
<path d="M99.2578 13.0469V6.54688H100.711V15H99.3281L99.2578 13.0469ZM99.5312 11.2656L100.133 11.25C100.133 11.8125 100.073 12.3333 99.9531 12.8125C99.8385 13.2865 99.651 13.6979 99.3906 14.0469C99.1302 14.3958 98.7891 14.6693 98.3672 14.8672C97.9453 15.0599 97.4323 15.1562 96.8281 15.1562C96.4167 15.1562 96.0391 15.0964 95.6953 14.9766C95.3568 14.8568 95.0651 14.6719 94.8203 14.4219C94.5755 14.1719 94.3854 13.8464 94.25 13.4453C94.1198 13.0443 94.0547 12.5625 94.0547 12V6.54688H95.5V12.0156C95.5 12.3958 95.5417 12.7109 95.625 12.9609C95.7135 13.2057 95.8307 13.401 95.9766 13.5469C96.1276 13.6875 96.2943 13.7865 96.4766 13.8438C96.6641 13.901 96.8568 13.9297 97.0547 13.9297C97.6693 13.9297 98.1562 13.8125 98.5156 13.5781C98.875 13.3385 99.1328 13.0182 99.2891 12.6172C99.4505 12.2109 99.5312 11.7604 99.5312 11.2656Z" fill="#191D22"/>
<path d="M84.5781 10.8672V10.6875C84.5781 10.0781 84.6667 9.51302 84.8438 8.99219C85.0208 8.46615 85.276 8.01042 85.6094 7.625C85.9427 7.23438 86.3464 6.93229 86.8203 6.71875C87.2943 6.5 87.8255 6.39062 88.4141 6.39062C89.0078 6.39062 89.5417 6.5 90.0156 6.71875C90.4948 6.93229 90.901 7.23438 91.2344 7.625C91.5729 8.01042 91.8307 8.46615 92.0078 8.99219C92.1849 9.51302 92.2734 10.0781 92.2734 10.6875V10.8672C92.2734 11.4766 92.1849 12.0417 92.0078 12.5625C91.8307 13.0833 91.5729 13.5391 91.2344 13.9297C90.901 14.3151 90.4974 14.6172 90.0234 14.8359C89.5547 15.0495 89.0234 15.1562 88.4297 15.1562C87.8359 15.1562 87.3021 15.0495 86.8281 14.8359C86.3542 14.6172 85.9479 14.3151 85.6094 13.9297C85.276 13.5391 85.0208 13.0833 84.8438 12.5625C84.6667 12.0417 84.5781 11.4766 84.5781 10.8672ZM86.0234 10.6875V10.8672C86.0234 11.2891 86.0729 11.6875 86.1719 12.0625C86.2708 12.4323 86.4193 12.7604 86.6172 13.0469C86.8203 13.3333 87.0729 13.5599 87.375 13.7266C87.6771 13.888 88.0286 13.9688 88.4297 13.9688C88.8255 13.9688 89.1719 13.888 89.4688 13.7266C89.7708 13.5599 90.0208 13.3333 90.2188 13.0469C90.4167 12.7604 90.5651 12.4323 90.6641 12.0625C90.7682 11.6875 90.8203 11.2891 90.8203 10.8672V10.6875C90.8203 10.2708 90.7682 9.8776 90.6641 9.50781C90.5651 9.13281 90.4141 8.80208 90.2109 8.51562C90.013 8.22396 89.763 7.99479 89.4609 7.82812C89.1641 7.66146 88.8151 7.57812 88.4141 7.57812C88.0182 7.57812 87.6693 7.66146 87.3672 7.82812C87.0703 7.99479 86.8203 8.22396 86.6172 8.51562C86.4193 8.80208 86.2708 9.13281 86.1719 9.50781C86.0729 9.8776 86.0234 10.2708 86.0234 10.6875Z" fill="#191D22"/>
<path d="M81.1406 7.875V15H79.6953V6.54688H81.1016L81.1406 7.875ZM83.7812 6.5L83.7734 7.84375C83.6536 7.81771 83.5391 7.80208 83.4297 7.79688C83.3255 7.78646 83.2057 7.78125 83.0703 7.78125C82.737 7.78125 82.4427 7.83333 82.1875 7.9375C81.9323 8.04167 81.7161 8.1875 81.5391 8.375C81.362 8.5625 81.2214 8.78646 81.1172 9.04688C81.0182 9.30208 80.9531 9.58333 80.9219 9.89062L80.5156 10.125C80.5156 9.61458 80.5651 9.13542 80.6641 8.6875C80.7682 8.23958 80.9271 7.84375 81.1406 7.5C81.3542 7.15104 81.625 6.88021 81.9531 6.6875C82.2865 6.48958 82.6823 6.39062 83.1406 6.39062C83.2448 6.39062 83.3646 6.40365 83.5 6.42969C83.6354 6.45052 83.7292 6.47396 83.7812 6.5Z" fill="#191D22"/>
<path d="M76.1875 6.54688H77.5V14.8203C77.5 15.5651 77.349 16.2005 77.0469 16.7266C76.7448 17.2526 76.3229 17.651 75.7812 17.9219C75.2448 18.1979 74.625 18.3359 73.9219 18.3359C73.6302 18.3359 73.2865 18.2891 72.8906 18.1953C72.5 18.1068 72.1146 17.9531 71.7344 17.7344C71.3594 17.5208 71.0443 17.2318 70.7891 16.8672L71.5469 16.0078C71.901 16.4349 72.2708 16.7318 72.6562 16.8984C73.0469 17.0651 73.4323 17.1484 73.8125 17.1484C74.2708 17.1484 74.6667 17.0625 75 16.8906C75.3333 16.7188 75.5911 16.4635 75.7734 16.125C75.9609 15.7917 76.0547 15.3802 76.0547 14.8906V8.40625L76.1875 6.54688ZM70.3672 10.8672V10.7031C70.3672 10.0573 70.4427 9.47135 70.5938 8.94531C70.75 8.41406 70.9714 7.95833 71.2578 7.57812C71.5495 7.19792 71.901 6.90625 72.3125 6.70312C72.724 6.49479 73.1875 6.39062 73.7031 6.39062C74.2344 6.39062 74.6979 6.48438 75.0938 6.67188C75.4948 6.85417 75.8333 7.1224 76.1094 7.47656C76.3906 7.82552 76.612 8.2474 76.7734 8.74219C76.9349 9.23698 77.0469 9.79688 77.1094 10.4219V11.1406C77.0521 11.7604 76.9401 12.3177 76.7734 12.8125C76.612 13.3073 76.3906 13.7292 76.1094 14.0781C75.8333 14.4271 75.4948 14.6953 75.0938 14.8828C74.6927 15.0651 74.224 15.1562 73.6875 15.1562C73.1823 15.1562 72.724 15.0495 72.3125 14.8359C71.9062 14.6224 71.5573 14.3229 71.2656 13.9375C70.974 13.5521 70.75 13.099 70.5938 12.5781C70.4427 12.0521 70.3672 11.4818 70.3672 10.8672ZM71.8125 10.7031V10.8672C71.8125 11.2891 71.8542 11.6849 71.9375 12.0547C72.026 12.4245 72.1589 12.75 72.3359 13.0312C72.5182 13.3125 72.75 13.5339 73.0312 13.6953C73.3125 13.8516 73.6484 13.9297 74.0391 13.9297C74.5182 13.9297 74.9141 13.8281 75.2266 13.625C75.5391 13.4219 75.7865 13.1536 75.9688 12.8203C76.1562 12.487 76.3021 12.125 76.4062 11.7344V9.85156C76.349 9.5651 76.2604 9.28906 76.1406 9.02344C76.026 8.7526 75.875 8.51302 75.6875 8.30469C75.5052 8.09115 75.2786 7.92188 75.0078 7.79688C74.737 7.67188 74.4193 7.60938 74.0547 7.60938C73.6589 7.60938 73.3177 7.69271 73.0312 7.85938C72.75 8.02083 72.5182 8.24479 72.3359 8.53125C72.1589 8.8125 72.026 9.14062 71.9375 9.51562C71.8542 9.88542 71.8125 10.2812 71.8125 10.7031Z" fill="#191D22"/>
<path d="M68.797 11.0703C68.7761 11.5495 68.7032 12.0312 68.5782 12.5156C68.4532 12.9948 68.2657 13.4349 68.0157 13.8359C67.7657 14.237 67.4402 14.5599 67.0392 14.8047C66.6433 15.0443 66.1642 15.1641 65.6017 15.1641C65.2423 15.1641 64.9272 15.1016 64.6563 14.9766C64.3907 14.8464 64.172 14.6615 64.0001 14.4219C63.8334 14.1823 63.7162 13.8932 63.6485 13.5547C63.586 13.2161 63.5756 12.8385 63.6173 12.4219L64.0157 8.09375H65.1642L64.7657 12.4219C64.7345 12.8021 64.7423 13.112 64.7892 13.3516C64.8412 13.5911 64.9194 13.776 65.0235 13.9062C65.1277 14.0312 65.2449 14.1172 65.3751 14.1641C65.5105 14.2109 65.6407 14.2344 65.7657 14.2344C66.0782 14.2344 66.3569 14.1536 66.6017 13.9922C66.8464 13.8255 67.0522 13.599 67.2188 13.3125C67.3907 13.0208 67.5235 12.6849 67.6173 12.3047C67.711 11.9193 67.7683 11.5078 67.7892 11.0703C67.8256 10.2943 67.7892 9.58073 67.6798 8.92969C67.5756 8.27865 67.3959 7.70052 67.1407 7.19531C66.8907 6.6901 66.5626 6.26302 66.1563 5.91406C65.7501 5.5651 65.2657 5.29948 64.7032 5.11719C64.1407 4.9349 63.4975 4.84375 62.7735 4.84375C62.1173 4.84375 61.5105 4.94531 60.9532 5.14844C60.4011 5.34635 59.9037 5.63281 59.461 6.00781C59.0235 6.38281 58.6459 6.83333 58.3282 7.35938C58.0157 7.88542 57.7683 8.47917 57.586 9.14062C57.4089 9.79688 57.3048 10.5052 57.2735 11.2656C57.2371 12.0469 57.2787 12.7656 57.3985 13.4219C57.5183 14.0729 57.711 14.6536 57.9767 15.1641C58.2475 15.6797 58.5886 16.1146 59.0001 16.4688C59.4116 16.8281 59.8881 17.099 60.4298 17.2812C60.9714 17.4688 61.5756 17.5625 62.2423 17.5625C62.7006 17.5625 63.1642 17.5078 63.6329 17.3984C64.1069 17.2891 64.5027 17.1406 64.8204 16.9531L65.1173 17.8438C64.7527 18.0781 64.297 18.2526 63.7501 18.3672C63.2084 18.4818 62.6954 18.5391 62.211 18.5391C61.4194 18.5391 60.6954 18.4297 60.0392 18.2109C59.3881 17.9974 58.81 17.6823 58.3048 17.2656C57.8048 16.8542 57.3881 16.3516 57.0548 15.7578C56.7214 15.1693 56.4767 14.4974 56.3204 13.7422C56.1642 12.987 56.1043 12.1615 56.1407 11.2656C56.1772 10.4115 56.3048 9.60677 56.5235 8.85156C56.7475 8.09635 57.0522 7.41146 57.4376 6.79688C57.823 6.18229 58.2813 5.65365 58.8126 5.21094C59.3491 4.76302 59.9506 4.41927 60.6173 4.17969C61.2892 3.9401 62.0183 3.82031 62.8048 3.82031C63.6069 3.82031 64.3334 3.92969 64.9845 4.14844C65.6355 4.36719 66.2058 4.68229 66.6954 5.09375C67.1902 5.50521 67.5991 6.00781 67.922 6.60156C68.2449 7.19531 68.4793 7.86719 68.6251 8.61719C68.7761 9.36719 68.8334 10.1849 68.797 11.0703ZM60.7735 11.7344C60.7371 12.099 60.7371 12.4245 60.7735 12.7109C60.81 12.9974 60.8803 13.2396 60.9845 13.4375C61.0886 13.6354 61.2241 13.7865 61.3907 13.8906C61.5626 13.9896 61.7631 14.0391 61.9923 14.0391C62.1433 14.0391 62.3022 14.0026 62.4688 13.9297C62.6355 13.8516 62.7996 13.7318 62.961 13.5703C63.1225 13.4089 63.2735 13.1979 63.4142 12.9375C63.5548 12.6771 63.672 12.3646 63.7657 12L64.2813 12.5625C64.1616 12.9896 64.0053 13.3646 63.8126 13.6875C63.6251 14.0104 63.4142 14.2812 63.1798 14.5C62.9454 14.7188 62.6954 14.8854 62.4298 15C62.1694 15.1094 61.9037 15.1641 61.6329 15.1641C61.2527 15.1641 60.9194 15.0833 60.6329 14.9219C60.3464 14.7552 60.1147 14.5208 59.9376 14.2188C59.7605 13.9167 59.6355 13.5573 59.5626 13.1406C59.4949 12.7188 59.4845 12.25 59.5313 11.7344C59.5782 11.1875 59.6746 10.6823 59.8204 10.2188C59.9662 9.75521 60.1459 9.34115 60.3595 8.97656C60.5782 8.61198 60.823 8.30208 61.0938 8.04688C61.3699 7.79167 61.6616 7.59896 61.9688 7.46875C62.2761 7.33333 62.5912 7.26562 62.9142 7.26562C63.4767 7.26562 63.9194 7.34896 64.2423 7.51562C64.5652 7.67708 64.8725 7.86979 65.1642 8.09375L64.5001 8.86719C64.3491 8.72135 64.1511 8.58594 63.9063 8.46094C63.6616 8.33594 63.3725 8.27344 63.0392 8.27344C62.7527 8.27344 62.4845 8.34635 62.2345 8.49219C61.9845 8.63802 61.7579 8.85677 61.5548 9.14844C61.3569 9.4401 61.1902 9.80208 61.0548 10.2344C60.9194 10.6615 60.8256 11.1615 60.7735 11.7344Z" fill="#191D22"/>
<path d="M54.6406 6.54688V7.65625H50.0703V6.54688H54.6406ZM51.6172 4.49219H53.0625V12.9062C53.0625 13.1927 53.1068 13.4089 53.1953 13.5547C53.2839 13.7005 53.3984 13.7969 53.5391 13.8438C53.6797 13.8906 53.8307 13.9141 53.9922 13.9141C54.112 13.9141 54.237 13.9036 54.3672 13.8828C54.5026 13.8568 54.6042 13.8359 54.6719 13.8203L54.6797 15C54.5651 15.0365 54.4141 15.0703 54.2266 15.1016C54.0443 15.138 53.8229 15.1562 53.5625 15.1562C53.2083 15.1562 52.8828 15.0859 52.5859 14.9453C52.2891 14.8047 52.0521 14.5703 51.875 14.2422C51.7031 13.9089 51.6172 13.4609 51.6172 12.8984V4.49219Z" fill="#191D22"/>
<path d="M46.7344 7.875V15H45.2891V6.54688H46.6953L46.7344 7.875ZM49.375 6.5L49.3672 7.84375C49.2474 7.81771 49.1328 7.80208 49.0234 7.79688C48.9193 7.78646 48.7995 7.78125 48.6641 7.78125C48.3307 7.78125 48.0365 7.83333 47.7812 7.9375C47.526 8.04167 47.3099 8.1875 47.1328 8.375C46.9557 8.5625 46.8151 8.78646 46.7109 9.04688C46.612 9.30208 46.5469 9.58333 46.5156 9.89062L46.1094 10.125C46.1094 9.61458 46.1589 9.13542 46.2578 8.6875C46.362 8.23958 46.5208 7.84375 46.7344 7.5C46.9479 7.15104 47.2188 6.88021 47.5469 6.6875C47.8802 6.48958 48.276 6.39062 48.7344 6.39062C48.8385 6.39062 48.9583 6.40365 49.0938 6.42969C49.2292 6.45052 49.3229 6.47396 49.375 6.5Z" fill="#191D22"/>
<path d="M35.7812 10.8672V10.6875C35.7812 10.0781 35.8698 9.51302 36.0469 8.99219C36.224 8.46615 36.4792 8.01042 36.8125 7.625C37.1458 7.23438 37.5495 6.93229 38.0234 6.71875C38.4974 6.5 39.0286 6.39062 39.6172 6.39062C40.2109 6.39062 40.7448 6.5 41.2188 6.71875C41.6979 6.93229 42.1042 7.23438 42.4375 7.625C42.776 8.01042 43.0339 8.46615 43.2109 8.99219C43.388 9.51302 43.4766 10.0781 43.4766 10.6875V10.8672C43.4766 11.4766 43.388 12.0417 43.2109 12.5625C43.0339 13.0833 42.776 13.5391 42.4375 13.9297C42.1042 14.3151 41.7005 14.6172 41.2266 14.8359C40.7578 15.0495 40.2266 15.1562 39.6328 15.1562C39.0391 15.1562 38.5052 15.0495 38.0312 14.8359C37.5573 14.6172 37.151 14.3151 36.8125 13.9297C36.4792 13.5391 36.224 13.0833 36.0469 12.5625C35.8698 12.0417 35.7812 11.4766 35.7812 10.8672ZM37.2266 10.6875V10.8672C37.2266 11.2891 37.276 11.6875 37.375 12.0625C37.474 12.4323 37.6224 12.7604 37.8203 13.0469C38.0234 13.3333 38.276 13.5599 38.5781 13.7266C38.8802 13.888 39.2318 13.9688 39.6328 13.9688C40.0286 13.9688 40.375 13.888 40.6719 13.7266C40.974 13.5599 41.224 13.3333 41.4219 13.0469C41.6198 12.7604 41.7682 12.4323 41.8672 12.0625C41.9714 11.6875 42.0234 11.2891 42.0234 10.8672V10.6875C42.0234 10.2708 41.9714 9.8776 41.8672 9.50781C41.7682 9.13281 41.6172 8.80208 41.4141 8.51562C41.2161 8.22396 40.9661 7.99479 40.6641 7.82812C40.3672 7.66146 40.0182 7.57812 39.6172 7.57812C39.2214 7.57812 38.8724 7.66146 38.5703 7.82812C38.2734 7.99479 38.0234 8.22396 37.8203 8.51562C37.6224 8.80208 37.474 9.13281 37.375 9.50781C37.276 9.8776 37.2266 10.2708 37.2266 10.6875Z" fill="#191D22"/>
<path d="M28.625 8.17188V18.25H27.1719V6.54688H28.5L28.625 8.17188ZM34.3203 10.7031V10.8672C34.3203 11.4818 34.2474 12.0521 34.1016 12.5781C33.9557 13.099 33.7422 13.5521 33.4609 13.9375C33.1849 14.3229 32.8438 14.6224 32.4375 14.8359C32.0312 15.0495 31.5651 15.1562 31.0391 15.1562C30.5026 15.1562 30.0286 15.0677 29.6172 14.8906C29.2057 14.7135 28.8568 14.4557 28.5703 14.1172C28.2839 13.7786 28.0547 13.3724 27.8828 12.8984C27.7161 12.4245 27.6016 11.8906 27.5391 11.2969V10.4219C27.6016 9.79688 27.7188 9.23698 27.8906 8.74219C28.0625 8.2474 28.2891 7.82552 28.5703 7.47656C28.8568 7.1224 29.2031 6.85417 29.6094 6.67188C30.0156 6.48438 30.4844 6.39062 31.0156 6.39062C31.5469 6.39062 32.0182 6.49479 32.4297 6.70312C32.8411 6.90625 33.1875 7.19792 33.4688 7.57812C33.75 7.95833 33.9609 8.41406 34.1016 8.94531C34.2474 9.47135 34.3203 10.0573 34.3203 10.7031ZM32.8672 10.8672V10.7031C32.8672 10.2812 32.8229 9.88542 32.7344 9.51562C32.6458 9.14062 32.5078 8.8125 32.3203 8.53125C32.138 8.24479 31.9036 8.02083 31.6172 7.85938C31.3307 7.69271 30.9896 7.60938 30.5938 7.60938C30.2292 7.60938 29.9115 7.67188 29.6406 7.79688C29.375 7.92188 29.1484 8.09115 28.9609 8.30469C28.7734 8.51302 28.6198 8.7526 28.5 9.02344C28.3854 9.28906 28.2995 9.5651 28.2422 9.85156V11.875C28.3464 12.2396 28.4922 12.5833 28.6797 12.9062C28.8672 13.224 29.1172 13.4818 29.4297 13.6797C29.7422 13.8724 30.1354 13.9688 30.6094 13.9688C31 13.9688 31.3359 13.888 31.6172 13.7266C31.9036 13.5599 32.138 13.3333 32.3203 13.0469C32.5078 12.7604 32.6458 12.4323 32.7344 12.0625C32.8229 11.6875 32.8672 11.2891 32.8672 10.8672Z" fill="#191D22"/>
<path d="M19.6406 8.17188V18.25H18.1875V6.54688H19.5156L19.6406 8.17188ZM25.3359 10.7031V10.8672C25.3359 11.4818 25.263 12.0521 25.1172 12.5781C24.9714 13.099 24.7578 13.5521 24.4766 13.9375C24.2005 14.3229 23.8594 14.6224 23.4531 14.8359C23.0469 15.0495 22.5807 15.1562 22.0547 15.1562C21.5182 15.1562 21.0443 15.0677 20.6328 14.8906C20.2214 14.7135 19.8724 14.4557 19.5859 14.1172C19.2995 13.7786 19.0703 13.3724 18.8984 12.8984C18.7318 12.4245 18.6172 11.8906 18.5547 11.2969V10.4219C18.6172 9.79688 18.7344 9.23698 18.9062 8.74219C19.0781 8.2474 19.3047 7.82552 19.5859 7.47656C19.8724 7.1224 20.2188 6.85417 20.625 6.67188C21.0312 6.48438 21.5 6.39062 22.0312 6.39062C22.5625 6.39062 23.0339 6.49479 23.4453 6.70312C23.8568 6.90625 24.2031 7.19792 24.4844 7.57812C24.7656 7.95833 24.9766 8.41406 25.1172 8.94531C25.263 9.47135 25.3359 10.0573 25.3359 10.7031ZM23.8828 10.8672V10.7031C23.8828 10.2812 23.8385 9.88542 23.75 9.51562C23.6615 9.14062 23.5234 8.8125 23.3359 8.53125C23.1536 8.24479 22.9193 8.02083 22.6328 7.85938C22.3464 7.69271 22.0052 7.60938 21.6094 7.60938C21.2448 7.60938 20.9271 7.67188 20.6562 7.79688C20.3906 7.92188 20.1641 8.09115 19.9766 8.30469C19.7891 8.51302 19.6354 8.7526 19.5156 9.02344C19.401 9.28906 19.3151 9.5651 19.2578 9.85156V11.875C19.362 12.2396 19.5078 12.5833 19.6953 12.9062C19.8828 13.224 20.1328 13.4818 20.4453 13.6797C20.7578 13.8724 21.151 13.9688 21.625 13.9688C22.0156 13.9688 22.3516 13.888 22.6328 13.7266C22.9193 13.5599 23.1536 13.3333 23.3359 13.0469C23.5234 12.7604 23.6615 12.4323 23.75 12.0625C23.8385 11.6875 23.8828 11.2891 23.8828 10.8672Z" fill="#191D22"/>
<path d="M14.5391 13.0469V6.54688H15.9922V15H14.6094L14.5391 13.0469ZM14.8125 11.2656L15.4141 11.25C15.4141 11.8125 15.3542 12.3333 15.2344 12.8125C15.1198 13.2865 14.9323 13.6979 14.6719 14.0469C14.4115 14.3958 14.0703 14.6693 13.6484 14.8672C13.2266 15.0599 12.7135 15.1562 12.1094 15.1562C11.6979 15.1562 11.3203 15.0964 10.9766 14.9766C10.638 14.8568 10.3464 14.6719 10.1016 14.4219C9.85677 14.1719 9.66667 13.8464 9.53125 13.4453C9.40104 13.0443 9.33594 12.5625 9.33594 12V6.54688H10.7812V12.0156C10.7812 12.3958 10.8229 12.7109 10.9062 12.9609C10.9948 13.2057 11.112 13.401 11.2578 13.5469C11.4089 13.6875 11.5755 13.7865 11.7578 13.8438C11.9453 13.901 12.138 13.9297 12.3359 13.9297C12.9505 13.9297 13.4375 13.8125 13.7969 13.5781C14.1562 13.3385 14.4141 13.0182 14.5703 12.6172C14.7318 12.2109 14.8125 11.7604 14.8125 11.2656Z" fill="#191D22"/>
<path d="M6.02344 12.7578C6.02344 12.5495 5.97656 12.3568 5.88281 12.1797C5.79427 11.9974 5.60938 11.8333 5.32812 11.6875C5.05208 11.5365 4.63542 11.4062 4.07812 11.2969C3.60938 11.1979 3.1849 11.0807 2.80469 10.9453C2.42969 10.8099 2.10938 10.6458 1.84375 10.4531C1.58333 10.2604 1.38281 10.0339 1.24219 9.77344C1.10156 9.51302 1.03125 9.20833 1.03125 8.85938C1.03125 8.52604 1.10417 8.21094 1.25 7.91406C1.40104 7.61719 1.61198 7.35417 1.88281 7.125C2.15885 6.89583 2.48958 6.71615 2.875 6.58594C3.26042 6.45573 3.6901 6.39062 4.16406 6.39062C4.84115 6.39062 5.41927 6.51042 5.89844 6.75C6.3776 6.98958 6.74479 7.3099 7 7.71094C7.25521 8.10677 7.38281 8.54688 7.38281 9.03125H5.9375C5.9375 8.79688 5.86719 8.57031 5.72656 8.35156C5.59115 8.1276 5.39062 7.94271 5.125 7.79688C4.86458 7.65104 4.54427 7.57812 4.16406 7.57812C3.76302 7.57812 3.4375 7.64062 3.1875 7.76562C2.94271 7.88542 2.76302 8.03906 2.64844 8.22656C2.53906 8.41406 2.48438 8.61198 2.48438 8.82031C2.48438 8.97656 2.51042 9.11719 2.5625 9.24219C2.61979 9.36198 2.71875 9.47396 2.85938 9.57812C3 9.67708 3.19792 9.77083 3.45312 9.85938C3.70833 9.94792 4.03385 10.0365 4.42969 10.125C5.1224 10.2812 5.69271 10.4688 6.14062 10.6875C6.58854 10.9062 6.92188 11.1745 7.14062 11.4922C7.35938 11.8099 7.46875 12.1953 7.46875 12.6484C7.46875 13.0182 7.39062 13.3568 7.23438 13.6641C7.08333 13.9714 6.86198 14.237 6.57031 14.4609C6.28385 14.6797 5.9401 14.8516 5.53906 14.9766C5.14323 15.0964 4.69792 15.1562 4.20312 15.1562C3.45833 15.1562 2.82812 15.0234 2.3125 14.7578C1.79688 14.4922 1.40625 14.1484 1.14062 13.7266C0.875 13.3047 0.742188 12.8594 0.742188 12.3906H2.19531C2.21615 12.7865 2.33073 13.1016 2.53906 13.3359C2.7474 13.5651 3.0026 13.7292 3.30469 13.8281C3.60677 13.9219 3.90625 13.9688 4.20312 13.9688C4.59896 13.9688 4.92969 13.9167 5.19531 13.8125C5.46615 13.7083 5.67188 13.5651 5.8125 13.3828C5.95312 13.2005 6.02344 12.9922 6.02344 12.7578Z" fill="#191D22"/>
</svg>
