<svg width="270" height="18" viewBox="0 0 270 18" fill="none" xmlns="http://www.w3.org/2000/svg">
<path d="M7.55859 12.1543V0.5H8.61328V14H7.62891L7.55859 12.1543ZM0.958008 9.3418V9.15723C0.958008 8.41895 1.04297 7.75391 1.21289 7.16211C1.38281 6.56445 1.62598 6.05469 1.94238 5.63281C2.26465 5.20508 2.65137 4.87988 3.10254 4.65723C3.55371 4.42871 4.06348 4.31445 4.63184 4.31445C5.18848 4.31445 5.68066 4.40527 6.1084 4.58691C6.53613 4.76855 6.90234 5.0293 7.20703 5.36914C7.51758 5.70898 7.7666 6.11328 7.9541 6.58203C8.14746 7.05078 8.28809 7.57227 8.37598 8.14648V10.4932C8.30566 11.0322 8.17676 11.5273 7.98926 11.9785C7.80176 12.4238 7.55273 12.8135 7.24219 13.1475C6.93164 13.4756 6.55664 13.7305 6.11719 13.9121C5.68359 14.0879 5.18262 14.1758 4.61426 14.1758C4.05176 14.1758 3.54492 14.0586 3.09375 13.8242C2.64258 13.5898 2.25879 13.2588 1.94238 12.8311C1.62598 12.3975 1.38281 11.8848 1.21289 11.293C1.04297 10.7012 0.958008 10.0508 0.958008 9.3418ZM2.0127 9.15723V9.3418C2.0127 9.89844 2.06836 10.4141 2.17969 10.8887C2.29102 11.3633 2.46094 11.7764 2.68945 12.1279C2.91797 12.4795 3.20801 12.7549 3.55957 12.9541C3.91113 13.1533 4.32715 13.2529 4.80762 13.2529C5.41113 13.2529 5.91797 13.1387 6.32812 12.9102C6.73828 12.6758 7.06641 12.3682 7.3125 11.9873C7.55859 11.6006 7.7373 11.1787 7.84863 10.7217V7.98828C7.77832 7.67773 7.67578 7.36133 7.54102 7.03906C7.40625 6.7168 7.22168 6.4209 6.9873 6.15137C6.75879 5.87598 6.46582 5.65625 6.1084 5.49219C5.75684 5.32227 5.3291 5.2373 4.8252 5.2373C4.33887 5.2373 3.91992 5.33691 3.56836 5.53613C3.2168 5.73535 2.92383 6.01367 2.68945 6.37109C2.46094 6.72266 2.29102 7.13574 2.17969 7.61035C2.06836 8.08496 2.0127 8.60059 2.0127 9.15723ZM17.165 12.2949V7.39062C17.165 6.93945 17.0713 6.5498 16.8838 6.22168C16.6963 5.89355 16.4209 5.6416 16.0576 5.46582C15.6943 5.29004 15.2461 5.20215 14.7129 5.20215C14.2207 5.20215 13.7812 5.29004 13.3945 5.46582C13.0137 5.63574 12.7119 5.86719 12.4893 6.16016C12.2725 6.44727 12.1641 6.7666 12.1641 7.11816L11.1094 7.10938C11.1094 6.75195 11.1973 6.40625 11.373 6.07227C11.5488 5.73828 11.7979 5.43945 12.1201 5.17578C12.4424 4.91211 12.8262 4.7041 13.2715 4.55176C13.7227 4.39355 14.2178 4.31445 14.7568 4.31445C15.4365 4.31445 16.0342 4.42871 16.5498 4.65723C17.0713 4.88574 17.4785 5.22852 17.7715 5.68555C18.0645 6.14258 18.2109 6.7168 18.2109 7.4082V12.0049C18.2109 12.333 18.2344 12.6729 18.2812 13.0244C18.334 13.376 18.4072 13.666 18.501 13.8945V14H17.3848C17.3145 13.7891 17.2588 13.5254 17.2178 13.209C17.1826 12.8867 17.165 12.582 17.165 12.2949ZM17.4111 8.46289L17.4287 9.27148H15.3633C14.8242 9.27148 14.3408 9.32129 13.9131 9.4209C13.4912 9.51465 13.1338 9.65527 12.8408 9.84277C12.5479 10.0244 12.3223 10.2441 12.1641 10.502C12.0117 10.7598 11.9355 11.0527 11.9355 11.3809C11.9355 11.7207 12.0205 12.0312 12.1904 12.3125C12.3662 12.5938 12.6123 12.8193 12.9287 12.9893C13.251 13.1533 13.6318 13.2354 14.0713 13.2354C14.6572 13.2354 15.1729 13.127 15.6182 12.9102C16.0693 12.6934 16.4414 12.4092 16.7344 12.0576C17.0273 11.7061 17.2236 11.3223 17.3232 10.9062L17.7803 11.5127C17.7041 11.8057 17.5635 12.1074 17.3584 12.418C17.1592 12.7227 16.8984 13.0098 16.5762 13.2793C16.2539 13.543 15.873 13.7598 15.4336 13.9297C15 14.0938 14.5078 14.1758 13.957 14.1758C13.3359 14.1758 12.7939 14.0586 12.3311 13.8242C11.874 13.5898 11.5166 13.2705 11.2588 12.8662C11.0068 12.4561 10.8809 11.9932 10.8809 11.4775C10.8809 11.0088 10.9805 10.5898 11.1797 10.2207C11.3789 9.8457 11.666 9.5293 12.041 9.27148C12.4219 9.00781 12.8789 8.80859 13.4121 8.67383C13.9512 8.5332 14.5547 8.46289 15.2227 8.46289H17.4111ZM24.627 4.49023V5.35156H19.8633V4.49023H24.627ZM21.6123 2.04688H22.6582V11.6885C22.6582 12.1279 22.7168 12.459 22.834 12.6816C22.9512 12.9043 23.1035 13.0537 23.291 13.1299C23.4785 13.2061 23.6807 13.2441 23.8975 13.2441C24.0557 13.2441 24.208 13.2354 24.3545 13.2178C24.501 13.1943 24.6328 13.1709 24.75 13.1475L24.7939 14.0352C24.665 14.0762 24.498 14.1084 24.293 14.1318C24.0879 14.1611 23.8828 14.1758 23.6777 14.1758C23.2734 14.1758 22.916 14.1025 22.6055 13.9561C22.2949 13.8037 22.0518 13.5459 21.876 13.1826C21.7002 12.8135 21.6123 12.3125 21.6123 11.6797V2.04688ZM32.6162 12.2949V7.39062C32.6162 6.93945 32.5225 6.5498 32.335 6.22168C32.1475 5.89355 31.8721 5.6416 31.5088 5.46582C31.1455 5.29004 30.6973 5.20215 30.1641 5.20215C29.6719 5.20215 29.2324 5.29004 28.8457 5.46582C28.4648 5.63574 28.1631 5.86719 27.9404 6.16016C27.7236 6.44727 27.6152 6.7666 27.6152 7.11816L26.5605 7.10938C26.5605 6.75195 26.6484 6.40625 26.8242 6.07227C27 5.73828 27.249 5.43945 27.5713 5.17578C27.8936 4.91211 28.2773 4.7041 28.7227 4.55176C29.1738 4.39355 29.6689 4.31445 30.208 4.31445C30.8877 4.31445 31.4854 4.42871 32.001 4.65723C32.5225 4.88574 32.9297 5.22852 33.2227 5.68555C33.5156 6.14258 33.6621 6.7168 33.6621 7.4082V12.0049C33.6621 12.333 33.6855 12.6729 33.7324 13.0244C33.7852 13.376 33.8584 13.666 33.9521 13.8945V14H32.8359C32.7656 13.7891 32.71 13.5254 32.6689 13.209C32.6338 12.8867 32.6162 12.582 32.6162 12.2949ZM32.8623 8.46289L32.8799 9.27148H30.8145C30.2754 9.27148 29.792 9.32129 29.3643 9.4209C28.9424 9.51465 28.585 9.65527 28.292 9.84277C27.999 10.0244 27.7734 10.2441 27.6152 10.502C27.4629 10.7598 27.3867 11.0527 27.3867 11.3809C27.3867 11.7207 27.4717 12.0312 27.6416 12.3125C27.8174 12.5938 28.0635 12.8193 28.3799 12.9893C28.7021 13.1533 29.083 13.2354 29.5225 13.2354C30.1084 13.2354 30.624 13.127 31.0693 12.9102C31.5205 12.6934 31.8926 12.4092 32.1855 12.0576C32.4785 11.7061 32.6748 11.3223 32.7744 10.9062L33.2314 11.5127C33.1553 11.8057 33.0146 12.1074 32.8096 12.418C32.6104 12.7227 32.3496 13.0098 32.0273 13.2793C31.7051 13.543 31.3242 13.7598 30.8848 13.9297C30.4512 14.0938 29.959 14.1758 29.4082 14.1758C28.7871 14.1758 28.2451 14.0586 27.7822 13.8242C27.3252 13.5898 26.9678 13.2705 26.71 12.8662C26.458 12.4561 26.332 11.9932 26.332 11.4775C26.332 11.0088 26.4316 10.5898 26.6309 10.2207C26.8301 9.8457 27.1172 9.5293 27.4922 9.27148C27.873 9.00781 28.3301 8.80859 28.8633 8.67383C29.4023 8.5332 30.0059 8.46289 30.6738 8.46289H32.8623ZM42.1787 11.5742C42.1787 11.3164 42.1143 11.0615 41.9854 10.8096C41.8564 10.5576 41.6074 10.3262 41.2383 10.1152C40.875 9.9043 40.3389 9.72559 39.6299 9.5791C39.1025 9.46191 38.6309 9.33008 38.2148 9.18359C37.8047 9.03711 37.459 8.86133 37.1777 8.65625C36.8965 8.45117 36.6826 8.20508 36.5361 7.91797C36.3896 7.63086 36.3164 7.29102 36.3164 6.89844C36.3164 6.54688 36.3926 6.21582 36.5449 5.90527C36.7031 5.58887 36.9258 5.31348 37.2129 5.0791C37.5059 4.83887 37.8574 4.65137 38.2676 4.5166C38.6836 4.38184 39.1494 4.31445 39.665 4.31445C40.3975 4.31445 41.0244 4.44043 41.5459 4.69238C42.0732 4.93848 42.4746 5.27539 42.75 5.70312C43.0312 6.13086 43.1719 6.61426 43.1719 7.15332H42.126C42.126 6.8252 42.0293 6.51465 41.8359 6.22168C41.6484 5.92871 41.3701 5.68848 41.001 5.50098C40.6377 5.31348 40.1924 5.21973 39.665 5.21973C39.1201 5.21973 38.6777 5.30176 38.3379 5.46582C37.998 5.62988 37.749 5.83789 37.5908 6.08984C37.4385 6.3418 37.3623 6.60254 37.3623 6.87207C37.3623 7.08301 37.3945 7.27637 37.459 7.45215C37.5293 7.62207 37.6523 7.78027 37.8281 7.92676C38.0098 8.07324 38.2676 8.21094 38.6016 8.33984C38.9355 8.46875 39.3691 8.59473 39.9023 8.71777C40.6699 8.8877 41.2969 9.0957 41.7832 9.3418C42.2754 9.58203 42.6387 9.88086 42.873 10.2383C43.1074 10.5898 43.2246 11.0176 43.2246 11.5215C43.2246 11.9141 43.1426 12.2744 42.9785 12.6025C42.8145 12.9248 42.5771 13.2031 42.2666 13.4375C41.9619 13.6719 41.5928 13.8535 41.1592 13.9824C40.7314 14.1113 40.251 14.1758 39.7178 14.1758C38.915 14.1758 38.2354 14.0439 37.6787 13.7803C37.1279 13.5107 36.709 13.1592 36.4219 12.7256C36.1406 12.2861 36 11.8203 36 11.3281H37.0459C37.0811 11.8203 37.2363 12.21 37.5117 12.4971C37.7871 12.7783 38.124 12.9775 38.5225 13.0947C38.9268 13.2119 39.3252 13.2705 39.7178 13.2705C40.2568 13.2705 40.708 13.1914 41.0713 13.0332C41.4346 12.875 41.71 12.667 41.8975 12.4092C42.085 12.1514 42.1787 11.873 42.1787 11.5742ZM49.2803 14.1758C48.6592 14.1758 48.0879 14.0615 47.5664 13.833C47.0508 13.6045 46.5996 13.2822 46.2129 12.8662C45.832 12.4502 45.5361 11.958 45.3252 11.3896C45.1201 10.8154 45.0176 10.1885 45.0176 9.50879V9.13086C45.0176 8.39844 45.126 7.73633 45.3428 7.14453C45.5596 6.55273 45.8584 6.0459 46.2393 5.62402C46.6201 5.20215 47.0537 4.87988 47.54 4.65723C48.0322 4.42871 48.5479 4.31445 49.0869 4.31445C49.6904 4.31445 50.2266 4.42285 50.6953 4.63965C51.1641 4.85059 51.5566 5.15234 51.873 5.54492C52.1953 5.93164 52.4385 6.3916 52.6025 6.9248C52.7666 7.45215 52.8486 8.03516 52.8486 8.67383V9.31543H45.6504V8.41895H51.8027V8.2959C51.791 7.7627 51.6826 7.26465 51.4775 6.80176C51.2783 6.33301 50.9795 5.95215 50.5811 5.65918C50.1826 5.36621 49.6846 5.21973 49.0869 5.21973C48.6416 5.21973 48.2314 5.31348 47.8564 5.50098C47.4873 5.68848 47.168 5.95801 46.8984 6.30957C46.6348 6.65527 46.4297 7.06836 46.2832 7.54883C46.1426 8.02344 46.0723 8.55078 46.0723 9.13086V9.50879C46.0723 10.0361 46.1484 10.5283 46.3008 10.9854C46.459 11.4365 46.6816 11.835 46.9688 12.1807C47.2617 12.5264 47.6074 12.7959 48.0059 12.9893C48.4043 13.1826 48.8438 13.2793 49.3242 13.2793C49.8867 13.2793 50.3848 13.1768 50.8184 12.9717C51.252 12.7607 51.6416 12.4297 51.9873 11.9785L52.6465 12.4883C52.4414 12.793 52.1836 13.0742 51.873 13.332C51.5684 13.5898 51.2021 13.7949 50.7744 13.9473C50.3467 14.0996 49.8486 14.1758 49.2803 14.1758ZM58.4297 13.2705C58.875 13.2705 59.291 13.1885 59.6777 13.0244C60.0703 12.8545 60.3926 12.6055 60.6445 12.2773C60.9023 11.9434 61.0488 11.5361 61.084 11.0557H62.0859C62.0566 11.6592 61.8721 12.1982 61.5322 12.6729C61.1982 13.1416 60.7588 13.5107 60.2139 13.7803C59.6748 14.0439 59.0801 14.1758 58.4297 14.1758C57.7676 14.1758 57.1816 14.0557 56.6719 13.8154C56.168 13.5752 55.7461 13.2412 55.4062 12.8135C55.0664 12.3799 54.8086 11.876 54.6328 11.3018C54.4629 10.7217 54.3779 10.0977 54.3779 9.42969V9.06055C54.3779 8.39258 54.4629 7.77148 54.6328 7.19727C54.8086 6.61719 55.0664 6.11328 55.4062 5.68555C55.7461 5.25195 56.168 4.91504 56.6719 4.6748C57.1758 4.43457 57.7588 4.31445 58.4209 4.31445C59.1006 4.31445 59.71 4.45215 60.249 4.72754C60.7939 5.00293 61.2275 5.39258 61.5498 5.89648C61.8779 6.40039 62.0566 6.99805 62.0859 7.68945H61.084C61.0547 7.17969 60.9199 6.74023 60.6797 6.37109C60.4395 6.00195 60.123 5.71777 59.7305 5.51855C59.3379 5.31934 58.9014 5.21973 58.4209 5.21973C57.8818 5.21973 57.4219 5.3252 57.041 5.53613C56.6602 5.74121 56.3496 6.02539 56.1094 6.38867C55.875 6.74609 55.7021 7.15625 55.5908 7.61914C55.4795 8.07617 55.4238 8.55664 55.4238 9.06055V9.42969C55.4238 9.93945 55.4766 10.4258 55.582 10.8887C55.6934 11.3457 55.8662 11.7529 56.1006 12.1104C56.3408 12.4678 56.6514 12.752 57.0322 12.9629C57.4189 13.168 57.8848 13.2705 58.4297 13.2705ZM70.2949 11.8027V4.49023H71.3496V14H70.3389L70.2949 11.8027ZM70.4883 10.0449L71.0332 10.0273C71.0332 10.625 70.9629 11.1758 70.8223 11.6797C70.6816 12.1836 70.4619 12.623 70.1631 12.998C69.8643 13.373 69.4775 13.6631 69.0029 13.8682C68.5283 14.0732 67.957 14.1758 67.2891 14.1758C66.8262 14.1758 66.4014 14.1113 66.0146 13.9824C65.6338 13.8477 65.3057 13.6367 65.0303 13.3496C64.7549 13.0625 64.541 12.6904 64.3887 12.2334C64.2422 11.7764 64.1689 11.2227 64.1689 10.5723V4.49023H65.2148V10.5898C65.2148 11.0996 65.2705 11.5244 65.3818 11.8643C65.499 12.2041 65.6572 12.4766 65.8564 12.6816C66.0615 12.8867 66.2959 13.0332 66.5596 13.1211C66.8232 13.209 67.1074 13.2529 67.4121 13.2529C68.1855 13.2529 68.7949 13.1035 69.2402 12.8047C69.6914 12.5059 70.0107 12.1133 70.1982 11.627C70.3916 11.1348 70.4883 10.6074 70.4883 10.0449ZM75.1465 6.06348V14H74.1006V4.49023H75.1201L75.1465 6.06348ZM78.5127 4.41992L78.4863 5.38672C78.3691 5.36914 78.2549 5.35449 78.1436 5.34277C78.0322 5.33105 77.9121 5.3252 77.7832 5.3252C77.3262 5.3252 76.9248 5.41016 76.5791 5.58008C76.2393 5.74414 75.9521 5.97559 75.7178 6.27441C75.4834 6.56738 75.3047 6.91309 75.1816 7.31152C75.0586 7.7041 74.9883 8.12598 74.9707 8.57715L74.584 8.72656C74.584 8.10547 74.6484 7.52832 74.7773 6.99512C74.9062 6.46191 75.1025 5.99609 75.3662 5.59766C75.6357 5.19336 75.9727 4.87988 76.377 4.65723C76.7871 4.42871 77.2676 4.31445 77.8184 4.31445C77.9531 4.31445 78.085 4.32617 78.2139 4.34961C78.3486 4.36719 78.4482 4.39062 78.5127 4.41992ZM81.334 4.49023V14H80.2881V4.49023H81.334ZM80.1035 1.73926C80.1035 1.54004 80.165 1.37305 80.2881 1.23828C80.417 1.09766 80.5928 1.02734 80.8154 1.02734C81.0381 1.02734 81.2139 1.09766 81.3428 1.23828C81.4775 1.37305 81.5449 1.54004 81.5449 1.73926C81.5449 1.93262 81.4775 2.09961 81.3428 2.24023C81.2139 2.375 81.0381 2.44238 80.8154 2.44238C80.5928 2.44238 80.417 2.375 80.2881 2.24023C80.165 2.09961 80.1035 1.93262 80.1035 1.73926ZM87.8027 4.49023V5.35156H83.0391V4.49023H87.8027ZM84.7881 2.04688H85.834V11.6885C85.834 12.1279 85.8926 12.459 86.0098 12.6816C86.127 12.9043 86.2793 13.0537 86.4668 13.1299C86.6543 13.2061 86.8564 13.2441 87.0732 13.2441C87.2314 13.2441 87.3838 13.2354 87.5303 13.2178C87.6768 13.1943 87.8086 13.1709 87.9258 13.1475L87.9697 14.0352C87.8408 14.0762 87.6738 14.1084 87.4688 14.1318C87.2637 14.1611 87.0586 14.1758 86.8535 14.1758C86.4492 14.1758 86.0918 14.1025 85.7812 13.9561C85.4707 13.8037 85.2275 13.5459 85.0518 13.1826C84.876 12.8135 84.7881 12.3125 84.7881 11.6797V2.04688ZM92.8301 13.0508L95.792 4.49023H96.9258L92.9004 15.5293C92.8184 15.7461 92.7129 15.9863 92.584 16.25C92.4609 16.5137 92.2969 16.7656 92.0918 17.0059C91.8926 17.252 91.6406 17.4512 91.3359 17.6035C91.0371 17.7617 90.6709 17.8408 90.2373 17.8408C90.126 17.8408 89.9824 17.8262 89.8066 17.7969C89.6367 17.7734 89.5137 17.75 89.4375 17.7266L89.4287 16.8389C89.4932 16.8564 89.5869 16.8711 89.71 16.8828C89.833 16.8945 89.918 16.9004 89.9648 16.9004C90.3457 16.9004 90.665 16.8359 90.9229 16.707C91.1865 16.5781 91.4062 16.3848 91.582 16.127C91.7578 15.875 91.9131 15.5586 92.0479 15.1777L92.8301 13.0508ZM90.0615 4.49023L93.0938 12.6553L93.375 13.7539L92.6104 14.1846L88.9189 4.49023H90.0615ZM112.588 9.49121C112.564 10.042 112.482 10.5928 112.342 11.1436C112.207 11.6943 112.002 12.2012 111.727 12.6641C111.457 13.1211 111.108 13.4873 110.681 13.7627C110.259 14.0381 109.752 14.1758 109.16 14.1758C108.785 14.1758 108.454 14.1084 108.167 13.9736C107.886 13.8389 107.651 13.6455 107.464 13.3936C107.276 13.1416 107.145 12.8369 107.068 12.4795C106.992 12.1162 106.972 11.7119 107.007 11.2666L107.446 6.25684H108.334L107.895 11.2666C107.854 11.7354 107.874 12.1133 107.956 12.4004C108.038 12.6816 108.155 12.8984 108.308 13.0508C108.46 13.1973 108.621 13.2969 108.791 13.3496C108.967 13.3965 109.125 13.4199 109.266 13.4199C109.658 13.4199 110.004 13.3203 110.303 13.1211C110.602 12.9219 110.856 12.6436 111.067 12.2861C111.278 11.9287 111.442 11.5127 111.56 11.0381C111.677 10.5635 111.747 10.0479 111.771 9.49121C111.812 8.60645 111.771 7.79199 111.647 7.04785C111.53 6.30371 111.322 5.6416 111.023 5.06152C110.725 4.47559 110.335 3.98047 109.854 3.57617C109.374 3.17188 108.797 2.86426 108.123 2.65332C107.455 2.44238 106.685 2.33691 105.812 2.33691C105.056 2.33691 104.347 2.45117 103.685 2.67969C103.028 2.90234 102.431 3.23047 101.892 3.66406C101.353 4.0918 100.884 4.61035 100.485 5.21973C100.093 5.8291 99.7793 6.52051 99.5449 7.29395C99.3164 8.06152 99.1816 8.89648 99.1406 9.79883C99.0996 10.6719 99.1523 11.4863 99.2988 12.2422C99.4453 12.998 99.6797 13.6807 100.002 14.29C100.324 14.8994 100.731 15.4209 101.224 15.8545C101.716 16.2881 102.287 16.6191 102.938 16.8477C103.594 17.0762 104.326 17.1904 105.135 17.1904C105.65 17.1904 106.172 17.126 106.699 16.9971C107.232 16.874 107.678 16.707 108.035 16.4961L108.299 17.1992C107.912 17.457 107.414 17.6504 106.805 17.7793C106.195 17.9141 105.627 17.9814 105.1 17.9814C104.209 17.9814 103.395 17.8584 102.656 17.6123C101.924 17.3721 101.273 17.0176 100.705 16.5488C100.143 16.0859 99.6738 15.5205 99.2988 14.8525C98.9238 14.1904 98.6484 13.4346 98.4727 12.585C98.2969 11.7354 98.2295 10.8066 98.2705 9.79883C98.3115 8.81445 98.458 7.89746 98.71 7.04785C98.9678 6.19824 99.3164 5.43652 99.7559 4.7627C100.195 4.08301 100.72 3.5 101.329 3.01367C101.938 2.52734 102.621 2.15527 103.377 1.89746C104.139 1.63965 104.962 1.51074 105.847 1.51074C106.784 1.51074 107.622 1.63086 108.36 1.87109C109.104 2.11133 109.749 2.45996 110.294 2.91699C110.845 3.36816 111.296 3.91895 111.647 4.56934C111.999 5.21973 112.254 5.95801 112.412 6.78418C112.57 7.61035 112.629 8.5127 112.588 9.49121ZM103.078 10.2471C103.031 10.6982 103.028 11.1113 103.069 11.4863C103.116 11.8613 103.204 12.1865 103.333 12.4619C103.462 12.7314 103.635 12.9424 103.852 13.0947C104.068 13.2412 104.326 13.3145 104.625 13.3145C104.848 13.3145 105.079 13.2734 105.319 13.1914C105.56 13.1035 105.791 12.96 106.014 12.7607C106.242 12.5615 106.456 12.2891 106.655 11.9434C106.854 11.5918 107.024 11.1494 107.165 10.6162L107.596 11.1523C107.455 11.6504 107.276 12.0869 107.06 12.4619C106.849 12.8369 106.605 13.1533 106.33 13.4111C106.061 13.6631 105.765 13.8535 105.442 13.9824C105.126 14.1113 104.789 14.1758 104.432 14.1758C104.021 14.1758 103.661 14.082 103.351 13.8945C103.04 13.707 102.785 13.4404 102.586 13.0947C102.393 12.749 102.258 12.3359 102.182 11.8555C102.105 11.375 102.094 10.8389 102.146 10.2471C102.199 9.64355 102.305 9.08691 102.463 8.57715C102.627 8.06152 102.826 7.60449 103.061 7.20605C103.301 6.80176 103.573 6.45898 103.878 6.17773C104.188 5.89648 104.52 5.68262 104.871 5.53613C105.223 5.38379 105.589 5.30762 105.97 5.30762C106.562 5.30762 107.027 5.4043 107.367 5.59766C107.707 5.78516 108.029 6.00488 108.334 6.25684L107.736 6.83691C107.561 6.6377 107.329 6.46777 107.042 6.32715C106.761 6.18652 106.424 6.11621 106.031 6.11621C105.674 6.11621 105.334 6.20117 105.012 6.37109C104.689 6.53516 104.394 6.79004 104.124 7.13574C103.86 7.47559 103.638 7.90332 103.456 8.41895C103.274 8.93457 103.148 9.54395 103.078 10.2471ZM121.28 4.49023H122.256V13.833C122.256 14.6592 122.098 15.3682 121.781 15.96C121.471 16.5518 121.028 17.0059 120.454 17.3223C119.886 17.6387 119.215 17.7969 118.441 17.7969C118.049 17.7969 117.645 17.7354 117.229 17.6123C116.818 17.4951 116.429 17.3135 116.06 17.0674C115.696 16.8271 115.386 16.5283 115.128 16.1709L115.717 15.5293C116.104 15.998 116.517 16.3408 116.956 16.5576C117.396 16.7803 117.87 16.8916 118.38 16.8916C118.983 16.8916 119.493 16.7715 119.909 16.5312C120.331 16.291 120.65 15.9453 120.867 15.4941C121.09 15.043 121.201 14.501 121.201 13.8682V6.58203L121.28 4.49023ZM114.601 9.3418V9.15723C114.601 8.41895 114.683 7.75391 114.847 7.16211C115.017 6.56445 115.26 6.05469 115.576 5.63281C115.893 5.20508 116.276 4.87988 116.728 4.65723C117.185 4.42871 117.7 4.31445 118.274 4.31445C118.825 4.31445 119.314 4.40527 119.742 4.58691C120.17 4.76855 120.539 5.0293 120.85 5.36914C121.16 5.70898 121.409 6.11328 121.597 6.58203C121.79 7.05078 121.931 7.57227 122.019 8.14648V10.4932C121.948 11.0322 121.819 11.5273 121.632 11.9785C121.444 12.4238 121.195 12.8135 120.885 13.1475C120.574 13.4756 120.199 13.7305 119.76 13.9121C119.326 14.0879 118.825 14.1758 118.257 14.1758C117.688 14.1758 117.179 14.0586 116.728 13.8242C116.276 13.5898 115.893 13.2588 115.576 12.8311C115.26 12.3975 115.017 11.8848 114.847 11.293C114.683 10.7012 114.601 10.0508 114.601 9.3418ZM115.655 9.15723V9.3418C115.655 9.89844 115.711 10.4141 115.822 10.8887C115.934 11.3633 116.104 11.7764 116.332 12.1279C116.561 12.4795 116.851 12.7549 117.202 12.9541C117.554 13.1533 117.967 13.2529 118.441 13.2529C119.045 13.2529 119.552 13.1387 119.962 12.9102C120.372 12.6758 120.697 12.3682 120.938 11.9873C121.178 11.6006 121.354 11.1787 121.465 10.7217V7.98828C121.4 7.67773 121.301 7.36133 121.166 7.03906C121.037 6.7168 120.855 6.4209 120.621 6.15137C120.393 5.87598 120.1 5.65625 119.742 5.49219C119.391 5.32227 118.963 5.2373 118.459 5.2373C117.979 5.2373 117.56 5.33691 117.202 5.53613C116.851 5.73535 116.561 6.01367 116.332 6.37109C116.104 6.72266 115.934 7.13574 115.822 7.61035C115.711 8.08496 115.655 8.60059 115.655 9.15723ZM126.053 6.06348V14H125.007V4.49023H126.026L126.053 6.06348ZM129.419 4.41992L129.393 5.38672C129.275 5.36914 129.161 5.35449 129.05 5.34277C128.938 5.33105 128.818 5.3252 128.689 5.3252C128.232 5.3252 127.831 5.41016 127.485 5.58008C127.146 5.74414 126.858 5.97559 126.624 6.27441C126.39 6.56738 126.211 6.91309 126.088 7.31152C125.965 7.7041 125.895 8.12598 125.877 8.57715L125.49 8.72656C125.49 8.10547 125.555 7.52832 125.684 6.99512C125.812 6.46191 126.009 5.99609 126.272 5.59766C126.542 5.19336 126.879 4.87988 127.283 4.65723C127.693 4.42871 128.174 4.31445 128.725 4.31445C128.859 4.31445 128.991 4.32617 129.12 4.34961C129.255 4.36719 129.354 4.39062 129.419 4.41992ZM130.315 9.39453V9.10449C130.315 8.41309 130.415 7.77441 130.614 7.18848C130.813 6.60254 131.098 6.0957 131.467 5.66797C131.842 5.24023 132.29 4.90918 132.812 4.6748C133.333 4.43457 133.913 4.31445 134.552 4.31445C135.196 4.31445 135.779 4.43457 136.301 4.6748C136.822 4.90918 137.271 5.24023 137.646 5.66797C138.021 6.0957 138.308 6.60254 138.507 7.18848C138.706 7.77441 138.806 8.41309 138.806 9.10449V9.39453C138.806 10.0859 138.706 10.7246 138.507 11.3105C138.308 11.8906 138.021 12.3945 137.646 12.8223C137.276 13.25 136.831 13.584 136.31 13.8242C135.788 14.0586 135.208 14.1758 134.569 14.1758C133.925 14.1758 133.342 14.0586 132.82 13.8242C132.299 13.584 131.851 13.25 131.476 12.8223C131.101 12.3945 130.813 11.8906 130.614 11.3105C130.415 10.7246 130.315 10.0859 130.315 9.39453ZM131.361 9.10449V9.39453C131.361 9.91602 131.432 10.4111 131.572 10.8799C131.713 11.3428 131.918 11.7559 132.188 12.1191C132.457 12.4766 132.791 12.7578 133.189 12.9629C133.588 13.168 134.048 13.2705 134.569 13.2705C135.085 13.2705 135.539 13.168 135.932 12.9629C136.33 12.7578 136.664 12.4766 136.934 12.1191C137.203 11.7559 137.405 11.3428 137.54 10.8799C137.681 10.4111 137.751 9.91602 137.751 9.39453V9.10449C137.751 8.58887 137.681 8.09961 137.54 7.63672C137.405 7.17383 137.2 6.76074 136.925 6.39746C136.655 6.03418 136.321 5.74707 135.923 5.53613C135.524 5.3252 135.067 5.21973 134.552 5.21973C134.036 5.21973 133.579 5.3252 133.181 5.53613C132.788 5.74707 132.454 6.03418 132.179 6.39746C131.909 6.76074 131.704 7.17383 131.563 7.63672C131.429 8.09961 131.361 8.58887 131.361 9.10449ZM147.076 11.8027V4.49023H148.131V14H147.12L147.076 11.8027ZM147.27 10.0449L147.814 10.0273C147.814 10.625 147.744 11.1758 147.604 11.6797C147.463 12.1836 147.243 12.623 146.944 12.998C146.646 13.373 146.259 13.6631 145.784 13.8682C145.31 14.0732 144.738 14.1758 144.07 14.1758C143.607 14.1758 143.183 14.1113 142.796 13.9824C142.415 13.8477 142.087 13.6367 141.812 13.3496C141.536 13.0625 141.322 12.6904 141.17 12.2334C141.023 11.7764 140.95 11.2227 140.95 10.5723V4.49023H141.996V10.5898C141.996 11.0996 142.052 11.5244 142.163 11.8643C142.28 12.2041 142.438 12.4766 142.638 12.6816C142.843 12.8867 143.077 13.0332 143.341 13.1211C143.604 13.209 143.889 13.2529 144.193 13.2529C144.967 13.2529 145.576 13.1035 146.021 12.8047C146.473 12.5059 146.792 12.1133 146.979 11.627C147.173 11.1348 147.27 10.6074 147.27 10.0449ZM151.928 6.52051V14H150.882V4.49023H151.884L151.928 6.52051ZM151.69 8.65625L151.225 8.39258C151.26 7.83008 151.374 7.30273 151.567 6.81055C151.761 6.31836 152.021 5.88477 152.35 5.50977C152.684 5.13477 153.073 4.8418 153.519 4.63086C153.97 4.41992 154.468 4.31445 155.013 4.31445C155.487 4.31445 155.912 4.37891 156.287 4.50781C156.662 4.63672 156.981 4.8418 157.245 5.12305C157.509 5.4043 157.708 5.76465 157.843 6.2041C157.983 6.64355 158.054 7.17969 158.054 7.8125V14H156.999V7.80371C156.999 7.14746 156.908 6.63477 156.727 6.26562C156.545 5.89062 156.287 5.62402 155.953 5.46582C155.619 5.30762 155.224 5.22852 154.767 5.22852C154.263 5.22852 153.82 5.33984 153.439 5.5625C153.064 5.7793 152.748 6.06348 152.49 6.41504C152.238 6.76074 152.045 7.13281 151.91 7.53125C151.775 7.92383 151.702 8.29883 151.69 8.65625ZM166.957 12.1543V0.5H168.012V14H167.027L166.957 12.1543ZM160.356 9.3418V9.15723C160.356 8.41895 160.441 7.75391 160.611 7.16211C160.781 6.56445 161.024 6.05469 161.341 5.63281C161.663 5.20508 162.05 4.87988 162.501 4.65723C162.952 4.42871 163.462 4.31445 164.03 4.31445C164.587 4.31445 165.079 4.40527 165.507 4.58691C165.935 4.76855 166.301 5.0293 166.605 5.36914C166.916 5.70898 167.165 6.11328 167.353 6.58203C167.546 7.05078 167.687 7.57227 167.774 8.14648V10.4932C167.704 11.0322 167.575 11.5273 167.388 11.9785C167.2 12.4238 166.951 12.8135 166.641 13.1475C166.33 13.4756 165.955 13.7305 165.516 13.9121C165.082 14.0879 164.581 14.1758 164.013 14.1758C163.45 14.1758 162.943 14.0586 162.492 13.8242C162.041 13.5898 161.657 13.2588 161.341 12.8311C161.024 12.3975 160.781 11.8848 160.611 11.293C160.441 10.7012 160.356 10.0508 160.356 9.3418ZM161.411 9.15723V9.3418C161.411 9.89844 161.467 10.4141 161.578 10.8887C161.689 11.3633 161.859 11.7764 162.088 12.1279C162.316 12.4795 162.606 12.7549 162.958 12.9541C163.31 13.1533 163.726 13.2529 164.206 13.2529C164.81 13.2529 165.316 13.1387 165.727 12.9102C166.137 12.6758 166.465 12.3682 166.711 11.9873C166.957 11.6006 167.136 11.1787 167.247 10.7217V7.98828C167.177 7.67773 167.074 7.36133 166.939 7.03906C166.805 6.7168 166.62 6.4209 166.386 6.15137C166.157 5.87598 165.864 5.65625 165.507 5.49219C165.155 5.32227 164.728 5.2373 164.224 5.2373C163.737 5.2373 163.318 5.33691 162.967 5.53613C162.615 5.73535 162.322 6.01367 162.088 6.37109C161.859 6.72266 161.689 7.13574 161.578 7.61035C161.467 8.08496 161.411 8.60059 161.411 9.15723ZM173.417 11.7764L175.711 4.49023H176.449L176.01 6.4502L173.61 14H172.872L173.417 11.7764ZM171.035 4.49023L173.048 11.8203L173.479 14H172.714L169.954 4.49023H171.035ZM179.306 11.7939L181.266 4.49023H182.347L179.587 14H178.831L179.306 11.7939ZM176.599 4.49023L178.857 11.7148L179.429 14H178.69L176.238 6.44141L175.825 4.49023H176.599ZM185.537 4.49023V14H184.491V4.49023H185.537ZM184.307 1.73926C184.307 1.54004 184.368 1.37305 184.491 1.23828C184.62 1.09766 184.796 1.02734 185.019 1.02734C185.241 1.02734 185.417 1.09766 185.546 1.23828C185.681 1.37305 185.748 1.54004 185.748 1.73926C185.748 1.93262 185.681 2.09961 185.546 2.24023C185.417 2.375 185.241 2.44238 185.019 2.44238C184.796 2.44238 184.62 2.375 184.491 2.24023C184.368 2.09961 184.307 1.93262 184.307 1.73926ZM194.59 12.1543V0.5H195.645V14H194.66L194.59 12.1543ZM187.989 9.3418V9.15723C187.989 8.41895 188.074 7.75391 188.244 7.16211C188.414 6.56445 188.657 6.05469 188.974 5.63281C189.296 5.20508 189.683 4.87988 190.134 4.65723C190.585 4.42871 191.095 4.31445 191.663 4.31445C192.22 4.31445 192.712 4.40527 193.14 4.58691C193.567 4.76855 193.934 5.0293 194.238 5.36914C194.549 5.70898 194.798 6.11328 194.985 6.58203C195.179 7.05078 195.319 7.57227 195.407 8.14648V10.4932C195.337 11.0322 195.208 11.5273 195.021 11.9785C194.833 12.4238 194.584 12.8135 194.273 13.1475C193.963 13.4756 193.588 13.7305 193.148 13.9121C192.715 14.0879 192.214 14.1758 191.646 14.1758C191.083 14.1758 190.576 14.0586 190.125 13.8242C189.674 13.5898 189.29 13.2588 188.974 12.8311C188.657 12.3975 188.414 11.8848 188.244 11.293C188.074 10.7012 187.989 10.0508 187.989 9.3418ZM189.044 9.15723V9.3418C189.044 9.89844 189.1 10.4141 189.211 10.8887C189.322 11.3633 189.492 11.7764 189.721 12.1279C189.949 12.4795 190.239 12.7549 190.591 12.9541C190.942 13.1533 191.358 13.2529 191.839 13.2529C192.442 13.2529 192.949 13.1387 193.359 12.9102C193.77 12.6758 194.098 12.3682 194.344 11.9873C194.59 11.6006 194.769 11.1787 194.88 10.7217V7.98828C194.81 7.67773 194.707 7.36133 194.572 7.03906C194.438 6.7168 194.253 6.4209 194.019 6.15137C193.79 5.87598 193.497 5.65625 193.14 5.49219C192.788 5.32227 192.36 5.2373 191.856 5.2373C191.37 5.2373 190.951 5.33691 190.6 5.53613C190.248 5.73535 189.955 6.01367 189.721 6.37109C189.492 6.72266 189.322 7.13574 189.211 7.61035C189.1 8.08496 189.044 8.60059 189.044 9.15723ZM204.671 4.49023H205.646V13.833C205.646 14.6592 205.488 15.3682 205.172 15.96C204.861 16.5518 204.419 17.0059 203.845 17.3223C203.276 17.6387 202.605 17.7969 201.832 17.7969C201.439 17.7969 201.035 17.7354 200.619 17.6123C200.209 17.4951 199.819 17.3135 199.45 17.0674C199.087 16.8271 198.776 16.5283 198.519 16.1709L199.107 15.5293C199.494 15.998 199.907 16.3408 200.347 16.5576C200.786 16.7803 201.261 16.8916 201.771 16.8916C202.374 16.8916 202.884 16.7715 203.3 16.5312C203.722 16.291 204.041 15.9453 204.258 15.4941C204.48 15.043 204.592 14.501 204.592 13.8682V6.58203L204.671 4.49023ZM197.991 9.3418V9.15723C197.991 8.41895 198.073 7.75391 198.237 7.16211C198.407 6.56445 198.65 6.05469 198.967 5.63281C199.283 5.20508 199.667 4.87988 200.118 4.65723C200.575 4.42871 201.091 4.31445 201.665 4.31445C202.216 4.31445 202.705 4.40527 203.133 4.58691C203.561 4.76855 203.93 5.0293 204.24 5.36914C204.551 5.70898 204.8 6.11328 204.987 6.58203C205.181 7.05078 205.321 7.57227 205.409 8.14648V10.4932C205.339 11.0322 205.21 11.5273 205.022 11.9785C204.835 12.4238 204.586 12.8135 204.275 13.1475C203.965 13.4756 203.59 13.7305 203.15 13.9121C202.717 14.0879 202.216 14.1758 201.647 14.1758C201.079 14.1758 200.569 14.0586 200.118 13.8242C199.667 13.5898 199.283 13.2588 198.967 12.8311C198.65 12.3975 198.407 11.8848 198.237 11.293C198.073 10.7012 197.991 10.0508 197.991 9.3418ZM199.046 9.15723V9.3418C199.046 9.89844 199.102 10.4141 199.213 10.8887C199.324 11.3633 199.494 11.7764 199.723 12.1279C199.951 12.4795 200.241 12.7549 200.593 12.9541C200.944 13.1533 201.357 13.2529 201.832 13.2529C202.436 13.2529 202.942 13.1387 203.353 12.9102C203.763 12.6758 204.088 12.3682 204.328 11.9873C204.568 11.6006 204.744 11.1787 204.855 10.7217V7.98828C204.791 7.67773 204.691 7.36133 204.557 7.03906C204.428 6.7168 204.246 6.4209 204.012 6.15137C203.783 5.87598 203.49 5.65625 203.133 5.49219C202.781 5.32227 202.354 5.2373 201.85 5.2373C201.369 5.2373 200.95 5.33691 200.593 5.53613C200.241 5.73535 199.951 6.01367 199.723 6.37109C199.494 6.72266 199.324 7.13574 199.213 7.61035C199.102 8.08496 199.046 8.60059 199.046 9.15723ZM212.071 14.1758C211.45 14.1758 210.879 14.0615 210.357 13.833C209.842 13.6045 209.391 13.2822 209.004 12.8662C208.623 12.4502 208.327 11.958 208.116 11.3896C207.911 10.8154 207.809 10.1885 207.809 9.50879V9.13086C207.809 8.39844 207.917 7.73633 208.134 7.14453C208.351 6.55273 208.649 6.0459 209.03 5.62402C209.411 5.20215 209.845 4.87988 210.331 4.65723C210.823 4.42871 211.339 4.31445 211.878 4.31445C212.481 4.31445 213.018 4.42285 213.486 4.63965C213.955 4.85059 214.348 5.15234 214.664 5.54492C214.986 5.93164 215.229 6.3916 215.394 6.9248C215.558 7.45215 215.64 8.03516 215.64 8.67383V9.31543H208.441V8.41895H214.594V8.2959C214.582 7.7627 214.474 7.26465 214.269 6.80176C214.069 6.33301 213.771 5.95215 213.372 5.65918C212.974 5.36621 212.476 5.21973 211.878 5.21973C211.433 5.21973 211.022 5.31348 210.647 5.50098C210.278 5.68848 209.959 5.95801 209.689 6.30957C209.426 6.65527 209.221 7.06836 209.074 7.54883C208.934 8.02344 208.863 8.55078 208.863 9.13086V9.50879C208.863 10.0361 208.939 10.5283 209.092 10.9854C209.25 11.4365 209.473 11.835 209.76 12.1807C210.053 12.5264 210.398 12.7959 210.797 12.9893C211.195 13.1826 211.635 13.2793 212.115 13.2793C212.678 13.2793 213.176 13.1768 213.609 12.9717C214.043 12.7607 214.433 12.4297 214.778 11.9785L215.438 12.4883C215.232 12.793 214.975 13.0742 214.664 13.332C214.359 13.5898 213.993 13.7949 213.565 13.9473C213.138 14.0996 212.64 14.1758 212.071 14.1758ZM221.309 4.49023V5.35156H216.545V4.49023H221.309ZM218.294 2.04688H219.34V11.6885C219.34 12.1279 219.398 12.459 219.516 12.6816C219.633 12.9043 219.785 13.0537 219.973 13.1299C220.16 13.2061 220.362 13.2441 220.579 13.2441C220.737 13.2441 220.89 13.2354 221.036 13.2178C221.183 13.1943 221.314 13.1709 221.432 13.1475L221.476 14.0352C221.347 14.0762 221.18 14.1084 220.975 14.1318C220.77 14.1611 220.564 14.1758 220.359 14.1758C219.955 14.1758 219.598 14.1025 219.287 13.9561C218.977 13.8037 218.733 13.5459 218.558 13.1826C218.382 12.8135 218.294 12.3125 218.294 11.6797V2.04688ZM229.21 11.5742C229.21 11.3164 229.146 11.0615 229.017 10.8096C228.888 10.5576 228.639 10.3262 228.27 10.1152C227.906 9.9043 227.37 9.72559 226.661 9.5791C226.134 9.46191 225.662 9.33008 225.246 9.18359C224.836 9.03711 224.49 8.86133 224.209 8.65625C223.928 8.45117 223.714 8.20508 223.567 7.91797C223.421 7.63086 223.348 7.29102 223.348 6.89844C223.348 6.54688 223.424 6.21582 223.576 5.90527C223.734 5.58887 223.957 5.31348 224.244 5.0791C224.537 4.83887 224.889 4.65137 225.299 4.5166C225.715 4.38184 226.181 4.31445 226.696 4.31445C227.429 4.31445 228.056 4.44043 228.577 4.69238C229.104 4.93848 229.506 5.27539 229.781 5.70312C230.062 6.13086 230.203 6.61426 230.203 7.15332H229.157C229.157 6.8252 229.061 6.51465 228.867 6.22168C228.68 5.92871 228.401 5.68848 228.032 5.50098C227.669 5.31348 227.224 5.21973 226.696 5.21973C226.151 5.21973 225.709 5.30176 225.369 5.46582C225.029 5.62988 224.78 5.83789 224.622 6.08984C224.47 6.3418 224.394 6.60254 224.394 6.87207C224.394 7.08301 224.426 7.27637 224.49 7.45215C224.561 7.62207 224.684 7.78027 224.859 7.92676C225.041 8.07324 225.299 8.21094 225.633 8.33984C225.967 8.46875 226.4 8.59473 226.934 8.71777C227.701 8.8877 228.328 9.0957 228.814 9.3418C229.307 9.58203 229.67 9.88086 229.904 10.2383C230.139 10.5898 230.256 11.0176 230.256 11.5215C230.256 11.9141 230.174 12.2744 230.01 12.6025C229.846 12.9248 229.608 13.2031 229.298 13.4375C228.993 13.6719 228.624 13.8535 228.19 13.9824C227.763 14.1113 227.282 14.1758 226.749 14.1758C225.946 14.1758 225.267 14.0439 224.71 13.7803C224.159 13.5107 223.74 13.1592 223.453 12.7256C223.172 12.2861 223.031 11.8203 223.031 11.3281H224.077C224.112 11.8203 224.268 12.21 224.543 12.4971C224.818 12.7783 225.155 12.9775 225.554 13.0947C225.958 13.2119 226.356 13.2705 226.749 13.2705C227.288 13.2705 227.739 13.1914 228.103 13.0332C228.466 12.875 228.741 12.667 228.929 12.4092C229.116 12.1514 229.21 11.873 229.21 11.5742ZM232.541 13.3584C232.541 13.1533 232.605 12.9805 232.734 12.8398C232.869 12.6934 233.051 12.6201 233.279 12.6201C233.514 12.6201 233.698 12.6904 233.833 12.8311C233.968 12.9717 234.035 13.1475 234.035 13.3584C234.035 13.5576 233.968 13.7275 233.833 13.8682C233.698 14.0088 233.514 14.0791 233.279 14.0791C233.051 14.0791 232.869 14.0088 232.734 13.8682C232.605 13.7275 232.541 13.5576 232.541 13.3584ZM240.451 13.2705C240.896 13.2705 241.312 13.1885 241.699 13.0244C242.092 12.8545 242.414 12.6055 242.666 12.2773C242.924 11.9434 243.07 11.5361 243.105 11.0557H244.107C244.078 11.6592 243.894 12.1982 243.554 12.6729C243.22 13.1416 242.78 13.5107 242.235 13.7803C241.696 14.0439 241.102 14.1758 240.451 14.1758C239.789 14.1758 239.203 14.0557 238.693 13.8154C238.189 13.5752 237.768 13.2412 237.428 12.8135C237.088 12.3799 236.83 11.876 236.654 11.3018C236.484 10.7217 236.399 10.0977 236.399 9.42969V9.06055C236.399 8.39258 236.484 7.77148 236.654 7.19727C236.83 6.61719 237.088 6.11328 237.428 5.68555C237.768 5.25195 238.189 4.91504 238.693 4.6748C239.197 4.43457 239.78 4.31445 240.442 4.31445C241.122 4.31445 241.731 4.45215 242.271 4.72754C242.815 5.00293 243.249 5.39258 243.571 5.89648C243.899 6.40039 244.078 6.99805 244.107 7.68945H243.105C243.076 7.17969 242.941 6.74023 242.701 6.37109C242.461 6.00195 242.145 5.71777 241.752 5.51855C241.359 5.31934 240.923 5.21973 240.442 5.21973C239.903 5.21973 239.443 5.3252 239.062 5.53613C238.682 5.74121 238.371 6.02539 238.131 6.38867C237.896 6.74609 237.724 7.15625 237.612 7.61914C237.501 8.07617 237.445 8.55664 237.445 9.06055V9.42969C237.445 9.93945 237.498 10.4258 237.604 10.8887C237.715 11.3457 237.888 11.7529 238.122 12.1104C238.362 12.4678 238.673 12.752 239.054 12.9629C239.44 13.168 239.906 13.2705 240.451 13.2705ZM245.646 9.39453V9.10449C245.646 8.41309 245.745 7.77441 245.944 7.18848C246.144 6.60254 246.428 6.0957 246.797 5.66797C247.172 5.24023 247.62 4.90918 248.142 4.6748C248.663 4.43457 249.243 4.31445 249.882 4.31445C250.526 4.31445 251.109 4.43457 251.631 4.6748C252.152 4.90918 252.601 5.24023 252.976 5.66797C253.351 6.0957 253.638 6.60254 253.837 7.18848C254.036 7.77441 254.136 8.41309 254.136 9.10449V9.39453C254.136 10.0859 254.036 10.7246 253.837 11.3105C253.638 11.8906 253.351 12.3945 252.976 12.8223C252.606 13.25 252.161 13.584 251.64 13.8242C251.118 14.0586 250.538 14.1758 249.899 14.1758C249.255 14.1758 248.672 14.0586 248.15 13.8242C247.629 13.584 247.181 13.25 246.806 12.8223C246.431 12.3945 246.144 11.8906 245.944 11.3105C245.745 10.7246 245.646 10.0859 245.646 9.39453ZM246.691 9.10449V9.39453C246.691 9.91602 246.762 10.4111 246.902 10.8799C247.043 11.3428 247.248 11.7559 247.518 12.1191C247.787 12.4766 248.121 12.7578 248.52 12.9629C248.918 13.168 249.378 13.2705 249.899 13.2705C250.415 13.2705 250.869 13.168 251.262 12.9629C251.66 12.7578 251.994 12.4766 252.264 12.1191C252.533 11.7559 252.735 11.3428 252.87 10.8799C253.011 10.4111 253.081 9.91602 253.081 9.39453V9.10449C253.081 8.58887 253.011 8.09961 252.87 7.63672C252.735 7.17383 252.53 6.76074 252.255 6.39746C251.985 6.03418 251.651 5.74707 251.253 5.53613C250.854 5.3252 250.397 5.21973 249.882 5.21973C249.366 5.21973 248.909 5.3252 248.511 5.53613C248.118 5.74707 247.784 6.03418 247.509 6.39746C247.239 6.76074 247.034 7.17383 246.894 7.63672C246.759 8.09961 246.691 8.58887 246.691 9.10449ZM257.309 6.45898V14H256.254V4.49023H257.265L257.309 6.45898ZM257.115 8.65625L256.605 8.39258C256.641 7.83008 256.746 7.30273 256.922 6.81055C257.104 6.31836 257.355 5.88477 257.678 5.50977C258 5.13477 258.387 4.8418 258.838 4.63086C259.289 4.41992 259.802 4.31445 260.376 4.31445C260.839 4.31445 261.258 4.37891 261.633 4.50781C262.014 4.63086 262.336 4.82715 262.6 5.09668C262.869 5.36035 263.077 5.70605 263.224 6.13379C263.37 6.56152 263.443 7.07422 263.443 7.67188V14H262.397V7.70703C262.397 7.07422 262.298 6.5791 262.099 6.22168C261.905 5.86426 261.633 5.60938 261.281 5.45703C260.936 5.30469 260.534 5.22852 260.077 5.22852C259.538 5.22852 259.081 5.33984 258.706 5.5625C258.337 5.7793 258.035 6.06348 257.801 6.41504C257.572 6.76074 257.402 7.13281 257.291 7.53125C257.18 7.92383 257.121 8.29883 257.115 8.65625ZM263.435 7.83008L262.731 7.84766C262.761 7.38477 262.866 6.94238 263.048 6.52051C263.235 6.09863 263.49 5.72363 263.812 5.39551C264.135 5.06152 264.519 4.79785 264.964 4.60449C265.415 4.41113 265.922 4.31445 266.484 4.31445C266.977 4.31445 267.416 4.38184 267.803 4.5166C268.189 4.64551 268.515 4.85352 268.778 5.14062C269.048 5.42188 269.253 5.78223 269.394 6.22168C269.534 6.66113 269.604 7.18848 269.604 7.80371V14H268.55V7.79492C268.55 7.12109 268.45 6.59961 268.251 6.23047C268.058 5.85547 267.788 5.59473 267.442 5.44824C267.097 5.30176 266.692 5.22852 266.229 5.22852C265.772 5.23438 265.371 5.31934 265.025 5.4834C264.68 5.6416 264.39 5.85254 264.155 6.11621C263.927 6.37402 263.751 6.65234 263.628 6.95117C263.511 7.25 263.446 7.54297 263.435 7.83008Z" fill="black"/>
</svg>
