<svg width="179" height="18" viewBox="0 0 179 18" fill="none" xmlns="http://www.w3.org/2000/svg">
<path d="M5.05371 14.1758C4.43262 14.1758 3.86133 14.0615 3.33984 13.833C2.82422 13.6045 2.37305 13.2822 1.98633 12.8662C1.60547 12.4502 1.30957 11.958 1.09863 11.3896C0.893555 10.8154 0.791016 10.1885 0.791016 9.50879V9.13086C0.791016 8.39844 0.899414 7.73633 1.11621 7.14453C1.33301 6.55273 1.63184 6.0459 2.0127 5.62402C2.39355 5.20215 2.82715 4.87988 3.31348 4.65723C3.80566 4.42871 4.32129 4.31445 4.86035 4.31445C5.46387 4.31445 6 4.42285 6.46875 4.63965C6.9375 4.85059 7.33008 5.15234 7.64648 5.54492C7.96875 5.93164 8.21191 6.3916 8.37598 6.9248C8.54004 7.45215 8.62207 8.03516 8.62207 8.67383V9.31543H1.42383V8.41895H7.57617V8.2959C7.56445 7.7627 7.45605 7.26465 7.25098 6.80176C7.05176 6.33301 6.75293 5.95215 6.35449 5.65918C5.95605 5.36621 5.45801 5.21973 4.86035 5.21973C4.41504 5.21973 4.00488 5.31348 3.62988 5.50098C3.26074 5.68848 2.94141 5.95801 2.67188 6.30957C2.4082 6.65527 2.20312 7.06836 2.05664 7.54883C1.91602 8.02344 1.8457 8.55078 1.8457 9.13086V9.50879C1.8457 10.0361 1.92188 10.5283 2.07422 10.9854C2.23242 11.4365 2.45508 11.835 2.74219 12.1807C3.03516 12.5264 3.38086 12.7959 3.7793 12.9893C4.17773 13.1826 4.61719 13.2793 5.09766 13.2793C5.66016 13.2793 6.1582 13.1768 6.5918 12.9717C7.02539 12.7607 7.41504 12.4297 7.76074 11.9785L8.41992 12.4883C8.21484 12.793 7.95703 13.0742 7.64648 13.332C7.3418 13.5898 6.97559 13.7949 6.54785 13.9473C6.12012 14.0996 5.62207 14.1758 5.05371 14.1758ZM16.875 12.1543V0.5H17.9297V14H16.9453L16.875 12.1543ZM10.2744 9.3418V9.15723C10.2744 8.41895 10.3594 7.75391 10.5293 7.16211C10.6992 6.56445 10.9424 6.05469 11.2588 5.63281C11.5811 5.20508 11.9678 4.87988 12.4189 4.65723C12.8701 4.42871 13.3799 4.31445 13.9482 4.31445C14.5049 4.31445 14.9971 4.40527 15.4248 4.58691C15.8525 4.76855 16.2188 5.0293 16.5234 5.36914C16.834 5.70898 17.083 6.11328 17.2705 6.58203C17.4639 7.05078 17.6045 7.57227 17.6924 8.14648V10.4932C17.6221 11.0322 17.4932 11.5273 17.3057 11.9785C17.1182 12.4238 16.8691 12.8135 16.5586 13.1475C16.248 13.4756 15.873 13.7305 15.4336 13.9121C15 14.0879 14.499 14.1758 13.9307 14.1758C13.3682 14.1758 12.8613 14.0586 12.4102 13.8242C11.959 13.5898 11.5752 13.2588 11.2588 12.8311C10.9424 12.3975 10.6992 11.8848 10.5293 11.293C10.3594 10.7012 10.2744 10.0508 10.2744 9.3418ZM11.3291 9.15723V9.3418C11.3291 9.89844 11.3848 10.4141 11.4961 10.8887C11.6074 11.3633 11.7773 11.7764 12.0059 12.1279C12.2344 12.4795 12.5244 12.7549 12.876 12.9541C13.2275 13.1533 13.6436 13.2529 14.124 13.2529C14.7275 13.2529 15.2344 13.1387 15.6445 12.9102C16.0547 12.6758 16.3828 12.3682 16.6289 11.9873C16.875 11.6006 17.0537 11.1787 17.165 10.7217V7.98828C17.0947 7.67773 16.9922 7.36133 16.8574 7.03906C16.7227 6.7168 16.5381 6.4209 16.3037 6.15137C16.0752 5.87598 15.7822 5.65625 15.4248 5.49219C15.0732 5.32227 14.6455 5.2373 14.1416 5.2373C13.6553 5.2373 13.2363 5.33691 12.8848 5.53613C12.5332 5.73535 12.2402 6.01367 12.0059 6.37109C11.7773 6.72266 11.6074 7.13574 11.4961 7.61035C11.3848 8.08496 11.3291 8.60059 11.3291 9.15723ZM21.7354 6.31836V17.6562H20.6807V4.49023H21.665L21.7354 6.31836ZM28.3447 9.15723V9.3418C28.3447 10.0508 28.2627 10.7012 28.0986 11.293C27.9346 11.8848 27.6973 12.3975 27.3867 12.8311C27.082 13.2588 26.7041 13.5898 26.2529 13.8242C25.8018 14.0586 25.2891 14.1758 24.7148 14.1758C24.1465 14.1758 23.6396 14.0879 23.1943 13.9121C22.749 13.7363 22.3652 13.4873 22.043 13.165C21.7266 12.8369 21.4717 12.4561 21.2783 12.0225C21.0908 11.583 20.959 11.1025 20.8828 10.5811V8.14648C20.9707 7.57227 21.1143 7.05078 21.3135 6.58203C21.5127 6.11328 21.7676 5.70898 22.0781 5.36914C22.3945 5.0293 22.7695 4.76855 23.2031 4.58691C23.6367 4.40527 24.1318 4.31445 24.6885 4.31445C25.2686 4.31445 25.7842 4.42871 26.2354 4.65723C26.6924 4.87988 27.0762 5.20508 27.3867 5.63281C27.7031 6.05469 27.9404 6.56445 28.0986 7.16211C28.2627 7.75391 28.3447 8.41895 28.3447 9.15723ZM27.29 9.3418V9.15723C27.29 8.60059 27.2314 8.08496 27.1143 7.61035C27.0029 7.13574 26.8301 6.72266 26.5957 6.37109C26.3672 6.01367 26.0742 5.73535 25.7168 5.53613C25.3652 5.33691 24.9463 5.2373 24.46 5.2373C23.9561 5.2373 23.5254 5.32227 23.168 5.49219C22.8164 5.65625 22.5234 5.87598 22.2891 6.15137C22.0547 6.4209 21.8701 6.7168 21.7354 7.03906C21.6006 7.36133 21.501 7.67773 21.4365 7.98828V10.792C21.5479 11.2373 21.7266 11.6504 21.9727 12.0312C22.2188 12.4062 22.5469 12.708 22.957 12.9365C23.373 13.1592 23.8799 13.2705 24.4775 13.2705C24.958 13.2705 25.374 13.1709 25.7256 12.9717C26.0771 12.7725 26.3672 12.4941 26.5957 12.1367C26.8301 11.7793 27.0029 11.3633 27.1143 10.8887C27.2314 10.4141 27.29 9.89844 27.29 9.3418ZM36.3779 11.5742C36.3779 11.3164 36.3135 11.0615 36.1846 10.8096C36.0557 10.5576 35.8066 10.3262 35.4375 10.1152C35.0742 9.9043 34.5381 9.72559 33.8291 9.5791C33.3018 9.46191 32.8301 9.33008 32.4141 9.18359C32.0039 9.03711 31.6582 8.86133 31.377 8.65625C31.0957 8.45117 30.8818 8.20508 30.7354 7.91797C30.5889 7.63086 30.5156 7.29102 30.5156 6.89844C30.5156 6.54688 30.5918 6.21582 30.7441 5.90527C30.9023 5.58887 31.125 5.31348 31.4121 5.0791C31.7051 4.83887 32.0566 4.65137 32.4668 4.5166C32.8828 4.38184 33.3486 4.31445 33.8643 4.31445C34.5967 4.31445 35.2236 4.44043 35.7451 4.69238C36.2725 4.93848 36.6738 5.27539 36.9492 5.70312C37.2305 6.13086 37.3711 6.61426 37.3711 7.15332H36.3252C36.3252 6.8252 36.2285 6.51465 36.0352 6.22168C35.8477 5.92871 35.5693 5.68848 35.2002 5.50098C34.8369 5.31348 34.3916 5.21973 33.8643 5.21973C33.3193 5.21973 32.877 5.30176 32.5371 5.46582C32.1973 5.62988 31.9482 5.83789 31.79 6.08984C31.6377 6.3418 31.5615 6.60254 31.5615 6.87207C31.5615 7.08301 31.5938 7.27637 31.6582 7.45215C31.7285 7.62207 31.8516 7.78027 32.0273 7.92676C32.209 8.07324 32.4668 8.21094 32.8008 8.33984C33.1348 8.46875 33.5684 8.59473 34.1016 8.71777C34.8691 8.8877 35.4961 9.0957 35.9824 9.3418C36.4746 9.58203 36.8379 9.88086 37.0723 10.2383C37.3066 10.5898 37.4238 11.0176 37.4238 11.5215C37.4238 11.9141 37.3418 12.2744 37.1777 12.6025C37.0137 12.9248 36.7764 13.2031 36.4658 13.4375C36.1611 13.6719 35.792 13.8535 35.3584 13.9824C34.9307 14.1113 34.4502 14.1758 33.917 14.1758C33.1143 14.1758 32.4346 14.0439 31.8779 13.7803C31.3271 13.5107 30.9082 13.1592 30.6211 12.7256C30.3398 12.2861 30.1992 11.8203 30.1992 11.3281H31.2451C31.2803 11.8203 31.4355 12.21 31.7109 12.4971C31.9863 12.7783 32.3232 12.9775 32.7217 13.0947C33.126 13.2119 33.5244 13.2705 33.917 13.2705C34.4561 13.2705 34.9072 13.1914 35.2705 13.0332C35.6338 12.875 35.9092 12.667 36.0967 12.4092C36.2842 12.1514 36.3779 11.873 36.3779 11.5742ZM53.8242 9.49121C53.8008 10.042 53.7188 10.5928 53.5781 11.1436C53.4434 11.6943 53.2383 12.2012 52.9629 12.6641C52.6934 13.1211 52.3447 13.4873 51.917 13.7627C51.4951 14.0381 50.9883 14.1758 50.3965 14.1758C50.0215 14.1758 49.6904 14.1084 49.4033 13.9736C49.1221 13.8389 48.8877 13.6455 48.7002 13.3936C48.5127 13.1416 48.3809 12.8369 48.3047 12.4795C48.2285 12.1162 48.208 11.7119 48.2432 11.2666L48.6826 6.25684H49.5703L49.1309 11.2666C49.0898 11.7354 49.1104 12.1133 49.1924 12.4004C49.2744 12.6816 49.3916 12.8984 49.5439 13.0508C49.6963 13.1973 49.8574 13.2969 50.0273 13.3496C50.2031 13.3965 50.3613 13.4199 50.502 13.4199C50.8945 13.4199 51.2402 13.3203 51.5391 13.1211C51.8379 12.9219 52.0928 12.6436 52.3037 12.2861C52.5146 11.9287 52.6787 11.5127 52.7959 11.0381C52.9131 10.5635 52.9834 10.0479 53.0068 9.49121C53.0479 8.60645 53.0068 7.79199 52.8838 7.04785C52.7666 6.30371 52.5586 5.6416 52.2598 5.06152C51.9609 4.47559 51.5713 3.98047 51.0908 3.57617C50.6104 3.17188 50.0332 2.86426 49.3594 2.65332C48.6914 2.44238 47.9209 2.33691 47.0479 2.33691C46.292 2.33691 45.583 2.45117 44.9209 2.67969C44.2646 2.90234 43.667 3.23047 43.1279 3.66406C42.5889 4.0918 42.1201 4.61035 41.7217 5.21973C41.3291 5.8291 41.0156 6.52051 40.7812 7.29395C40.5527 8.06152 40.418 8.89648 40.377 9.79883C40.3359 10.6719 40.3887 11.4863 40.5352 12.2422C40.6816 12.998 40.916 13.6807 41.2383 14.29C41.5605 14.8994 41.9678 15.4209 42.46 15.8545C42.9521 16.2881 43.5234 16.6191 44.1738 16.8477C44.8301 17.0762 45.5625 17.1904 46.3711 17.1904C46.8867 17.1904 47.4082 17.126 47.9355 16.9971C48.4688 16.874 48.9141 16.707 49.2715 16.4961L49.5352 17.1992C49.1484 17.457 48.6504 17.6504 48.041 17.7793C47.4316 17.9141 46.8633 17.9814 46.3359 17.9814C45.4453 17.9814 44.6309 17.8584 43.8926 17.6123C43.1602 17.3721 42.5098 17.0176 41.9414 16.5488C41.3789 16.0859 40.9102 15.5205 40.5352 14.8525C40.1602 14.1904 39.8848 13.4346 39.709 12.585C39.5332 11.7354 39.4658 10.8066 39.5068 9.79883C39.5479 8.81445 39.6943 7.89746 39.9463 7.04785C40.2041 6.19824 40.5527 5.43652 40.9922 4.7627C41.4316 4.08301 41.9561 3.5 42.5654 3.01367C43.1748 2.52734 43.8574 2.15527 44.6133 1.89746C45.375 1.63965 46.1982 1.51074 47.083 1.51074C48.0205 1.51074 48.8584 1.63086 49.5967 1.87109C50.3408 2.11133 50.9854 2.45996 51.5303 2.91699C52.0811 3.36816 52.5322 3.91895 52.8838 4.56934C53.2354 5.21973 53.4902 5.95801 53.6484 6.78418C53.8066 7.61035 53.8652 8.5127 53.8242 9.49121ZM44.3145 10.2471C44.2676 10.6982 44.2646 11.1113 44.3057 11.4863C44.3525 11.8613 44.4404 12.1865 44.5693 12.4619C44.6982 12.7314 44.8711 12.9424 45.0879 13.0947C45.3047 13.2412 45.5625 13.3145 45.8613 13.3145C46.084 13.3145 46.3154 13.2734 46.5557 13.1914C46.7959 13.1035 47.0273 12.96 47.25 12.7607C47.4785 12.5615 47.6924 12.2891 47.8916 11.9434C48.0908 11.5918 48.2607 11.1494 48.4014 10.6162L48.832 11.1523C48.6914 11.6504 48.5127 12.0869 48.2959 12.4619C48.085 12.8369 47.8418 13.1533 47.5664 13.4111C47.2969 13.6631 47.001 13.8535 46.6787 13.9824C46.3623 14.1113 46.0254 14.1758 45.668 14.1758C45.2578 14.1758 44.8975 14.082 44.5869 13.8945C44.2764 13.707 44.0215 13.4404 43.8223 13.0947C43.6289 12.749 43.4941 12.3359 43.418 11.8555C43.3418 11.375 43.3301 10.8389 43.3828 10.2471C43.4355 9.64355 43.541 9.08691 43.6992 8.57715C43.8633 8.06152 44.0625 7.60449 44.2969 7.20605C44.5371 6.80176 44.8096 6.45898 45.1143 6.17773C45.4248 5.89648 45.7559 5.68262 46.1074 5.53613C46.459 5.38379 46.8252 5.30762 47.2061 5.30762C47.7979 5.30762 48.2637 5.4043 48.6035 5.59766C48.9434 5.78516 49.2656 6.00488 49.5703 6.25684L48.9727 6.83691C48.7969 6.6377 48.5654 6.46777 48.2783 6.32715C47.9971 6.18652 47.6602 6.11621 47.2676 6.11621C46.9102 6.11621 46.5703 6.20117 46.248 6.37109C45.9258 6.53516 45.6299 6.79004 45.3604 7.13574C45.0967 7.47559 44.874 7.90332 44.6924 8.41895C44.5107 8.93457 44.3848 9.54395 44.3145 10.2471ZM59.9326 14.1758C59.3115 14.1758 58.7402 14.0615 58.2188 13.833C57.7031 13.6045 57.252 13.2822 56.8652 12.8662C56.4844 12.4502 56.1885 11.958 55.9775 11.3896C55.7725 10.8154 55.6699 10.1885 55.6699 9.50879V9.13086C55.6699 8.39844 55.7783 7.73633 55.9951 7.14453C56.2119 6.55273 56.5107 6.0459 56.8916 5.62402C57.2725 5.20215 57.7061 4.87988 58.1924 4.65723C58.6846 4.42871 59.2002 4.31445 59.7393 4.31445C60.3428 4.31445 60.8789 4.42285 61.3477 4.63965C61.8164 4.85059 62.209 5.15234 62.5254 5.54492C62.8477 5.93164 63.0908 6.3916 63.2549 6.9248C63.4189 7.45215 63.501 8.03516 63.501 8.67383V9.31543H56.3027V8.41895H62.4551V8.2959C62.4434 7.7627 62.335 7.26465 62.1299 6.80176C61.9307 6.33301 61.6318 5.95215 61.2334 5.65918C60.835 5.36621 60.3369 5.21973 59.7393 5.21973C59.2939 5.21973 58.8838 5.31348 58.5088 5.50098C58.1396 5.68848 57.8203 5.95801 57.5508 6.30957C57.2871 6.65527 57.082 7.06836 56.9355 7.54883C56.7949 8.02344 56.7246 8.55078 56.7246 9.13086V9.50879C56.7246 10.0361 56.8008 10.5283 56.9531 10.9854C57.1113 11.4365 57.334 11.835 57.6211 12.1807C57.9141 12.5264 58.2598 12.7959 58.6582 12.9893C59.0566 13.1826 59.4961 13.2793 59.9766 13.2793C60.5391 13.2793 61.0371 13.1768 61.4707 12.9717C61.9043 12.7607 62.2939 12.4297 62.6396 11.9785L63.2988 12.4883C63.0938 12.793 62.8359 13.0742 62.5254 13.332C62.2207 13.5898 61.8545 13.7949 61.4268 13.9473C60.999 14.0996 60.501 14.1758 59.9326 14.1758ZM71.7539 12.1543V0.5H72.8086V14H71.8242L71.7539 12.1543ZM65.1533 9.3418V9.15723C65.1533 8.41895 65.2383 7.75391 65.4082 7.16211C65.5781 6.56445 65.8213 6.05469 66.1377 5.63281C66.46 5.20508 66.8467 4.87988 67.2979 4.65723C67.749 4.42871 68.2588 4.31445 68.8271 4.31445C69.3838 4.31445 69.876 4.40527 70.3037 4.58691C70.7314 4.76855 71.0977 5.0293 71.4023 5.36914C71.7129 5.70898 71.9619 6.11328 72.1494 6.58203C72.3428 7.05078 72.4834 7.57227 72.5713 8.14648V10.4932C72.501 11.0322 72.3721 11.5273 72.1846 11.9785C71.9971 12.4238 71.748 12.8135 71.4375 13.1475C71.127 13.4756 70.752 13.7305 70.3125 13.9121C69.8789 14.0879 69.3779 14.1758 68.8096 14.1758C68.2471 14.1758 67.7402 14.0586 67.2891 13.8242C66.8379 13.5898 66.4541 13.2588 66.1377 12.8311C65.8213 12.3975 65.5781 11.8848 65.4082 11.293C65.2383 10.7012 65.1533 10.0508 65.1533 9.3418ZM66.208 9.15723V9.3418C66.208 9.89844 66.2637 10.4141 66.375 10.8887C66.4863 11.3633 66.6562 11.7764 66.8848 12.1279C67.1133 12.4795 67.4033 12.7549 67.7549 12.9541C68.1064 13.1533 68.5225 13.2529 69.0029 13.2529C69.6064 13.2529 70.1133 13.1387 70.5234 12.9102C70.9336 12.6758 71.2617 12.3682 71.5078 11.9873C71.7539 11.6006 71.9326 11.1787 72.0439 10.7217V7.98828C71.9736 7.67773 71.8711 7.36133 71.7363 7.03906C71.6016 6.7168 71.417 6.4209 71.1826 6.15137C70.9541 5.87598 70.6611 5.65625 70.3037 5.49219C69.9521 5.32227 69.5244 5.2373 69.0205 5.2373C68.5342 5.2373 68.1152 5.33691 67.7637 5.53613C67.4121 5.73535 67.1191 6.01367 66.8848 6.37109C66.6562 6.72266 66.4863 7.13574 66.375 7.61035C66.2637 8.08496 66.208 8.60059 66.208 9.15723ZM76.6143 6.31836V17.6562H75.5596V4.49023H76.5439L76.6143 6.31836ZM83.2236 9.15723V9.3418C83.2236 10.0508 83.1416 10.7012 82.9775 11.293C82.8135 11.8848 82.5762 12.3975 82.2656 12.8311C81.9609 13.2588 81.583 13.5898 81.1318 13.8242C80.6807 14.0586 80.168 14.1758 79.5938 14.1758C79.0254 14.1758 78.5186 14.0879 78.0732 13.9121C77.6279 13.7363 77.2441 13.4873 76.9219 13.165C76.6055 12.8369 76.3506 12.4561 76.1572 12.0225C75.9697 11.583 75.8379 11.1025 75.7617 10.5811V8.14648C75.8496 7.57227 75.9932 7.05078 76.1924 6.58203C76.3916 6.11328 76.6465 5.70898 76.957 5.36914C77.2734 5.0293 77.6484 4.76855 78.082 4.58691C78.5156 4.40527 79.0107 4.31445 79.5674 4.31445C80.1475 4.31445 80.6631 4.42871 81.1143 4.65723C81.5713 4.87988 81.9551 5.20508 82.2656 5.63281C82.582 6.05469 82.8193 6.56445 82.9775 7.16211C83.1416 7.75391 83.2236 8.41895 83.2236 9.15723ZM82.1689 9.3418V9.15723C82.1689 8.60059 82.1104 8.08496 81.9932 7.61035C81.8818 7.13574 81.709 6.72266 81.4746 6.37109C81.2461 6.01367 80.9531 5.73535 80.5957 5.53613C80.2441 5.33691 79.8252 5.2373 79.3389 5.2373C78.835 5.2373 78.4043 5.32227 78.0469 5.49219C77.6953 5.65625 77.4023 5.87598 77.168 6.15137C76.9336 6.4209 76.749 6.7168 76.6143 7.03906C76.4795 7.36133 76.3799 7.67773 76.3154 7.98828V10.792C76.4268 11.2373 76.6055 11.6504 76.8516 12.0312C77.0977 12.4062 77.4258 12.708 77.8359 12.9365C78.252 13.1592 78.7588 13.2705 79.3564 13.2705C79.8369 13.2705 80.2529 13.1709 80.6045 12.9717C80.9561 12.7725 81.2461 12.4941 81.4746 12.1367C81.709 11.7793 81.8818 11.3633 81.9932 10.8887C82.1104 10.4141 82.1689 9.89844 82.1689 9.3418ZM91.2568 11.5742C91.2568 11.3164 91.1924 11.0615 91.0635 10.8096C90.9346 10.5576 90.6855 10.3262 90.3164 10.1152C89.9531 9.9043 89.417 9.72559 88.708 9.5791C88.1807 9.46191 87.709 9.33008 87.293 9.18359C86.8828 9.03711 86.5371 8.86133 86.2559 8.65625C85.9746 8.45117 85.7607 8.20508 85.6143 7.91797C85.4678 7.63086 85.3945 7.29102 85.3945 6.89844C85.3945 6.54688 85.4707 6.21582 85.623 5.90527C85.7812 5.58887 86.0039 5.31348 86.291 5.0791C86.584 4.83887 86.9355 4.65137 87.3457 4.5166C87.7617 4.38184 88.2275 4.31445 88.7432 4.31445C89.4756 4.31445 90.1025 4.44043 90.624 4.69238C91.1514 4.93848 91.5527 5.27539 91.8281 5.70312C92.1094 6.13086 92.25 6.61426 92.25 7.15332H91.2041C91.2041 6.8252 91.1074 6.51465 90.9141 6.22168C90.7266 5.92871 90.4482 5.68848 90.0791 5.50098C89.7158 5.31348 89.2705 5.21973 88.7432 5.21973C88.1982 5.21973 87.7559 5.30176 87.416 5.46582C87.0762 5.62988 86.8271 5.83789 86.6689 6.08984C86.5166 6.3418 86.4404 6.60254 86.4404 6.87207C86.4404 7.08301 86.4727 7.27637 86.5371 7.45215C86.6074 7.62207 86.7305 7.78027 86.9062 7.92676C87.0879 8.07324 87.3457 8.21094 87.6797 8.33984C88.0137 8.46875 88.4473 8.59473 88.9805 8.71777C89.748 8.8877 90.375 9.0957 90.8613 9.3418C91.3535 9.58203 91.7168 9.88086 91.9512 10.2383C92.1855 10.5898 92.3027 11.0176 92.3027 11.5215C92.3027 11.9141 92.2207 12.2744 92.0566 12.6025C91.8926 12.9248 91.6553 13.2031 91.3447 13.4375C91.04 13.6719 90.6709 13.8535 90.2373 13.9824C89.8096 14.1113 89.3291 14.1758 88.7959 14.1758C87.9932 14.1758 87.3135 14.0439 86.7568 13.7803C86.2061 13.5107 85.7871 13.1592 85.5 12.7256C85.2188 12.2861 85.0781 11.8203 85.0781 11.3281H86.124C86.1592 11.8203 86.3145 12.21 86.5898 12.4971C86.8652 12.7783 87.2021 12.9775 87.6006 13.0947C88.0049 13.2119 88.4033 13.2705 88.7959 13.2705C89.335 13.2705 89.7861 13.1914 90.1494 13.0332C90.5127 12.875 90.7881 12.667 90.9756 12.4092C91.1631 12.1514 91.2568 11.873 91.2568 11.5742ZM94.5879 13.3584C94.5879 13.1533 94.6523 12.9805 94.7812 12.8398C94.916 12.6934 95.0977 12.6201 95.3262 12.6201C95.5605 12.6201 95.7451 12.6904 95.8799 12.8311C96.0146 12.9717 96.082 13.1475 96.082 13.3584C96.082 13.5576 96.0146 13.7275 95.8799 13.8682C95.7451 14.0088 95.5605 14.0791 95.3262 14.0791C95.0977 14.0791 94.916 14.0088 94.7812 13.8682C94.6523 13.7275 94.5879 13.5576 94.5879 13.3584ZM102.665 14.1758C102.044 14.1758 101.473 14.0615 100.951 13.833C100.436 13.6045 99.9844 13.2822 99.5977 12.8662C99.2168 12.4502 98.9209 11.958 98.71 11.3896C98.5049 10.8154 98.4023 10.1885 98.4023 9.50879V9.13086C98.4023 8.39844 98.5107 7.73633 98.7275 7.14453C98.9443 6.55273 99.2432 6.0459 99.624 5.62402C100.005 5.20215 100.438 4.87988 100.925 4.65723C101.417 4.42871 101.933 4.31445 102.472 4.31445C103.075 4.31445 103.611 4.42285 104.08 4.63965C104.549 4.85059 104.941 5.15234 105.258 5.54492C105.58 5.93164 105.823 6.3916 105.987 6.9248C106.151 7.45215 106.233 8.03516 106.233 8.67383V9.31543H99.0352V8.41895H105.188V8.2959C105.176 7.7627 105.067 7.26465 104.862 6.80176C104.663 6.33301 104.364 5.95215 103.966 5.65918C103.567 5.36621 103.069 5.21973 102.472 5.21973C102.026 5.21973 101.616 5.31348 101.241 5.50098C100.872 5.68848 100.553 5.95801 100.283 6.30957C100.02 6.65527 99.8145 7.06836 99.668 7.54883C99.5273 8.02344 99.457 8.55078 99.457 9.13086V9.50879C99.457 10.0361 99.5332 10.5283 99.6855 10.9854C99.8438 11.4365 100.066 11.835 100.354 12.1807C100.646 12.5264 100.992 12.7959 101.391 12.9893C101.789 13.1826 102.229 13.2793 102.709 13.2793C103.271 13.2793 103.77 13.1768 104.203 12.9717C104.637 12.7607 105.026 12.4297 105.372 11.9785L106.031 12.4883C105.826 12.793 105.568 13.0742 105.258 13.332C104.953 13.5898 104.587 13.7949 104.159 13.9473C103.731 14.0996 103.233 14.1758 102.665 14.1758ZM114.398 11.8027V4.49023H115.453V14H114.442L114.398 11.8027ZM114.592 10.0449L115.137 10.0273C115.137 10.625 115.066 11.1758 114.926 11.6797C114.785 12.1836 114.565 12.623 114.267 12.998C113.968 13.373 113.581 13.6631 113.106 13.8682C112.632 14.0732 112.061 14.1758 111.393 14.1758C110.93 14.1758 110.505 14.1113 110.118 13.9824C109.737 13.8477 109.409 13.6367 109.134 13.3496C108.858 13.0625 108.645 12.6904 108.492 12.2334C108.346 11.7764 108.272 11.2227 108.272 10.5723V4.49023H109.318V10.5898C109.318 11.0996 109.374 11.5244 109.485 11.8643C109.603 12.2041 109.761 12.4766 109.96 12.6816C110.165 12.8867 110.399 13.0332 110.663 13.1211C110.927 13.209 111.211 13.2529 111.516 13.2529C112.289 13.2529 112.898 13.1035 113.344 12.8047C113.795 12.5059 114.114 12.1133 114.302 11.627C114.495 11.1348 114.592 10.6074 114.592 10.0449ZM119.25 6.06348V14H118.204V4.49023H119.224L119.25 6.06348ZM122.616 4.41992L122.59 5.38672C122.473 5.36914 122.358 5.35449 122.247 5.34277C122.136 5.33105 122.016 5.3252 121.887 5.3252C121.43 5.3252 121.028 5.41016 120.683 5.58008C120.343 5.74414 120.056 5.97559 119.821 6.27441C119.587 6.56738 119.408 6.91309 119.285 7.31152C119.162 7.7041 119.092 8.12598 119.074 8.57715L118.688 8.72656C118.688 8.10547 118.752 7.52832 118.881 6.99512C119.01 6.46191 119.206 5.99609 119.47 5.59766C119.739 5.19336 120.076 4.87988 120.48 4.65723C120.891 4.42871 121.371 4.31445 121.922 4.31445C122.057 4.31445 122.188 4.32617 122.317 4.34961C122.452 4.36719 122.552 4.39062 122.616 4.41992ZM123.513 9.39453V9.10449C123.513 8.41309 123.612 7.77441 123.812 7.18848C124.011 6.60254 124.295 6.0957 124.664 5.66797C125.039 5.24023 125.487 4.90918 126.009 4.6748C126.53 4.43457 127.11 4.31445 127.749 4.31445C128.394 4.31445 128.977 4.43457 129.498 4.6748C130.02 4.90918 130.468 5.24023 130.843 5.66797C131.218 6.0957 131.505 6.60254 131.704 7.18848C131.903 7.77441 132.003 8.41309 132.003 9.10449V9.39453C132.003 10.0859 131.903 10.7246 131.704 11.3105C131.505 11.8906 131.218 12.3945 130.843 12.8223C130.474 13.25 130.028 13.584 129.507 13.8242C128.985 14.0586 128.405 14.1758 127.767 14.1758C127.122 14.1758 126.539 14.0586 126.018 13.8242C125.496 13.584 125.048 13.25 124.673 12.8223C124.298 12.3945 124.011 11.8906 123.812 11.3105C123.612 10.7246 123.513 10.0859 123.513 9.39453ZM124.559 9.10449V9.39453C124.559 9.91602 124.629 10.4111 124.77 10.8799C124.91 11.3428 125.115 11.7559 125.385 12.1191C125.654 12.4766 125.988 12.7578 126.387 12.9629C126.785 13.168 127.245 13.2705 127.767 13.2705C128.282 13.2705 128.736 13.168 129.129 12.9629C129.527 12.7578 129.861 12.4766 130.131 12.1191C130.4 11.7559 130.603 11.3428 130.737 10.8799C130.878 10.4111 130.948 9.91602 130.948 9.39453V9.10449C130.948 8.58887 130.878 8.09961 130.737 7.63672C130.603 7.17383 130.397 6.76074 130.122 6.39746C129.853 6.03418 129.519 5.74707 129.12 5.53613C128.722 5.3252 128.265 5.21973 127.749 5.21973C127.233 5.21973 126.776 5.3252 126.378 5.53613C125.985 5.74707 125.651 6.03418 125.376 6.39746C125.106 6.76074 124.901 7.17383 124.761 7.63672C124.626 8.09961 124.559 8.58887 124.559 9.10449ZM135.22 6.31836V17.6562H134.165V4.49023H135.149L135.22 6.31836ZM141.829 9.15723V9.3418C141.829 10.0508 141.747 10.7012 141.583 11.293C141.419 11.8848 141.182 12.3975 140.871 12.8311C140.566 13.2588 140.188 13.5898 139.737 13.8242C139.286 14.0586 138.773 14.1758 138.199 14.1758C137.631 14.1758 137.124 14.0879 136.679 13.9121C136.233 13.7363 135.85 13.4873 135.527 13.165C135.211 12.8369 134.956 12.4561 134.763 12.0225C134.575 11.583 134.443 11.1025 134.367 10.5811V8.14648C134.455 7.57227 134.599 7.05078 134.798 6.58203C134.997 6.11328 135.252 5.70898 135.562 5.36914C135.879 5.0293 136.254 4.76855 136.688 4.58691C137.121 4.40527 137.616 4.31445 138.173 4.31445C138.753 4.31445 139.269 4.42871 139.72 4.65723C140.177 4.87988 140.561 5.20508 140.871 5.63281C141.188 6.05469 141.425 6.56445 141.583 7.16211C141.747 7.75391 141.829 8.41895 141.829 9.15723ZM140.774 9.3418V9.15723C140.774 8.60059 140.716 8.08496 140.599 7.61035C140.487 7.13574 140.314 6.72266 140.08 6.37109C139.852 6.01367 139.559 5.73535 139.201 5.53613C138.85 5.33691 138.431 5.2373 137.944 5.2373C137.44 5.2373 137.01 5.32227 136.652 5.49219C136.301 5.65625 136.008 5.87598 135.773 6.15137C135.539 6.4209 135.354 6.7168 135.22 7.03906C135.085 7.36133 134.985 7.67773 134.921 7.98828V10.792C135.032 11.2373 135.211 11.6504 135.457 12.0312C135.703 12.4062 136.031 12.708 136.441 12.9365C136.857 13.1592 137.364 13.2705 137.962 13.2705C138.442 13.2705 138.858 13.1709 139.21 12.9717C139.562 12.7725 139.852 12.4941 140.08 12.1367C140.314 11.7793 140.487 11.3633 140.599 10.8887C140.716 10.4141 140.774 9.89844 140.774 9.3418ZM149.95 12.2949V7.39062C149.95 6.93945 149.856 6.5498 149.669 6.22168C149.481 5.89355 149.206 5.6416 148.843 5.46582C148.479 5.29004 148.031 5.20215 147.498 5.20215C147.006 5.20215 146.566 5.29004 146.18 5.46582C145.799 5.63574 145.497 5.86719 145.274 6.16016C145.058 6.44727 144.949 6.7666 144.949 7.11816L143.895 7.10938C143.895 6.75195 143.982 6.40625 144.158 6.07227C144.334 5.73828 144.583 5.43945 144.905 5.17578C145.228 4.91211 145.611 4.7041 146.057 4.55176C146.508 4.39355 147.003 4.31445 147.542 4.31445C148.222 4.31445 148.819 4.42871 149.335 4.65723C149.856 4.88574 150.264 5.22852 150.557 5.68555C150.85 6.14258 150.996 6.7168 150.996 7.4082V12.0049C150.996 12.333 151.02 12.6729 151.066 13.0244C151.119 13.376 151.192 13.666 151.286 13.8945V14H150.17C150.1 13.7891 150.044 13.5254 150.003 13.209C149.968 12.8867 149.95 12.582 149.95 12.2949ZM150.196 8.46289L150.214 9.27148H148.148C147.609 9.27148 147.126 9.32129 146.698 9.4209C146.276 9.51465 145.919 9.65527 145.626 9.84277C145.333 10.0244 145.107 10.2441 144.949 10.502C144.797 10.7598 144.721 11.0527 144.721 11.3809C144.721 11.7207 144.806 12.0312 144.976 12.3125C145.151 12.5938 145.397 12.8193 145.714 12.9893C146.036 13.1533 146.417 13.2354 146.856 13.2354C147.442 13.2354 147.958 13.127 148.403 12.9102C148.854 12.6934 149.227 12.4092 149.52 12.0576C149.812 11.7061 150.009 11.3223 150.108 10.9062L150.565 11.5127C150.489 11.8057 150.349 12.1074 150.144 12.418C149.944 12.7227 149.684 13.0098 149.361 13.2793C149.039 13.543 148.658 13.7598 148.219 13.9297C147.785 14.0938 147.293 14.1758 146.742 14.1758C146.121 14.1758 145.579 14.0586 145.116 13.8242C144.659 13.5898 144.302 13.2705 144.044 12.8662C143.792 12.4561 143.666 11.9932 143.666 11.4775C143.666 11.0088 143.766 10.5898 143.965 10.2207C144.164 9.8457 144.451 9.5293 144.826 9.27148C145.207 9.00781 145.664 8.80859 146.197 8.67383C146.736 8.5332 147.34 8.46289 148.008 8.46289H150.196ZM153.721 13.3584C153.721 13.1533 153.785 12.9805 153.914 12.8398C154.049 12.6934 154.23 12.6201 154.459 12.6201C154.693 12.6201 154.878 12.6904 155.013 12.8311C155.147 12.9717 155.215 13.1475 155.215 13.3584C155.215 13.5576 155.147 13.7275 155.013 13.8682C154.878 14.0088 154.693 14.0791 154.459 14.0791C154.23 14.0791 154.049 14.0088 153.914 13.8682C153.785 13.7275 153.721 13.5576 153.721 13.3584ZM161.798 14.1758C161.177 14.1758 160.605 14.0615 160.084 13.833C159.568 13.6045 159.117 13.2822 158.73 12.8662C158.35 12.4502 158.054 11.958 157.843 11.3896C157.638 10.8154 157.535 10.1885 157.535 9.50879V9.13086C157.535 8.39844 157.644 7.73633 157.86 7.14453C158.077 6.55273 158.376 6.0459 158.757 5.62402C159.138 5.20215 159.571 4.87988 160.058 4.65723C160.55 4.42871 161.065 4.31445 161.604 4.31445C162.208 4.31445 162.744 4.42285 163.213 4.63965C163.682 4.85059 164.074 5.15234 164.391 5.54492C164.713 5.93164 164.956 6.3916 165.12 6.9248C165.284 7.45215 165.366 8.03516 165.366 8.67383V9.31543H158.168V8.41895H164.32V8.2959C164.309 7.7627 164.2 7.26465 163.995 6.80176C163.796 6.33301 163.497 5.95215 163.099 5.65918C162.7 5.36621 162.202 5.21973 161.604 5.21973C161.159 5.21973 160.749 5.31348 160.374 5.50098C160.005 5.68848 159.686 5.95801 159.416 6.30957C159.152 6.65527 158.947 7.06836 158.801 7.54883C158.66 8.02344 158.59 8.55078 158.59 9.13086V9.50879C158.59 10.0361 158.666 10.5283 158.818 10.9854C158.977 11.4365 159.199 11.835 159.486 12.1807C159.779 12.5264 160.125 12.7959 160.523 12.9893C160.922 13.1826 161.361 13.2793 161.842 13.2793C162.404 13.2793 162.902 13.1768 163.336 12.9717C163.77 12.7607 164.159 12.4297 164.505 11.9785L165.164 12.4883C164.959 12.793 164.701 13.0742 164.391 13.332C164.086 13.5898 163.72 13.7949 163.292 13.9473C162.864 14.0996 162.366 14.1758 161.798 14.1758ZM173.531 11.8027V4.49023H174.586V14H173.575L173.531 11.8027ZM173.725 10.0449L174.27 10.0273C174.27 10.625 174.199 11.1758 174.059 11.6797C173.918 12.1836 173.698 12.623 173.399 12.998C173.101 13.373 172.714 13.6631 172.239 13.8682C171.765 14.0732 171.193 14.1758 170.525 14.1758C170.062 14.1758 169.638 14.1113 169.251 13.9824C168.87 13.8477 168.542 13.6367 168.267 13.3496C167.991 13.0625 167.777 12.6904 167.625 12.2334C167.479 11.7764 167.405 11.2227 167.405 10.5723V4.49023H168.451V10.5898C168.451 11.0996 168.507 11.5244 168.618 11.8643C168.735 12.2041 168.894 12.4766 169.093 12.6816C169.298 12.8867 169.532 13.0332 169.796 13.1211C170.06 13.209 170.344 13.2529 170.648 13.2529C171.422 13.2529 172.031 13.1035 172.477 12.8047C172.928 12.5059 173.247 12.1133 173.435 11.627C173.628 11.1348 173.725 10.6074 173.725 10.0449ZM177.24 13.3584C177.24 13.1533 177.305 12.9805 177.434 12.8398C177.568 12.6934 177.75 12.6201 177.979 12.6201C178.213 12.6201 178.397 12.6904 178.532 12.8311C178.667 12.9717 178.734 13.1475 178.734 13.3584C178.734 13.5576 178.667 13.7275 178.532 13.8682C178.397 14.0088 178.213 14.0791 177.979 14.0791C177.75 14.0791 177.568 14.0088 177.434 13.8682C177.305 13.7275 177.24 13.5576 177.24 13.3584Z" fill="black"/>
</svg>
