<svg width="234" height="18" viewBox="0 0 234 18" fill="none" xmlns="http://www.w3.org/2000/svg">
<path d="M7.0752 11.5742C7.0752 11.3164 7.01074 11.0615 6.88184 10.8096C6.75293 10.5576 6.50391 10.3262 6.13477 10.1152C5.77148 9.9043 5.23535 9.72559 4.52637 9.5791C3.99902 9.46191 3.52734 9.33008 3.11133 9.18359C2.70117 9.03711 2.35547 8.86133 2.07422 8.65625C1.79297 8.45117 1.5791 8.20508 1.43262 7.91797C1.28613 7.63086 1.21289 7.29102 1.21289 6.89844C1.21289 6.54688 1.28906 6.21582 1.44141 5.90527C1.59961 5.58887 1.82227 5.31348 2.10938 5.0791C2.40234 4.83887 2.75391 4.65137 3.16406 4.5166C3.58008 4.38184 4.0459 4.31445 4.56152 4.31445C5.29395 4.31445 5.9209 4.44043 6.44238 4.69238C6.96973 4.93848 7.37109 5.27539 7.64648 5.70312C7.92773 6.13086 8.06836 6.61426 8.06836 7.15332H7.02246C7.02246 6.8252 6.92578 6.51465 6.73242 6.22168C6.54492 5.92871 6.2666 5.68848 5.89746 5.50098C5.53418 5.31348 5.08887 5.21973 4.56152 5.21973C4.0166 5.21973 3.57422 5.30176 3.23438 5.46582C2.89453 5.62988 2.64551 5.83789 2.4873 6.08984C2.33496 6.3418 2.25879 6.60254 2.25879 6.87207C2.25879 7.08301 2.29102 7.27637 2.35547 7.45215C2.42578 7.62207 2.54883 7.78027 2.72461 7.92676C2.90625 8.07324 3.16406 8.21094 3.49805 8.33984C3.83203 8.46875 4.26562 8.59473 4.79883 8.71777C5.56641 8.8877 6.19336 9.0957 6.67969 9.3418C7.17188 9.58203 7.53516 9.88086 7.76953 10.2383C8.00391 10.5898 8.12109 11.0176 8.12109 11.5215C8.12109 11.9141 8.03906 12.2744 7.875 12.6025C7.71094 12.9248 7.47363 13.2031 7.16309 13.4375C6.8584 13.6719 6.48926 13.8535 6.05566 13.9824C5.62793 14.1113 5.14746 14.1758 4.61426 14.1758C3.81152 14.1758 3.13184 14.0439 2.5752 13.7803C2.02441 13.5107 1.60547 13.1592 1.31836 12.7256C1.03711 12.2861 0.896484 11.8203 0.896484 11.3281H1.94238C1.97754 11.8203 2.13281 12.21 2.4082 12.4971C2.68359 12.7783 3.02051 12.9775 3.41895 13.0947C3.82324 13.2119 4.22168 13.2705 4.61426 13.2705C5.15332 13.2705 5.60449 13.1914 5.96777 13.0332C6.33105 12.875 6.60645 12.667 6.79395 12.4092C6.98145 12.1514 7.0752 11.873 7.0752 11.5742ZM16.5938 11.8027V4.49023H17.6484V14H16.6377L16.5938 11.8027ZM16.7871 10.0449L17.332 10.0273C17.332 10.625 17.2617 11.1758 17.1211 11.6797C16.9805 12.1836 16.7607 12.623 16.4619 12.998C16.1631 13.373 15.7764 13.6631 15.3018 13.8682C14.8271 14.0732 14.2559 14.1758 13.5879 14.1758C13.125 14.1758 12.7002 14.1113 12.3135 13.9824C11.9326 13.8477 11.6045 13.6367 11.3291 13.3496C11.0537 13.0625 10.8398 12.6904 10.6875 12.2334C10.541 11.7764 10.4678 11.2227 10.4678 10.5723V4.49023H11.5137V10.5898C11.5137 11.0996 11.5693 11.5244 11.6807 11.8643C11.7979 12.2041 11.9561 12.4766 12.1553 12.6816C12.3604 12.8867 12.5947 13.0332 12.8584 13.1211C13.1221 13.209 13.4062 13.2529 13.7109 13.2529C14.4844 13.2529 15.0938 13.1035 15.5391 12.8047C15.9902 12.5059 16.3096 12.1133 16.4971 11.627C16.6904 11.1348 16.7871 10.6074 16.7871 10.0449ZM21.4365 6.31836V17.6562H20.3818V4.49023H21.3662L21.4365 6.31836ZM28.0459 9.15723V9.3418C28.0459 10.0508 27.9639 10.7012 27.7998 11.293C27.6357 11.8848 27.3984 12.3975 27.0879 12.8311C26.7832 13.2588 26.4053 13.5898 25.9541 13.8242C25.5029 14.0586 24.9902 14.1758 24.416 14.1758C23.8477 14.1758 23.3408 14.0879 22.8955 13.9121C22.4502 13.7363 22.0664 13.4873 21.7441 13.165C21.4277 12.8369 21.1729 12.4561 20.9795 12.0225C20.792 11.583 20.6602 11.1025 20.584 10.5811V8.14648C20.6719 7.57227 20.8154 7.05078 21.0146 6.58203C21.2139 6.11328 21.4688 5.70898 21.7793 5.36914C22.0957 5.0293 22.4707 4.76855 22.9043 4.58691C23.3379 4.40527 23.833 4.31445 24.3896 4.31445C24.9697 4.31445 25.4854 4.42871 25.9365 4.65723C26.3936 4.87988 26.7773 5.20508 27.0879 5.63281C27.4043 6.05469 27.6416 6.56445 27.7998 7.16211C27.9639 7.75391 28.0459 8.41895 28.0459 9.15723ZM26.9912 9.3418V9.15723C26.9912 8.60059 26.9326 8.08496 26.8154 7.61035C26.7041 7.13574 26.5312 6.72266 26.2969 6.37109C26.0684 6.01367 25.7754 5.73535 25.418 5.53613C25.0664 5.33691 24.6475 5.2373 24.1611 5.2373C23.6572 5.2373 23.2266 5.32227 22.8691 5.49219C22.5176 5.65625 22.2246 5.87598 21.9902 6.15137C21.7559 6.4209 21.5713 6.7168 21.4365 7.03906C21.3018 7.36133 21.2021 7.67773 21.1377 7.98828V10.792C21.249 11.2373 21.4277 11.6504 21.6738 12.0312C21.9199 12.4062 22.248 12.708 22.6582 12.9365C23.0742 13.1592 23.5811 13.2705 24.1787 13.2705C24.6592 13.2705 25.0752 13.1709 25.4268 12.9717C25.7783 12.7725 26.0684 12.4941 26.2969 12.1367C26.5312 11.7793 26.7041 11.3633 26.8154 10.8887C26.9326 10.4141 26.9912 9.89844 26.9912 9.3418ZM31.4209 6.31836V17.6562H30.3662V4.49023H31.3506L31.4209 6.31836ZM38.0303 9.15723V9.3418C38.0303 10.0508 37.9482 10.7012 37.7842 11.293C37.6201 11.8848 37.3828 12.3975 37.0723 12.8311C36.7676 13.2588 36.3896 13.5898 35.9385 13.8242C35.4873 14.0586 34.9746 14.1758 34.4004 14.1758C33.832 14.1758 33.3252 14.0879 32.8799 13.9121C32.4346 13.7363 32.0508 13.4873 31.7285 13.165C31.4121 12.8369 31.1572 12.4561 30.9639 12.0225C30.7764 11.583 30.6445 11.1025 30.5684 10.5811V8.14648C30.6562 7.57227 30.7998 7.05078 30.999 6.58203C31.1982 6.11328 31.4531 5.70898 31.7637 5.36914C32.0801 5.0293 32.4551 4.76855 32.8887 4.58691C33.3223 4.40527 33.8174 4.31445 34.374 4.31445C34.9541 4.31445 35.4697 4.42871 35.9209 4.65723C36.3779 4.87988 36.7617 5.20508 37.0723 5.63281C37.3887 6.05469 37.626 6.56445 37.7842 7.16211C37.9482 7.75391 38.0303 8.41895 38.0303 9.15723ZM36.9756 9.3418V9.15723C36.9756 8.60059 36.917 8.08496 36.7998 7.61035C36.6885 7.13574 36.5156 6.72266 36.2812 6.37109C36.0527 6.01367 35.7598 5.73535 35.4023 5.53613C35.0508 5.33691 34.6318 5.2373 34.1455 5.2373C33.6416 5.2373 33.2109 5.32227 32.8535 5.49219C32.502 5.65625 32.209 5.87598 31.9746 6.15137C31.7402 6.4209 31.5557 6.7168 31.4209 7.03906C31.2861 7.36133 31.1865 7.67773 31.1221 7.98828V10.792C31.2334 11.2373 31.4121 11.6504 31.6582 12.0312C31.9043 12.4062 32.2324 12.708 32.6426 12.9365C33.0586 13.1592 33.5654 13.2705 34.1631 13.2705C34.6436 13.2705 35.0596 13.1709 35.4111 12.9717C35.7627 12.7725 36.0527 12.4941 36.2812 12.1367C36.5156 11.7793 36.6885 11.3633 36.7998 10.8887C36.917 10.4141 36.9756 9.89844 36.9756 9.3418ZM39.7881 9.39453V9.10449C39.7881 8.41309 39.8877 7.77441 40.0869 7.18848C40.2861 6.60254 40.5703 6.0957 40.9395 5.66797C41.3145 5.24023 41.7627 4.90918 42.2842 4.6748C42.8057 4.43457 43.3857 4.31445 44.0244 4.31445C44.6689 4.31445 45.252 4.43457 45.7734 4.6748C46.2949 4.90918 46.7432 5.24023 47.1182 5.66797C47.4932 6.0957 47.7803 6.60254 47.9795 7.18848C48.1787 7.77441 48.2783 8.41309 48.2783 9.10449V9.39453C48.2783 10.0859 48.1787 10.7246 47.9795 11.3105C47.7803 11.8906 47.4932 12.3945 47.1182 12.8223C46.749 13.25 46.3037 13.584 45.7822 13.8242C45.2607 14.0586 44.6807 14.1758 44.042 14.1758C43.3975 14.1758 42.8145 14.0586 42.293 13.8242C41.7715 13.584 41.3232 13.25 40.9482 12.8223C40.5732 12.3945 40.2861 11.8906 40.0869 11.3105C39.8877 10.7246 39.7881 10.0859 39.7881 9.39453ZM40.834 9.10449V9.39453C40.834 9.91602 40.9043 10.4111 41.0449 10.8799C41.1855 11.3428 41.3906 11.7559 41.6602 12.1191C41.9297 12.4766 42.2637 12.7578 42.6621 12.9629C43.0605 13.168 43.5205 13.2705 44.042 13.2705C44.5576 13.2705 45.0117 13.168 45.4043 12.9629C45.8027 12.7578 46.1367 12.4766 46.4062 12.1191C46.6758 11.7559 46.8779 11.3428 47.0127 10.8799C47.1533 10.4111 47.2236 9.91602 47.2236 9.39453V9.10449C47.2236 8.58887 47.1533 8.09961 47.0127 7.63672C46.8779 7.17383 46.6729 6.76074 46.3975 6.39746C46.1279 6.03418 45.7939 5.74707 45.3955 5.53613C44.9971 5.3252 44.54 5.21973 44.0244 5.21973C43.5088 5.21973 43.0518 5.3252 42.6533 5.53613C42.2607 5.74707 41.9268 6.03418 41.6514 6.39746C41.3818 6.76074 41.1768 7.17383 41.0361 7.63672C40.9014 8.09961 40.834 8.58887 40.834 9.10449ZM51.5039 6.06348V14H50.458V4.49023H51.4775L51.5039 6.06348ZM54.8701 4.41992L54.8438 5.38672C54.7266 5.36914 54.6123 5.35449 54.501 5.34277C54.3896 5.33105 54.2695 5.3252 54.1406 5.3252C53.6836 5.3252 53.2822 5.41016 52.9365 5.58008C52.5967 5.74414 52.3096 5.97559 52.0752 6.27441C51.8408 6.56738 51.6621 6.91309 51.5391 7.31152C51.416 7.7041 51.3457 8.12598 51.3281 8.57715L50.9414 8.72656C50.9414 8.10547 51.0059 7.52832 51.1348 6.99512C51.2637 6.46191 51.46 5.99609 51.7236 5.59766C51.9932 5.19336 52.3301 4.87988 52.7344 4.65723C53.1445 4.42871 53.625 4.31445 54.1758 4.31445C54.3105 4.31445 54.4424 4.32617 54.5713 4.34961C54.7061 4.36719 54.8057 4.39062 54.8701 4.41992ZM60.5566 4.49023V5.35156H55.793V4.49023H60.5566ZM57.542 2.04688H58.5879V11.6885C58.5879 12.1279 58.6465 12.459 58.7637 12.6816C58.8809 12.9043 59.0332 13.0537 59.2207 13.1299C59.4082 13.2061 59.6104 13.2441 59.8271 13.2441C59.9854 13.2441 60.1377 13.2354 60.2842 13.2178C60.4307 13.1943 60.5625 13.1709 60.6797 13.1475L60.7236 14.0352C60.5947 14.0762 60.4277 14.1084 60.2227 14.1318C60.0176 14.1611 59.8125 14.1758 59.6074 14.1758C59.2031 14.1758 58.8457 14.1025 58.5352 13.9561C58.2246 13.8037 57.9814 13.5459 57.8057 13.1826C57.6299 12.8135 57.542 12.3125 57.542 11.6797V2.04688ZM76.7812 9.49121C76.7578 10.042 76.6758 10.5928 76.5352 11.1436C76.4004 11.6943 76.1953 12.2012 75.9199 12.6641C75.6504 13.1211 75.3018 13.4873 74.874 13.7627C74.4521 14.0381 73.9453 14.1758 73.3535 14.1758C72.9785 14.1758 72.6475 14.1084 72.3604 13.9736C72.0791 13.8389 71.8447 13.6455 71.6572 13.3936C71.4697 13.1416 71.3379 12.8369 71.2617 12.4795C71.1855 12.1162 71.165 11.7119 71.2002 11.2666L71.6396 6.25684H72.5273L72.0879 11.2666C72.0469 11.7354 72.0674 12.1133 72.1494 12.4004C72.2314 12.6816 72.3486 12.8984 72.501 13.0508C72.6533 13.1973 72.8145 13.2969 72.9844 13.3496C73.1602 13.3965 73.3184 13.4199 73.459 13.4199C73.8516 13.4199 74.1973 13.3203 74.4961 13.1211C74.7949 12.9219 75.0498 12.6436 75.2607 12.2861C75.4717 11.9287 75.6357 11.5127 75.7529 11.0381C75.8701 10.5635 75.9404 10.0479 75.9639 9.49121C76.0049 8.60645 75.9639 7.79199 75.8408 7.04785C75.7236 6.30371 75.5156 5.6416 75.2168 5.06152C74.918 4.47559 74.5283 3.98047 74.0479 3.57617C73.5674 3.17188 72.9902 2.86426 72.3164 2.65332C71.6484 2.44238 70.8779 2.33691 70.0049 2.33691C69.249 2.33691 68.54 2.45117 67.8779 2.67969C67.2217 2.90234 66.624 3.23047 66.085 3.66406C65.5459 4.0918 65.0771 4.61035 64.6787 5.21973C64.2861 5.8291 63.9727 6.52051 63.7383 7.29395C63.5098 8.06152 63.375 8.89648 63.334 9.79883C63.293 10.6719 63.3457 11.4863 63.4922 12.2422C63.6387 12.998 63.873 13.6807 64.1953 14.29C64.5176 14.8994 64.9248 15.4209 65.417 15.8545C65.9092 16.2881 66.4805 16.6191 67.1309 16.8477C67.7871 17.0762 68.5195 17.1904 69.3281 17.1904C69.8438 17.1904 70.3652 17.126 70.8926 16.9971C71.4258 16.874 71.8711 16.707 72.2285 16.4961L72.4922 17.1992C72.1055 17.457 71.6074 17.6504 70.998 17.7793C70.3887 17.9141 69.8203 17.9814 69.293 17.9814C68.4023 17.9814 67.5879 17.8584 66.8496 17.6123C66.1172 17.3721 65.4668 17.0176 64.8984 16.5488C64.3359 16.0859 63.8672 15.5205 63.4922 14.8525C63.1172 14.1904 62.8418 13.4346 62.666 12.585C62.4902 11.7354 62.4229 10.8066 62.4639 9.79883C62.5049 8.81445 62.6514 7.89746 62.9033 7.04785C63.1611 6.19824 63.5098 5.43652 63.9492 4.7627C64.3887 4.08301 64.9131 3.5 65.5225 3.01367C66.1318 2.52734 66.8145 2.15527 67.5703 1.89746C68.332 1.63965 69.1553 1.51074 70.04 1.51074C70.9775 1.51074 71.8154 1.63086 72.5537 1.87109C73.2979 2.11133 73.9424 2.45996 74.4873 2.91699C75.0381 3.36816 75.4893 3.91895 75.8408 4.56934C76.1924 5.21973 76.4473 5.95801 76.6055 6.78418C76.7637 7.61035 76.8223 8.5127 76.7812 9.49121ZM67.2715 10.2471C67.2246 10.6982 67.2217 11.1113 67.2627 11.4863C67.3096 11.8613 67.3975 12.1865 67.5264 12.4619C67.6553 12.7314 67.8281 12.9424 68.0449 13.0947C68.2617 13.2412 68.5195 13.3145 68.8184 13.3145C69.041 13.3145 69.2725 13.2734 69.5127 13.1914C69.7529 13.1035 69.9844 12.96 70.207 12.7607C70.4355 12.5615 70.6494 12.2891 70.8486 11.9434C71.0479 11.5918 71.2178 11.1494 71.3584 10.6162L71.7891 11.1523C71.6484 11.6504 71.4697 12.0869 71.2529 12.4619C71.042 12.8369 70.7988 13.1533 70.5234 13.4111C70.2539 13.6631 69.958 13.8535 69.6357 13.9824C69.3193 14.1113 68.9824 14.1758 68.625 14.1758C68.2148 14.1758 67.8545 14.082 67.5439 13.8945C67.2334 13.707 66.9785 13.4404 66.7793 13.0947C66.5859 12.749 66.4512 12.3359 66.375 11.8555C66.2988 11.375 66.2871 10.8389 66.3398 10.2471C66.3926 9.64355 66.498 9.08691 66.6562 8.57715C66.8203 8.06152 67.0195 7.60449 67.2539 7.20605C67.4941 6.80176 67.7666 6.45898 68.0713 6.17773C68.3818 5.89648 68.7129 5.68262 69.0645 5.53613C69.416 5.38379 69.7822 5.30762 70.1631 5.30762C70.7549 5.30762 71.2207 5.4043 71.5605 5.59766C71.9004 5.78516 72.2227 6.00488 72.5273 6.25684L71.9297 6.83691C71.7539 6.6377 71.5225 6.46777 71.2354 6.32715C70.9541 6.18652 70.6172 6.11621 70.2246 6.11621C69.8672 6.11621 69.5273 6.20117 69.2051 6.37109C68.8828 6.53516 68.5869 6.79004 68.3174 7.13574C68.0537 7.47559 67.8311 7.90332 67.6494 8.41895C67.4678 8.93457 67.3418 9.54395 67.2715 10.2471ZM85.4736 4.49023H86.4492V13.833C86.4492 14.6592 86.291 15.3682 85.9746 15.96C85.6641 16.5518 85.2217 17.0059 84.6475 17.3223C84.0791 17.6387 83.4082 17.7969 82.6348 17.7969C82.2422 17.7969 81.8379 17.7354 81.4219 17.6123C81.0117 17.4951 80.6221 17.3135 80.2529 17.0674C79.8896 16.8271 79.5791 16.5283 79.3213 16.1709L79.9102 15.5293C80.2969 15.998 80.71 16.3408 81.1494 16.5576C81.5889 16.7803 82.0635 16.8916 82.5732 16.8916C83.1768 16.8916 83.6865 16.7715 84.1025 16.5312C84.5244 16.291 84.8438 15.9453 85.0605 15.4941C85.2832 15.043 85.3945 14.501 85.3945 13.8682V6.58203L85.4736 4.49023ZM78.7939 9.3418V9.15723C78.7939 8.41895 78.876 7.75391 79.04 7.16211C79.21 6.56445 79.4531 6.05469 79.7695 5.63281C80.0859 5.20508 80.4697 4.87988 80.9209 4.65723C81.3779 4.42871 81.8936 4.31445 82.4678 4.31445C83.0186 4.31445 83.5078 4.40527 83.9355 4.58691C84.3633 4.76855 84.7324 5.0293 85.043 5.36914C85.3535 5.70898 85.6025 6.11328 85.79 6.58203C85.9834 7.05078 86.124 7.57227 86.2119 8.14648V10.4932C86.1416 11.0322 86.0127 11.5273 85.8252 11.9785C85.6377 12.4238 85.3887 12.8135 85.0781 13.1475C84.7676 13.4756 84.3926 13.7305 83.9531 13.9121C83.5195 14.0879 83.0186 14.1758 82.4502 14.1758C81.8818 14.1758 81.3721 14.0586 80.9209 13.8242C80.4697 13.5898 80.0859 13.2588 79.7695 12.8311C79.4531 12.3975 79.21 11.8848 79.04 11.293C78.876 10.7012 78.7939 10.0508 78.7939 9.3418ZM79.8486 9.15723V9.3418C79.8486 9.89844 79.9043 10.4141 80.0156 10.8887C80.127 11.3633 80.2969 11.7764 80.5254 12.1279C80.7539 12.4795 81.0439 12.7549 81.3955 12.9541C81.7471 13.1533 82.1602 13.2529 82.6348 13.2529C83.2383 13.2529 83.7451 13.1387 84.1553 12.9102C84.5654 12.6758 84.8906 12.3682 85.1309 11.9873C85.3711 11.6006 85.5469 11.1787 85.6582 10.7217V7.98828C85.5938 7.67773 85.4941 7.36133 85.3594 7.03906C85.2305 6.7168 85.0488 6.4209 84.8145 6.15137C84.5859 5.87598 84.293 5.65625 83.9355 5.49219C83.584 5.32227 83.1562 5.2373 82.6523 5.2373C82.1719 5.2373 81.7529 5.33691 81.3955 5.53613C81.0439 5.73535 80.7539 6.01367 80.5254 6.37109C80.2969 6.72266 80.127 7.13574 80.0156 7.61035C79.9043 8.08496 79.8486 8.60059 79.8486 9.15723ZM90.2461 6.06348V14H89.2002V4.49023H90.2197L90.2461 6.06348ZM93.6123 4.41992L93.5859 5.38672C93.4688 5.36914 93.3545 5.35449 93.2432 5.34277C93.1318 5.33105 93.0117 5.3252 92.8828 5.3252C92.4258 5.3252 92.0244 5.41016 91.6787 5.58008C91.3389 5.74414 91.0518 5.97559 90.8174 6.27441C90.583 6.56738 90.4043 6.91309 90.2812 7.31152C90.1582 7.7041 90.0879 8.12598 90.0703 8.57715L89.6836 8.72656C89.6836 8.10547 89.748 7.52832 89.877 6.99512C90.0059 6.46191 90.2021 5.99609 90.4658 5.59766C90.7354 5.19336 91.0723 4.87988 91.4766 4.65723C91.8867 4.42871 92.3672 4.31445 92.918 4.31445C93.0527 4.31445 93.1846 4.32617 93.3135 4.34961C93.4482 4.36719 93.5479 4.39062 93.6123 4.41992ZM94.5088 9.39453V9.10449C94.5088 8.41309 94.6084 7.77441 94.8076 7.18848C95.0068 6.60254 95.291 6.0957 95.6602 5.66797C96.0352 5.24023 96.4834 4.90918 97.0049 4.6748C97.5264 4.43457 98.1064 4.31445 98.7451 4.31445C99.3896 4.31445 99.9727 4.43457 100.494 4.6748C101.016 4.90918 101.464 5.24023 101.839 5.66797C102.214 6.0957 102.501 6.60254 102.7 7.18848C102.899 7.77441 102.999 8.41309 102.999 9.10449V9.39453C102.999 10.0859 102.899 10.7246 102.7 11.3105C102.501 11.8906 102.214 12.3945 101.839 12.8223C101.47 13.25 101.024 13.584 100.503 13.8242C99.9814 14.0586 99.4014 14.1758 98.7627 14.1758C98.1182 14.1758 97.5352 14.0586 97.0137 13.8242C96.4922 13.584 96.0439 13.25 95.6689 12.8223C95.2939 12.3945 95.0068 11.8906 94.8076 11.3105C94.6084 10.7246 94.5088 10.0859 94.5088 9.39453ZM95.5547 9.10449V9.39453C95.5547 9.91602 95.625 10.4111 95.7656 10.8799C95.9062 11.3428 96.1113 11.7559 96.3809 12.1191C96.6504 12.4766 96.9844 12.7578 97.3828 12.9629C97.7812 13.168 98.2412 13.2705 98.7627 13.2705C99.2783 13.2705 99.7324 13.168 100.125 12.9629C100.523 12.7578 100.857 12.4766 101.127 12.1191C101.396 11.7559 101.599 11.3428 101.733 10.8799C101.874 10.4111 101.944 9.91602 101.944 9.39453V9.10449C101.944 8.58887 101.874 8.09961 101.733 7.63672C101.599 7.17383 101.394 6.76074 101.118 6.39746C100.849 6.03418 100.515 5.74707 100.116 5.53613C99.7178 5.3252 99.2607 5.21973 98.7451 5.21973C98.2295 5.21973 97.7725 5.3252 97.374 5.53613C96.9814 5.74707 96.6475 6.03418 96.3721 6.39746C96.1025 6.76074 95.8975 7.17383 95.7568 7.63672C95.6221 8.09961 95.5547 8.58887 95.5547 9.10449ZM111.27 11.8027V4.49023H112.324V14H111.313L111.27 11.8027ZM111.463 10.0449L112.008 10.0273C112.008 10.625 111.938 11.1758 111.797 11.6797C111.656 12.1836 111.437 12.623 111.138 12.998C110.839 13.373 110.452 13.6631 109.978 13.8682C109.503 14.0732 108.932 14.1758 108.264 14.1758C107.801 14.1758 107.376 14.1113 106.989 13.9824C106.608 13.8477 106.28 13.6367 106.005 13.3496C105.729 13.0625 105.516 12.6904 105.363 12.2334C105.217 11.7764 105.144 11.2227 105.144 10.5723V4.49023H106.189V10.5898C106.189 11.0996 106.245 11.5244 106.356 11.8643C106.474 12.2041 106.632 12.4766 106.831 12.6816C107.036 12.8867 107.271 13.0332 107.534 13.1211C107.798 13.209 108.082 13.2529 108.387 13.2529C109.16 13.2529 109.77 13.1035 110.215 12.8047C110.666 12.5059 110.985 12.1133 111.173 11.627C111.366 11.1348 111.463 10.6074 111.463 10.0449ZM116.121 6.52051V14H115.075V4.49023H116.077L116.121 6.52051ZM115.884 8.65625L115.418 8.39258C115.453 7.83008 115.567 7.30273 115.761 6.81055C115.954 6.31836 116.215 5.88477 116.543 5.50977C116.877 5.13477 117.267 4.8418 117.712 4.63086C118.163 4.41992 118.661 4.31445 119.206 4.31445C119.681 4.31445 120.105 4.37891 120.48 4.50781C120.855 4.63672 121.175 4.8418 121.438 5.12305C121.702 5.4043 121.901 5.76465 122.036 6.2041C122.177 6.64355 122.247 7.17969 122.247 7.8125V14H121.192V7.80371C121.192 7.14746 121.102 6.63477 120.92 6.26562C120.738 5.89062 120.48 5.62402 120.146 5.46582C119.812 5.30762 119.417 5.22852 118.96 5.22852C118.456 5.22852 118.014 5.33984 117.633 5.5625C117.258 5.7793 116.941 6.06348 116.684 6.41504C116.432 6.76074 116.238 7.13281 116.104 7.53125C115.969 7.92383 115.896 8.29883 115.884 8.65625ZM131.15 12.1543V0.5H132.205V14H131.221L131.15 12.1543ZM124.55 9.3418V9.15723C124.55 8.41895 124.635 7.75391 124.805 7.16211C124.975 6.56445 125.218 6.05469 125.534 5.63281C125.856 5.20508 126.243 4.87988 126.694 4.65723C127.146 4.42871 127.655 4.31445 128.224 4.31445C128.78 4.31445 129.272 4.40527 129.7 4.58691C130.128 4.76855 130.494 5.0293 130.799 5.36914C131.109 5.70898 131.358 6.11328 131.546 6.58203C131.739 7.05078 131.88 7.57227 131.968 8.14648V10.4932C131.897 11.0322 131.769 11.5273 131.581 11.9785C131.394 12.4238 131.145 12.8135 130.834 13.1475C130.523 13.4756 130.148 13.7305 129.709 13.9121C129.275 14.0879 128.774 14.1758 128.206 14.1758C127.644 14.1758 127.137 14.0586 126.686 13.8242C126.234 13.5898 125.851 13.2588 125.534 12.8311C125.218 12.3975 124.975 11.8848 124.805 11.293C124.635 10.7012 124.55 10.0508 124.55 9.3418ZM125.604 9.15723V9.3418C125.604 9.89844 125.66 10.4141 125.771 10.8887C125.883 11.3633 126.053 11.7764 126.281 12.1279C126.51 12.4795 126.8 12.7549 127.151 12.9541C127.503 13.1533 127.919 13.2529 128.399 13.2529C129.003 13.2529 129.51 13.1387 129.92 12.9102C130.33 12.6758 130.658 12.3682 130.904 11.9873C131.15 11.6006 131.329 11.1787 131.44 10.7217V7.98828C131.37 7.67773 131.268 7.36133 131.133 7.03906C130.998 6.7168 130.813 6.4209 130.579 6.15137C130.351 5.87598 130.058 5.65625 129.7 5.49219C129.349 5.32227 128.921 5.2373 128.417 5.2373C127.931 5.2373 127.512 5.33691 127.16 5.53613C126.809 5.73535 126.516 6.01367 126.281 6.37109C126.053 6.72266 125.883 7.13574 125.771 7.61035C125.66 8.08496 125.604 8.60059 125.604 9.15723ZM137.61 11.7764L139.904 4.49023H140.643L140.203 6.4502L137.804 14H137.065L137.61 11.7764ZM135.229 4.49023L137.241 11.8203L137.672 14H136.907L134.147 4.49023H135.229ZM143.499 11.7939L145.459 4.49023H146.54L143.78 14H143.024L143.499 11.7939ZM140.792 4.49023L143.051 11.7148L143.622 14H142.884L140.432 6.44141L140.019 4.49023H140.792ZM149.73 4.49023V14H148.685V4.49023H149.73ZM148.5 1.73926C148.5 1.54004 148.562 1.37305 148.685 1.23828C148.813 1.09766 148.989 1.02734 149.212 1.02734C149.435 1.02734 149.61 1.09766 149.739 1.23828C149.874 1.37305 149.941 1.54004 149.941 1.73926C149.941 1.93262 149.874 2.09961 149.739 2.24023C149.61 2.375 149.435 2.44238 149.212 2.44238C148.989 2.44238 148.813 2.375 148.685 2.24023C148.562 2.09961 148.5 1.93262 148.5 1.73926ZM158.783 12.1543V0.5H159.838V14H158.854L158.783 12.1543ZM152.183 9.3418V9.15723C152.183 8.41895 152.268 7.75391 152.438 7.16211C152.607 6.56445 152.851 6.05469 153.167 5.63281C153.489 5.20508 153.876 4.87988 154.327 4.65723C154.778 4.42871 155.288 4.31445 155.856 4.31445C156.413 4.31445 156.905 4.40527 157.333 4.58691C157.761 4.76855 158.127 5.0293 158.432 5.36914C158.742 5.70898 158.991 6.11328 159.179 6.58203C159.372 7.05078 159.513 7.57227 159.601 8.14648V10.4932C159.53 11.0322 159.401 11.5273 159.214 11.9785C159.026 12.4238 158.777 12.8135 158.467 13.1475C158.156 13.4756 157.781 13.7305 157.342 13.9121C156.908 14.0879 156.407 14.1758 155.839 14.1758C155.276 14.1758 154.77 14.0586 154.318 13.8242C153.867 13.5898 153.483 13.2588 153.167 12.8311C152.851 12.3975 152.607 11.8848 152.438 11.293C152.268 10.7012 152.183 10.0508 152.183 9.3418ZM153.237 9.15723V9.3418C153.237 9.89844 153.293 10.4141 153.404 10.8887C153.516 11.3633 153.686 11.7764 153.914 12.1279C154.143 12.4795 154.433 12.7549 154.784 12.9541C155.136 13.1533 155.552 13.2529 156.032 13.2529C156.636 13.2529 157.143 13.1387 157.553 12.9102C157.963 12.6758 158.291 12.3682 158.537 11.9873C158.783 11.6006 158.962 11.1787 159.073 10.7217V7.98828C159.003 7.67773 158.9 7.36133 158.766 7.03906C158.631 6.7168 158.446 6.4209 158.212 6.15137C157.983 5.87598 157.69 5.65625 157.333 5.49219C156.981 5.32227 156.554 5.2373 156.05 5.2373C155.563 5.2373 155.145 5.33691 154.793 5.53613C154.441 5.73535 154.148 6.01367 153.914 6.37109C153.686 6.72266 153.516 7.13574 153.404 7.61035C153.293 8.08496 153.237 8.60059 153.237 9.15723ZM168.864 4.49023H169.84V13.833C169.84 14.6592 169.682 15.3682 169.365 15.96C169.055 16.5518 168.612 17.0059 168.038 17.3223C167.47 17.6387 166.799 17.7969 166.025 17.7969C165.633 17.7969 165.229 17.7354 164.812 17.6123C164.402 17.4951 164.013 17.3135 163.644 17.0674C163.28 16.8271 162.97 16.5283 162.712 16.1709L163.301 15.5293C163.688 15.998 164.101 16.3408 164.54 16.5576C164.979 16.7803 165.454 16.8916 165.964 16.8916C166.567 16.8916 167.077 16.7715 167.493 16.5312C167.915 16.291 168.234 15.9453 168.451 15.4941C168.674 15.043 168.785 14.501 168.785 13.8682V6.58203L168.864 4.49023ZM162.185 9.3418V9.15723C162.185 8.41895 162.267 7.75391 162.431 7.16211C162.601 6.56445 162.844 6.05469 163.16 5.63281C163.477 5.20508 163.86 4.87988 164.312 4.65723C164.769 4.42871 165.284 4.31445 165.858 4.31445C166.409 4.31445 166.898 4.40527 167.326 4.58691C167.754 4.76855 168.123 5.0293 168.434 5.36914C168.744 5.70898 168.993 6.11328 169.181 6.58203C169.374 7.05078 169.515 7.57227 169.603 8.14648V10.4932C169.532 11.0322 169.403 11.5273 169.216 11.9785C169.028 12.4238 168.779 12.8135 168.469 13.1475C168.158 13.4756 167.783 13.7305 167.344 13.9121C166.91 14.0879 166.409 14.1758 165.841 14.1758C165.272 14.1758 164.763 14.0586 164.312 13.8242C163.86 13.5898 163.477 13.2588 163.16 12.8311C162.844 12.3975 162.601 11.8848 162.431 11.293C162.267 10.7012 162.185 10.0508 162.185 9.3418ZM163.239 9.15723V9.3418C163.239 9.89844 163.295 10.4141 163.406 10.8887C163.518 11.3633 163.688 11.7764 163.916 12.1279C164.145 12.4795 164.435 12.7549 164.786 12.9541C165.138 13.1533 165.551 13.2529 166.025 13.2529C166.629 13.2529 167.136 13.1387 167.546 12.9102C167.956 12.6758 168.281 12.3682 168.521 11.9873C168.762 11.6006 168.938 11.1787 169.049 10.7217V7.98828C168.984 7.67773 168.885 7.36133 168.75 7.03906C168.621 6.7168 168.439 6.4209 168.205 6.15137C167.977 5.87598 167.684 5.65625 167.326 5.49219C166.975 5.32227 166.547 5.2373 166.043 5.2373C165.562 5.2373 165.144 5.33691 164.786 5.53613C164.435 5.73535 164.145 6.01367 163.916 6.37109C163.688 6.72266 163.518 7.13574 163.406 7.61035C163.295 8.08496 163.239 8.60059 163.239 9.15723ZM176.265 14.1758C175.644 14.1758 175.072 14.0615 174.551 13.833C174.035 13.6045 173.584 13.2822 173.197 12.8662C172.816 12.4502 172.521 11.958 172.31 11.3896C172.104 10.8154 172.002 10.1885 172.002 9.50879V9.13086C172.002 8.39844 172.11 7.73633 172.327 7.14453C172.544 6.55273 172.843 6.0459 173.224 5.62402C173.604 5.20215 174.038 4.87988 174.524 4.65723C175.017 4.42871 175.532 4.31445 176.071 4.31445C176.675 4.31445 177.211 4.42285 177.68 4.63965C178.148 4.85059 178.541 5.15234 178.857 5.54492C179.18 5.93164 179.423 6.3916 179.587 6.9248C179.751 7.45215 179.833 8.03516 179.833 8.67383V9.31543H172.635V8.41895H178.787V8.2959C178.775 7.7627 178.667 7.26465 178.462 6.80176C178.263 6.33301 177.964 5.95215 177.565 5.65918C177.167 5.36621 176.669 5.21973 176.071 5.21973C175.626 5.21973 175.216 5.31348 174.841 5.50098C174.472 5.68848 174.152 5.95801 173.883 6.30957C173.619 6.65527 173.414 7.06836 173.268 7.54883C173.127 8.02344 173.057 8.55078 173.057 9.13086V9.50879C173.057 10.0361 173.133 10.5283 173.285 10.9854C173.443 11.4365 173.666 11.835 173.953 12.1807C174.246 12.5264 174.592 12.7959 174.99 12.9893C175.389 13.1826 175.828 13.2793 176.309 13.2793C176.871 13.2793 177.369 13.1768 177.803 12.9717C178.236 12.7607 178.626 12.4297 178.972 11.9785L179.631 12.4883C179.426 12.793 179.168 13.0742 178.857 13.332C178.553 13.5898 178.187 13.7949 177.759 13.9473C177.331 14.0996 176.833 14.1758 176.265 14.1758ZM185.502 4.49023V5.35156H180.738V4.49023H185.502ZM182.487 2.04688H183.533V11.6885C183.533 12.1279 183.592 12.459 183.709 12.6816C183.826 12.9043 183.979 13.0537 184.166 13.1299C184.354 13.2061 184.556 13.2441 184.772 13.2441C184.931 13.2441 185.083 13.2354 185.229 13.2178C185.376 13.1943 185.508 13.1709 185.625 13.1475L185.669 14.0352C185.54 14.0762 185.373 14.1084 185.168 14.1318C184.963 14.1611 184.758 14.1758 184.553 14.1758C184.148 14.1758 183.791 14.1025 183.48 13.9561C183.17 13.8037 182.927 13.5459 182.751 13.1826C182.575 12.8135 182.487 12.3125 182.487 11.6797V2.04688ZM193.403 11.5742C193.403 11.3164 193.339 11.0615 193.21 10.8096C193.081 10.5576 192.832 10.3262 192.463 10.1152C192.1 9.9043 191.563 9.72559 190.854 9.5791C190.327 9.46191 189.855 9.33008 189.439 9.18359C189.029 9.03711 188.684 8.86133 188.402 8.65625C188.121 8.45117 187.907 8.20508 187.761 7.91797C187.614 7.63086 187.541 7.29102 187.541 6.89844C187.541 6.54688 187.617 6.21582 187.77 5.90527C187.928 5.58887 188.15 5.31348 188.438 5.0791C188.73 4.83887 189.082 4.65137 189.492 4.5166C189.908 4.38184 190.374 4.31445 190.89 4.31445C191.622 4.31445 192.249 4.44043 192.771 4.69238C193.298 4.93848 193.699 5.27539 193.975 5.70312C194.256 6.13086 194.396 6.61426 194.396 7.15332H193.351C193.351 6.8252 193.254 6.51465 193.061 6.22168C192.873 5.92871 192.595 5.68848 192.226 5.50098C191.862 5.31348 191.417 5.21973 190.89 5.21973C190.345 5.21973 189.902 5.30176 189.562 5.46582C189.223 5.62988 188.974 5.83789 188.815 6.08984C188.663 6.3418 188.587 6.60254 188.587 6.87207C188.587 7.08301 188.619 7.27637 188.684 7.45215C188.754 7.62207 188.877 7.78027 189.053 7.92676C189.234 8.07324 189.492 8.21094 189.826 8.33984C190.16 8.46875 190.594 8.59473 191.127 8.71777C191.895 8.8877 192.521 9.0957 193.008 9.3418C193.5 9.58203 193.863 9.88086 194.098 10.2383C194.332 10.5898 194.449 11.0176 194.449 11.5215C194.449 11.9141 194.367 12.2744 194.203 12.6025C194.039 12.9248 193.802 13.2031 193.491 13.4375C193.187 13.6719 192.817 13.8535 192.384 13.9824C191.956 14.1113 191.476 14.1758 190.942 14.1758C190.14 14.1758 189.46 14.0439 188.903 13.7803C188.353 13.5107 187.934 13.1592 187.646 12.7256C187.365 12.2861 187.225 11.8203 187.225 11.3281H188.271C188.306 11.8203 188.461 12.21 188.736 12.4971C189.012 12.7783 189.349 12.9775 189.747 13.0947C190.151 13.2119 190.55 13.2705 190.942 13.2705C191.481 13.2705 191.933 13.1914 192.296 13.0332C192.659 12.875 192.935 12.667 193.122 12.4092C193.31 12.1514 193.403 11.873 193.403 11.5742ZM196.734 13.3584C196.734 13.1533 196.799 12.9805 196.928 12.8398C197.062 12.6934 197.244 12.6201 197.473 12.6201C197.707 12.6201 197.892 12.6904 198.026 12.8311C198.161 12.9717 198.229 13.1475 198.229 13.3584C198.229 13.5576 198.161 13.7275 198.026 13.8682C197.892 14.0088 197.707 14.0791 197.473 14.0791C197.244 14.0791 197.062 14.0088 196.928 13.8682C196.799 13.7275 196.734 13.5576 196.734 13.3584ZM204.645 13.2705C205.09 13.2705 205.506 13.1885 205.893 13.0244C206.285 12.8545 206.607 12.6055 206.859 12.2773C207.117 11.9434 207.264 11.5361 207.299 11.0557H208.301C208.271 11.6592 208.087 12.1982 207.747 12.6729C207.413 13.1416 206.974 13.5107 206.429 13.7803C205.89 14.0439 205.295 14.1758 204.645 14.1758C203.982 14.1758 203.396 14.0557 202.887 13.8154C202.383 13.5752 201.961 13.2412 201.621 12.8135C201.281 12.3799 201.023 11.876 200.848 11.3018C200.678 10.7217 200.593 10.0977 200.593 9.42969V9.06055C200.593 8.39258 200.678 7.77148 200.848 7.19727C201.023 6.61719 201.281 6.11328 201.621 5.68555C201.961 5.25195 202.383 4.91504 202.887 4.6748C203.391 4.43457 203.974 4.31445 204.636 4.31445C205.315 4.31445 205.925 4.45215 206.464 4.72754C207.009 5.00293 207.442 5.39258 207.765 5.89648C208.093 6.40039 208.271 6.99805 208.301 7.68945H207.299C207.27 7.17969 207.135 6.74023 206.895 6.37109C206.654 6.00195 206.338 5.71777 205.945 5.51855C205.553 5.31934 205.116 5.21973 204.636 5.21973C204.097 5.21973 203.637 5.3252 203.256 5.53613C202.875 5.74121 202.564 6.02539 202.324 6.38867C202.09 6.74609 201.917 7.15625 201.806 7.61914C201.694 8.07617 201.639 8.55664 201.639 9.06055V9.42969C201.639 9.93945 201.691 10.4258 201.797 10.8887C201.908 11.3457 202.081 11.7529 202.315 12.1104C202.556 12.4678 202.866 12.752 203.247 12.9629C203.634 13.168 204.1 13.2705 204.645 13.2705ZM209.839 9.39453V9.10449C209.839 8.41309 209.938 7.77441 210.138 7.18848C210.337 6.60254 210.621 6.0957 210.99 5.66797C211.365 5.24023 211.813 4.90918 212.335 4.6748C212.856 4.43457 213.437 4.31445 214.075 4.31445C214.72 4.31445 215.303 4.43457 215.824 4.6748C216.346 4.90918 216.794 5.24023 217.169 5.66797C217.544 6.0957 217.831 6.60254 218.03 7.18848C218.229 7.77441 218.329 8.41309 218.329 9.10449V9.39453C218.329 10.0859 218.229 10.7246 218.03 11.3105C217.831 11.8906 217.544 12.3945 217.169 12.8223C216.8 13.25 216.354 13.584 215.833 13.8242C215.312 14.0586 214.731 14.1758 214.093 14.1758C213.448 14.1758 212.865 14.0586 212.344 13.8242C211.822 13.584 211.374 13.25 210.999 12.8223C210.624 12.3945 210.337 11.8906 210.138 11.3105C209.938 10.7246 209.839 10.0859 209.839 9.39453ZM210.885 9.10449V9.39453C210.885 9.91602 210.955 10.4111 211.096 10.8799C211.236 11.3428 211.441 11.7559 211.711 12.1191C211.98 12.4766 212.314 12.7578 212.713 12.9629C213.111 13.168 213.571 13.2705 214.093 13.2705C214.608 13.2705 215.062 13.168 215.455 12.9629C215.854 12.7578 216.188 12.4766 216.457 12.1191C216.727 11.7559 216.929 11.3428 217.063 10.8799C217.204 10.4111 217.274 9.91602 217.274 9.39453V9.10449C217.274 8.58887 217.204 8.09961 217.063 7.63672C216.929 7.17383 216.724 6.76074 216.448 6.39746C216.179 6.03418 215.845 5.74707 215.446 5.53613C215.048 5.3252 214.591 5.21973 214.075 5.21973C213.56 5.21973 213.103 5.3252 212.704 5.53613C212.312 5.74707 211.978 6.03418 211.702 6.39746C211.433 6.76074 211.228 7.17383 211.087 7.63672C210.952 8.09961 210.885 8.58887 210.885 9.10449ZM221.502 6.45898V14H220.447V4.49023H221.458L221.502 6.45898ZM221.309 8.65625L220.799 8.39258C220.834 7.83008 220.939 7.30273 221.115 6.81055C221.297 6.31836 221.549 5.88477 221.871 5.50977C222.193 5.13477 222.58 4.8418 223.031 4.63086C223.482 4.41992 223.995 4.31445 224.569 4.31445C225.032 4.31445 225.451 4.37891 225.826 4.50781C226.207 4.63086 226.529 4.82715 226.793 5.09668C227.062 5.36035 227.271 5.70605 227.417 6.13379C227.563 6.56152 227.637 7.07422 227.637 7.67188V14H226.591V7.70703C226.591 7.07422 226.491 6.5791 226.292 6.22168C226.099 5.86426 225.826 5.60938 225.475 5.45703C225.129 5.30469 224.728 5.22852 224.271 5.22852C223.731 5.22852 223.274 5.33984 222.899 5.5625C222.53 5.7793 222.229 6.06348 221.994 6.41504C221.766 6.76074 221.596 7.13281 221.484 7.53125C221.373 7.92383 221.314 8.29883 221.309 8.65625ZM227.628 7.83008L226.925 7.84766C226.954 7.38477 227.06 6.94238 227.241 6.52051C227.429 6.09863 227.684 5.72363 228.006 5.39551C228.328 5.06152 228.712 4.79785 229.157 4.60449C229.608 4.41113 230.115 4.31445 230.678 4.31445C231.17 4.31445 231.609 4.38184 231.996 4.5166C232.383 4.64551 232.708 4.85352 232.972 5.14062C233.241 5.42188 233.446 5.78223 233.587 6.22168C233.728 6.66113 233.798 7.18848 233.798 7.80371V14H232.743V7.79492C232.743 7.12109 232.644 6.59961 232.444 6.23047C232.251 5.85547 231.981 5.59473 231.636 5.44824C231.29 5.30176 230.886 5.22852 230.423 5.22852C229.966 5.23438 229.564 5.31934 229.219 5.4834C228.873 5.6416 228.583 5.85254 228.349 6.11621C228.12 6.37402 227.944 6.65234 227.821 6.95117C227.704 7.25 227.64 7.54297 227.628 7.83008Z" fill="black"/>
</svg>
