<svg width="210" height="16" viewBox="0 0 210 16" fill="none" xmlns="http://www.w3.org/2000/svg">
<path d="M5.34375 9.75781C5.34375 9.54948 5.29688 9.35677 5.20312 9.17969C5.11458 8.9974 4.92969 8.83333 4.64844 8.6875C4.3724 8.53646 3.95573 8.40625 3.39844 8.29688C2.92969 8.19792 2.50521 8.08073 2.125 7.94531C1.75 7.8099 1.42969 7.64583 1.16406 7.45312C0.903646 7.26042 0.703125 7.03385 0.5625 6.77344C0.421875 6.51302 0.351562 6.20833 0.351562 5.85938C0.351562 5.52604 0.424479 5.21094 0.570312 4.91406C0.721354 4.61719 0.932292 4.35417 1.20312 4.125C1.47917 3.89583 1.8099 3.71615 2.19531 3.58594C2.58073 3.45573 3.01042 3.39062 3.48438 3.39062C4.16146 3.39062 4.73958 3.51042 5.21875 3.75C5.69792 3.98958 6.0651 4.3099 6.32031 4.71094C6.57552 5.10677 6.70312 5.54688 6.70312 6.03125H5.25781C5.25781 5.79688 5.1875 5.57031 5.04688 5.35156C4.91146 5.1276 4.71094 4.94271 4.44531 4.79688C4.1849 4.65104 3.86458 4.57812 3.48438 4.57812C3.08333 4.57812 2.75781 4.64062 2.50781 4.76562C2.26302 4.88542 2.08333 5.03906 1.96875 5.22656C1.85938 5.41406 1.80469 5.61198 1.80469 5.82031C1.80469 5.97656 1.83073 6.11719 1.88281 6.24219C1.9401 6.36198 2.03906 6.47396 2.17969 6.57812C2.32031 6.67708 2.51823 6.77083 2.77344 6.85938C3.02865 6.94792 3.35417 7.03646 3.75 7.125C4.44271 7.28125 5.01302 7.46875 5.46094 7.6875C5.90885 7.90625 6.24219 8.17448 6.46094 8.49219C6.67969 8.8099 6.78906 9.19531 6.78906 9.64844C6.78906 10.0182 6.71094 10.3568 6.55469 10.6641C6.40365 10.9714 6.18229 11.237 5.89062 11.4609C5.60417 11.6797 5.26042 11.8516 4.85938 11.9766C4.46354 12.0964 4.01823 12.1562 3.52344 12.1562C2.77865 12.1562 2.14844 12.0234 1.63281 11.7578C1.11719 11.4922 0.726562 11.1484 0.460938 10.7266C0.195312 10.3047 0.0625 9.85938 0.0625 9.39062H1.51562C1.53646 9.78646 1.65104 10.1016 1.85938 10.3359C2.06771 10.5651 2.32292 10.7292 2.625 10.8281C2.92708 10.9219 3.22656 10.9688 3.52344 10.9688C3.91927 10.9688 4.25 10.9167 4.51562 10.8125C4.78646 10.7083 4.99219 10.5651 5.13281 10.3828C5.27344 10.2005 5.34375 9.99219 5.34375 9.75781ZM13.8594 10.0469V3.54688H15.3125V12H13.9297L13.8594 10.0469ZM14.1328 8.26562L14.7344 8.25C14.7344 8.8125 14.6745 9.33333 14.5547 9.8125C14.4401 10.2865 14.2526 10.6979 13.9922 11.0469C13.7318 11.3958 13.3906 11.6693 12.9688 11.8672C12.5469 12.0599 12.0339 12.1562 11.4297 12.1562C11.0182 12.1562 10.6406 12.0964 10.2969 11.9766C9.95833 11.8568 9.66667 11.6719 9.42188 11.4219C9.17708 11.1719 8.98698 10.8464 8.85156 10.4453C8.72135 10.0443 8.65625 9.5625 8.65625 9V3.54688H10.1016V9.01562C10.1016 9.39583 10.1432 9.71094 10.2266 9.96094C10.3151 10.2057 10.4323 10.401 10.5781 10.5469C10.7292 10.6875 10.8958 10.7865 11.0781 10.8438C11.2656 10.901 11.4583 10.9297 11.6562 10.9297C12.2708 10.9297 12.7578 10.8125 13.1172 10.5781C13.4766 10.3385 13.7344 10.0182 13.8906 9.61719C14.0521 9.21094 14.1328 8.76042 14.1328 8.26562ZM18.9609 5.17188V15.25H17.5078V3.54688H18.8359L18.9609 5.17188ZM24.6562 7.70312V7.86719C24.6562 8.48177 24.5833 9.05208 24.4375 9.57812C24.2917 10.099 24.0781 10.5521 23.7969 10.9375C23.5208 11.3229 23.1797 11.6224 22.7734 11.8359C22.3672 12.0495 21.901 12.1562 21.375 12.1562C20.8385 12.1562 20.3646 12.0677 19.9531 11.8906C19.5417 11.7135 19.1927 11.4557 18.9062 11.1172C18.6198 10.7786 18.3906 10.3724 18.2188 9.89844C18.0521 9.42448 17.9375 8.89062 17.875 8.29688V7.42188C17.9375 6.79688 18.0547 6.23698 18.2266 5.74219C18.3984 5.2474 18.625 4.82552 18.9062 4.47656C19.1927 4.1224 19.5391 3.85417 19.9453 3.67188C20.3516 3.48438 20.8203 3.39062 21.3516 3.39062C21.8828 3.39062 22.3542 3.49479 22.7656 3.70312C23.1771 3.90625 23.5234 4.19792 23.8047 4.57812C24.0859 4.95833 24.2969 5.41406 24.4375 5.94531C24.5833 6.47135 24.6562 7.05729 24.6562 7.70312ZM23.2031 7.86719V7.70312C23.2031 7.28125 23.1589 6.88542 23.0703 6.51562C22.9818 6.14062 22.8438 5.8125 22.6562 5.53125C22.474 5.24479 22.2396 5.02083 21.9531 4.85938C21.6667 4.69271 21.3255 4.60938 20.9297 4.60938C20.5651 4.60938 20.2474 4.67188 19.9766 4.79688C19.7109 4.92188 19.4844 5.09115 19.2969 5.30469C19.1094 5.51302 18.9557 5.7526 18.8359 6.02344C18.7214 6.28906 18.6354 6.5651 18.5781 6.85156V8.875C18.6823 9.23958 18.8281 9.58333 19.0156 9.90625C19.2031 10.224 19.4531 10.4818 19.7656 10.6797C20.0781 10.8724 20.4714 10.9688 20.9453 10.9688C21.3359 10.9688 21.6719 10.888 21.9531 10.7266C22.2396 10.5599 22.474 10.3333 22.6562 10.0469C22.8438 9.76042 22.9818 9.43229 23.0703 9.0625C23.1589 8.6875 23.2031 8.28906 23.2031 7.86719ZM27.9453 5.17188V15.25H26.4922V3.54688H27.8203L27.9453 5.17188ZM33.6406 7.70312V7.86719C33.6406 8.48177 33.5677 9.05208 33.4219 9.57812C33.276 10.099 33.0625 10.5521 32.7812 10.9375C32.5052 11.3229 32.1641 11.6224 31.7578 11.8359C31.3516 12.0495 30.8854 12.1562 30.3594 12.1562C29.8229 12.1562 29.349 12.0677 28.9375 11.8906C28.526 11.7135 28.1771 11.4557 27.8906 11.1172C27.6042 10.7786 27.375 10.3724 27.2031 9.89844C27.0365 9.42448 26.9219 8.89062 26.8594 8.29688V7.42188C26.9219 6.79688 27.0391 6.23698 27.2109 5.74219C27.3828 5.2474 27.6094 4.82552 27.8906 4.47656C28.1771 4.1224 28.5234 3.85417 28.9297 3.67188C29.3359 3.48438 29.8047 3.39062 30.3359 3.39062C30.8672 3.39062 31.3385 3.49479 31.75 3.70312C32.1615 3.90625 32.5078 4.19792 32.7891 4.57812C33.0703 4.95833 33.2812 5.41406 33.4219 5.94531C33.5677 6.47135 33.6406 7.05729 33.6406 7.70312ZM32.1875 7.86719V7.70312C32.1875 7.28125 32.1432 6.88542 32.0547 6.51562C31.9661 6.14062 31.8281 5.8125 31.6406 5.53125C31.4583 5.24479 31.224 5.02083 30.9375 4.85938C30.651 4.69271 30.3099 4.60938 29.9141 4.60938C29.5495 4.60938 29.2318 4.67188 28.9609 4.79688C28.6953 4.92188 28.4688 5.09115 28.2812 5.30469C28.0938 5.51302 27.9401 5.7526 27.8203 6.02344C27.7057 6.28906 27.6198 6.5651 27.5625 6.85156V8.875C27.6667 9.23958 27.8125 9.58333 28 9.90625C28.1875 10.224 28.4375 10.4818 28.75 10.6797C29.0625 10.8724 29.4557 10.9688 29.9297 10.9688C30.3203 10.9688 30.6562 10.888 30.9375 10.7266C31.224 10.5599 31.4583 10.3333 31.6406 10.0469C31.8281 9.76042 31.9661 9.43229 32.0547 9.0625C32.1432 8.6875 32.1875 8.28906 32.1875 7.86719ZM35.1016 7.86719V7.6875C35.1016 7.07812 35.1901 6.51302 35.3672 5.99219C35.5443 5.46615 35.7995 5.01042 36.1328 4.625C36.4661 4.23438 36.8698 3.93229 37.3438 3.71875C37.8177 3.5 38.349 3.39062 38.9375 3.39062C39.5312 3.39062 40.0651 3.5 40.5391 3.71875C41.0182 3.93229 41.4245 4.23438 41.7578 4.625C42.0964 5.01042 42.3542 5.46615 42.5312 5.99219C42.7083 6.51302 42.7969 7.07812 42.7969 7.6875V7.86719C42.7969 8.47656 42.7083 9.04167 42.5312 9.5625C42.3542 10.0833 42.0964 10.5391 41.7578 10.9297C41.4245 11.3151 41.0208 11.6172 40.5469 11.8359C40.0781 12.0495 39.5469 12.1562 38.9531 12.1562C38.3594 12.1562 37.8255 12.0495 37.3516 11.8359C36.8776 11.6172 36.4714 11.3151 36.1328 10.9297C35.7995 10.5391 35.5443 10.0833 35.3672 9.5625C35.1901 9.04167 35.1016 8.47656 35.1016 7.86719ZM36.5469 7.6875V7.86719C36.5469 8.28906 36.5964 8.6875 36.6953 9.0625C36.7943 9.43229 36.9427 9.76042 37.1406 10.0469C37.3438 10.3333 37.5964 10.5599 37.8984 10.7266C38.2005 10.888 38.5521 10.9688 38.9531 10.9688C39.349 10.9688 39.6953 10.888 39.9922 10.7266C40.2943 10.5599 40.5443 10.3333 40.7422 10.0469C40.9401 9.76042 41.0885 9.43229 41.1875 9.0625C41.2917 8.6875 41.3438 8.28906 41.3438 7.86719V7.6875C41.3438 7.27083 41.2917 6.8776 41.1875 6.50781C41.0885 6.13281 40.9375 5.80208 40.7344 5.51562C40.5365 5.22396 40.2865 4.99479 39.9844 4.82812C39.6875 4.66146 39.3385 4.57812 38.9375 4.57812C38.5417 4.57812 38.1927 4.66146 37.8906 4.82812C37.5938 4.99479 37.3438 5.22396 37.1406 5.51562C36.9427 5.80208 36.7943 6.13281 36.6953 6.50781C36.5964 6.8776 36.5469 7.27083 36.5469 7.6875ZM46.0547 4.875V12H44.6094V3.54688H46.0156L46.0547 4.875ZM48.6953 3.5L48.6875 4.84375C48.5677 4.81771 48.4531 4.80208 48.3438 4.79688C48.2396 4.78646 48.1198 4.78125 47.9844 4.78125C47.651 4.78125 47.3568 4.83333 47.1016 4.9375C46.8464 5.04167 46.6302 5.1875 46.4531 5.375C46.276 5.5625 46.1354 5.78646 46.0312 6.04688C45.9323 6.30208 45.8672 6.58333 45.8359 6.89062L45.4297 7.125C45.4297 6.61458 45.4792 6.13542 45.5781 5.6875C45.6823 5.23958 45.8411 4.84375 46.0547 4.5C46.2682 4.15104 46.5391 3.88021 46.8672 3.6875C47.2005 3.48958 47.5964 3.39062 48.0547 3.39062C48.1589 3.39062 48.2786 3.40365 48.4141 3.42969C48.5495 3.45052 48.6432 3.47396 48.6953 3.5ZM53.9609 3.54688V4.65625H49.3906V3.54688H53.9609ZM50.9375 1.49219H52.3828V9.90625C52.3828 10.1927 52.4271 10.4089 52.5156 10.5547C52.6042 10.7005 52.7188 10.7969 52.8594 10.8438C53 10.8906 53.151 10.9141 53.3125 10.9141C53.4323 10.9141 53.5573 10.9036 53.6875 10.8828C53.8229 10.8568 53.9245 10.8359 53.9922 10.8203L54 12C53.8854 12.0365 53.7344 12.0703 53.5469 12.1016C53.3646 12.138 53.1432 12.1562 52.8828 12.1562C52.5286 12.1562 52.2031 12.0859 51.9062 11.9453C51.6094 11.8047 51.3724 11.5703 51.1953 11.2422C51.0234 10.9089 50.9375 10.4609 50.9375 9.89844V1.49219ZM68.1172 8.07031C68.0964 8.54948 68.0234 9.03125 67.8984 9.51562C67.7734 9.99479 67.5859 10.4349 67.3359 10.8359C67.0859 11.237 66.7604 11.5599 66.3594 11.8047C65.9635 12.0443 65.4844 12.1641 64.9219 12.1641C64.5625 12.1641 64.2474 12.1016 63.9766 11.9766C63.7109 11.8464 63.4922 11.6615 63.3203 11.4219C63.1536 11.1823 63.0365 10.8932 62.9688 10.5547C62.9062 10.2161 62.8958 9.83854 62.9375 9.42188L63.3359 5.09375H64.4844L64.0859 9.42188C64.0547 9.80208 64.0625 10.112 64.1094 10.3516C64.1615 10.5911 64.2396 10.776 64.3438 10.9062C64.4479 11.0312 64.5651 11.1172 64.6953 11.1641C64.8307 11.2109 64.9609 11.2344 65.0859 11.2344C65.3984 11.2344 65.6771 11.1536 65.9219 10.9922C66.1667 10.8255 66.3724 10.599 66.5391 10.3125C66.7109 10.0208 66.8438 9.6849 66.9375 9.30469C67.0312 8.91927 67.0885 8.50781 67.1094 8.07031C67.1458 7.29427 67.1094 6.58073 67 5.92969C66.8958 5.27865 66.7161 4.70052 66.4609 4.19531C66.2109 3.6901 65.8828 3.26302 65.4766 2.91406C65.0703 2.5651 64.5859 2.29948 64.0234 2.11719C63.4609 1.9349 62.8177 1.84375 62.0938 1.84375C61.4375 1.84375 60.8307 1.94531 60.2734 2.14844C59.7214 2.34635 59.224 2.63281 58.7812 3.00781C58.3438 3.38281 57.9661 3.83333 57.6484 4.35938C57.3359 4.88542 57.0885 5.47917 56.9062 6.14062C56.7292 6.79688 56.625 7.50521 56.5938 8.26562C56.5573 9.04688 56.599 9.76562 56.7188 10.4219C56.8385 11.0729 57.0312 11.6536 57.2969 12.1641C57.5677 12.6797 57.9089 13.1146 58.3203 13.4688C58.7318 13.8281 59.2083 14.099 59.75 14.2812C60.2917 14.4688 60.8958 14.5625 61.5625 14.5625C62.0208 14.5625 62.4844 14.5078 62.9531 14.3984C63.4271 14.2891 63.8229 14.1406 64.1406 13.9531L64.4375 14.8438C64.0729 15.0781 63.6172 15.2526 63.0703 15.3672C62.5286 15.4818 62.0156 15.5391 61.5312 15.5391C60.7396 15.5391 60.0156 15.4297 59.3594 15.2109C58.7083 14.9974 58.1302 14.6823 57.625 14.2656C57.125 13.8542 56.7083 13.3516 56.375 12.7578C56.0417 12.1693 55.7969 11.4974 55.6406 10.7422C55.4844 9.98698 55.4245 9.16146 55.4609 8.26562C55.4974 7.41146 55.625 6.60677 55.8438 5.85156C56.0677 5.09635 56.3724 4.41146 56.7578 3.79688C57.1432 3.18229 57.6016 2.65365 58.1328 2.21094C58.6693 1.76302 59.2708 1.41927 59.9375 1.17969C60.6094 0.940104 61.3385 0.820312 62.125 0.820312C62.9271 0.820312 63.6536 0.929688 64.3047 1.14844C64.9557 1.36719 65.526 1.68229 66.0156 2.09375C66.5104 2.50521 66.9193 3.00781 67.2422 3.60156C67.5651 4.19531 67.7995 4.86719 67.9453 5.61719C68.0964 6.36719 68.1536 7.1849 68.1172 8.07031ZM60.0938 8.73438C60.0573 9.09896 60.0573 9.42448 60.0938 9.71094C60.1302 9.9974 60.2005 10.2396 60.3047 10.4375C60.4089 10.6354 60.5443 10.7865 60.7109 10.8906C60.8828 10.9896 61.0833 11.0391 61.3125 11.0391C61.4635 11.0391 61.6224 11.0026 61.7891 10.9297C61.9557 10.8516 62.1198 10.7318 62.2812 10.5703C62.4427 10.4089 62.5938 10.1979 62.7344 9.9375C62.875 9.67708 62.9922 9.36458 63.0859 9L63.6016 9.5625C63.4818 9.98958 63.3255 10.3646 63.1328 10.6875C62.9453 11.0104 62.7344 11.2812 62.5 11.5C62.2656 11.7188 62.0156 11.8854 61.75 12C61.4896 12.1094 61.224 12.1641 60.9531 12.1641C60.5729 12.1641 60.2396 12.0833 59.9531 11.9219C59.6667 11.7552 59.4349 11.5208 59.2578 11.2188C59.0807 10.9167 58.9557 10.5573 58.8828 10.1406C58.8151 9.71875 58.8047 9.25 58.8516 8.73438C58.8984 8.1875 58.9948 7.68229 59.1406 7.21875C59.2865 6.75521 59.4661 6.34115 59.6797 5.97656C59.8984 5.61198 60.1432 5.30208 60.4141 5.04688C60.6901 4.79167 60.9818 4.59896 61.2891 4.46875C61.5964 4.33333 61.9115 4.26562 62.2344 4.26562C62.7969 4.26562 63.2396 4.34896 63.5625 4.51562C63.8854 4.67708 64.1927 4.86979 64.4844 5.09375L63.8203 5.86719C63.6693 5.72135 63.4714 5.58594 63.2266 5.46094C62.9818 5.33594 62.6927 5.27344 62.3594 5.27344C62.0729 5.27344 61.8047 5.34635 61.5547 5.49219C61.3047 5.63802 61.0781 5.85677 60.875 6.14844C60.6771 6.4401 60.5104 6.80208 60.375 7.23438C60.2396 7.66146 60.1458 8.16146 60.0938 8.73438ZM75.5078 3.54688H76.8203V11.8203C76.8203 12.5651 76.6693 13.2005 76.3672 13.7266C76.0651 14.2526 75.6432 14.651 75.1016 14.9219C74.5651 15.1979 73.9453 15.3359 73.2422 15.3359C72.9505 15.3359 72.6068 15.2891 72.2109 15.1953C71.8203 15.1068 71.4349 14.9531 71.0547 14.7344C70.6797 14.5208 70.3646 14.2318 70.1094 13.8672L70.8672 13.0078C71.2214 13.4349 71.5911 13.7318 71.9766 13.8984C72.3672 14.0651 72.7526 14.1484 73.1328 14.1484C73.5911 14.1484 73.987 14.0625 74.3203 13.8906C74.6536 13.7188 74.9115 13.4635 75.0938 13.125C75.2812 12.7917 75.375 12.3802 75.375 11.8906V5.40625L75.5078 3.54688ZM69.6875 7.86719V7.70312C69.6875 7.05729 69.763 6.47135 69.9141 5.94531C70.0703 5.41406 70.2917 4.95833 70.5781 4.57812C70.8698 4.19792 71.2214 3.90625 71.6328 3.70312C72.0443 3.49479 72.5078 3.39062 73.0234 3.39062C73.5547 3.39062 74.0182 3.48438 74.4141 3.67188C74.8151 3.85417 75.1536 4.1224 75.4297 4.47656C75.7109 4.82552 75.9323 5.2474 76.0938 5.74219C76.2552 6.23698 76.3672 6.79688 76.4297 7.42188V8.14062C76.3724 8.76042 76.2604 9.31771 76.0938 9.8125C75.9323 10.3073 75.7109 10.7292 75.4297 11.0781C75.1536 11.4271 74.8151 11.6953 74.4141 11.8828C74.013 12.0651 73.5443 12.1562 73.0078 12.1562C72.5026 12.1562 72.0443 12.0495 71.6328 11.8359C71.2266 11.6224 70.8776 11.3229 70.5859 10.9375C70.2943 10.5521 70.0703 10.099 69.9141 9.57812C69.763 9.05208 69.6875 8.48177 69.6875 7.86719ZM71.1328 7.70312V7.86719C71.1328 8.28906 71.1745 8.6849 71.2578 9.05469C71.3464 9.42448 71.4792 9.75 71.6562 10.0312C71.8385 10.3125 72.0703 10.5339 72.3516 10.6953C72.6328 10.8516 72.9688 10.9297 73.3594 10.9297C73.8385 10.9297 74.2344 10.8281 74.5469 10.625C74.8594 10.4219 75.1068 10.1536 75.2891 9.82031C75.4766 9.48698 75.6224 9.125 75.7266 8.73438V6.85156C75.6693 6.5651 75.5807 6.28906 75.4609 6.02344C75.3464 5.7526 75.1953 5.51302 75.0078 5.30469C74.8255 5.09115 74.599 4.92188 74.3281 4.79688C74.0573 4.67188 73.7396 4.60938 73.375 4.60938C72.9792 4.60938 72.638 4.69271 72.3516 4.85938C72.0703 5.02083 71.8385 5.24479 71.6562 5.53125C71.4792 5.8125 71.3464 6.14062 71.2578 6.51562C71.1745 6.88542 71.1328 7.28125 71.1328 7.70312ZM80.4609 4.875V12H79.0156V3.54688H80.4219L80.4609 4.875ZM83.1016 3.5L83.0938 4.84375C82.974 4.81771 82.8594 4.80208 82.75 4.79688C82.6458 4.78646 82.526 4.78125 82.3906 4.78125C82.0573 4.78125 81.763 4.83333 81.5078 4.9375C81.2526 5.04167 81.0365 5.1875 80.8594 5.375C80.6823 5.5625 80.5417 5.78646 80.4375 6.04688C80.3385 6.30208 80.2734 6.58333 80.2422 6.89062L79.8359 7.125C79.8359 6.61458 79.8854 6.13542 79.9844 5.6875C80.0885 5.23958 80.2474 4.84375 80.4609 4.5C80.6745 4.15104 80.9453 3.88021 81.2734 3.6875C81.6068 3.48958 82.0026 3.39062 82.4609 3.39062C82.5651 3.39062 82.6849 3.40365 82.8203 3.42969C82.9557 3.45052 83.0495 3.47396 83.1016 3.5ZM83.8984 7.86719V7.6875C83.8984 7.07812 83.987 6.51302 84.1641 5.99219C84.3411 5.46615 84.5964 5.01042 84.9297 4.625C85.263 4.23438 85.6667 3.93229 86.1406 3.71875C86.6146 3.5 87.1458 3.39062 87.7344 3.39062C88.3281 3.39062 88.862 3.5 89.3359 3.71875C89.8151 3.93229 90.2214 4.23438 90.5547 4.625C90.8932 5.01042 91.151 5.46615 91.3281 5.99219C91.5052 6.51302 91.5938 7.07812 91.5938 7.6875V7.86719C91.5938 8.47656 91.5052 9.04167 91.3281 9.5625C91.151 10.0833 90.8932 10.5391 90.5547 10.9297C90.2214 11.3151 89.8177 11.6172 89.3438 11.8359C88.875 12.0495 88.3438 12.1562 87.75 12.1562C87.1562 12.1562 86.6224 12.0495 86.1484 11.8359C85.6745 11.6172 85.2682 11.3151 84.9297 10.9297C84.5964 10.5391 84.3411 10.0833 84.1641 9.5625C83.987 9.04167 83.8984 8.47656 83.8984 7.86719ZM85.3438 7.6875V7.86719C85.3438 8.28906 85.3932 8.6875 85.4922 9.0625C85.5911 9.43229 85.7396 9.76042 85.9375 10.0469C86.1406 10.3333 86.3932 10.5599 86.6953 10.7266C86.9974 10.888 87.349 10.9688 87.75 10.9688C88.1458 10.9688 88.4922 10.888 88.7891 10.7266C89.0911 10.5599 89.3411 10.3333 89.5391 10.0469C89.737 9.76042 89.8854 9.43229 89.9844 9.0625C90.0885 8.6875 90.1406 8.28906 90.1406 7.86719V7.6875C90.1406 7.27083 90.0885 6.8776 89.9844 6.50781C89.8854 6.13281 89.7344 5.80208 89.5312 5.51562C89.3333 5.22396 89.0833 4.99479 88.7812 4.82812C88.4844 4.66146 88.1354 4.57812 87.7344 4.57812C87.3385 4.57812 86.9896 4.66146 86.6875 4.82812C86.3906 4.99479 86.1406 5.22396 85.9375 5.51562C85.7396 5.80208 85.5911 6.13281 85.4922 6.50781C85.3932 6.8776 85.3438 7.27083 85.3438 7.6875ZM98.5781 10.0469V3.54688H100.031V12H98.6484L98.5781 10.0469ZM98.8516 8.26562L99.4531 8.25C99.4531 8.8125 99.3932 9.33333 99.2734 9.8125C99.1589 10.2865 98.9714 10.6979 98.7109 11.0469C98.4505 11.3958 98.1094 11.6693 97.6875 11.8672C97.2656 12.0599 96.7526 12.1562 96.1484 12.1562C95.737 12.1562 95.3594 12.0964 95.0156 11.9766C94.6771 11.8568 94.3854 11.6719 94.1406 11.4219C93.8958 11.1719 93.7057 10.8464 93.5703 10.4453C93.4401 10.0443 93.375 9.5625 93.375 9V3.54688H94.8203V9.01562C94.8203 9.39583 94.862 9.71094 94.9453 9.96094C95.0339 10.2057 95.151 10.401 95.2969 10.5469C95.4479 10.6875 95.6146 10.7865 95.7969 10.8438C95.9844 10.901 96.1771 10.9297 96.375 10.9297C96.9896 10.9297 97.4766 10.8125 97.8359 10.5781C98.1953 10.3385 98.4531 10.0182 98.6094 9.61719C98.7708 9.21094 98.8516 8.76042 98.8516 8.26562ZM103.68 5.35156V12H102.234V3.54688H103.602L103.68 5.35156ZM103.336 7.45312L102.734 7.42969C102.74 6.85156 102.826 6.31771 102.992 5.82812C103.159 5.33333 103.393 4.90365 103.695 4.53906C103.997 4.17448 104.357 3.89323 104.773 3.69531C105.195 3.49219 105.661 3.39062 106.172 3.39062C106.589 3.39062 106.964 3.44792 107.297 3.5625C107.63 3.67188 107.914 3.84896 108.148 4.09375C108.388 4.33854 108.57 4.65625 108.695 5.04688C108.82 5.43229 108.883 5.90365 108.883 6.46094V12H107.43V6.44531C107.43 6.0026 107.365 5.64844 107.234 5.38281C107.104 5.11198 106.914 4.91667 106.664 4.79688C106.414 4.67188 106.107 4.60938 105.742 4.60938C105.383 4.60938 105.055 4.6849 104.758 4.83594C104.466 4.98698 104.214 5.19531 104 5.46094C103.792 5.72656 103.628 6.03125 103.508 6.375C103.393 6.71354 103.336 7.07292 103.336 7.45312ZM116.406 10.3594V0H117.859V12H116.531L116.406 10.3594ZM110.719 7.86719V7.70312C110.719 7.05729 110.797 6.47135 110.953 5.94531C111.115 5.41406 111.341 4.95833 111.633 4.57812C111.93 4.19792 112.281 3.90625 112.688 3.70312C113.099 3.49479 113.557 3.39062 114.062 3.39062C114.594 3.39062 115.057 3.48438 115.453 3.67188C115.854 3.85417 116.193 4.1224 116.469 4.47656C116.75 4.82552 116.971 5.2474 117.133 5.74219C117.294 6.23698 117.406 6.79688 117.469 7.42188V8.14062C117.411 8.76042 117.299 9.31771 117.133 9.8125C116.971 10.3073 116.75 10.7292 116.469 11.0781C116.193 11.4271 115.854 11.6953 115.453 11.8828C115.052 12.0651 114.583 12.1562 114.047 12.1562C113.552 12.1562 113.099 12.0495 112.688 11.8359C112.281 11.6224 111.93 11.3229 111.633 10.9375C111.341 10.5521 111.115 10.099 110.953 9.57812C110.797 9.05208 110.719 8.48177 110.719 7.86719ZM112.172 7.70312V7.86719C112.172 8.28906 112.214 8.6849 112.297 9.05469C112.385 9.42448 112.521 9.75 112.703 10.0312C112.885 10.3125 113.117 10.5339 113.398 10.6953C113.68 10.8516 114.016 10.9297 114.406 10.9297C114.885 10.9297 115.279 10.8281 115.586 10.625C115.898 10.4219 116.148 10.1536 116.336 9.82031C116.523 9.48698 116.669 9.125 116.773 8.73438V6.85156C116.711 6.5651 116.62 6.28906 116.5 6.02344C116.385 5.7526 116.234 5.51302 116.047 5.30469C115.865 5.09115 115.638 4.92188 115.367 4.79688C115.102 4.67188 114.786 4.60938 114.422 4.60938C114.026 4.60938 113.685 4.69271 113.398 4.85938C113.117 5.02083 112.885 5.24479 112.703 5.53125C112.521 5.8125 112.385 6.14062 112.297 6.51562C112.214 6.88542 112.172 7.28125 112.172 7.70312ZM122.25 10.5L124.422 3.54688H125.375L125.188 4.92969L122.977 12H122.047L122.25 10.5ZM120.789 3.54688L122.641 10.5781L122.773 12H121.797L119.344 3.54688H120.789ZM127.453 10.5234L129.219 3.54688H130.656L128.203 12H127.234L127.453 10.5234ZM125.586 3.54688L127.711 10.3828L127.953 12H127.031L124.758 4.91406L124.57 3.54688H125.586ZM133.711 3.54688V12H132.258V3.54688H133.711ZM132.148 1.30469C132.148 1.07031 132.219 0.872396 132.359 0.710938C132.505 0.549479 132.719 0.46875 133 0.46875C133.276 0.46875 133.487 0.549479 133.633 0.710938C133.784 0.872396 133.859 1.07031 133.859 1.30469C133.859 1.52865 133.784 1.72135 133.633 1.88281C133.487 2.03906 133.276 2.11719 133 2.11719C132.719 2.11719 132.505 2.03906 132.359 1.88281C132.219 1.72135 132.148 1.52865 132.148 1.30469ZM141.359 10.3594V0H142.812V12H141.484L141.359 10.3594ZM135.672 7.86719V7.70312C135.672 7.05729 135.75 6.47135 135.906 5.94531C136.068 5.41406 136.294 4.95833 136.586 4.57812C136.883 4.19792 137.234 3.90625 137.641 3.70312C138.052 3.49479 138.51 3.39062 139.016 3.39062C139.547 3.39062 140.01 3.48438 140.406 3.67188C140.807 3.85417 141.146 4.1224 141.422 4.47656C141.703 4.82552 141.924 5.2474 142.086 5.74219C142.247 6.23698 142.359 6.79688 142.422 7.42188V8.14062C142.365 8.76042 142.253 9.31771 142.086 9.8125C141.924 10.3073 141.703 10.7292 141.422 11.0781C141.146 11.4271 140.807 11.6953 140.406 11.8828C140.005 12.0651 139.536 12.1562 139 12.1562C138.505 12.1562 138.052 12.0495 137.641 11.8359C137.234 11.6224 136.883 11.3229 136.586 10.9375C136.294 10.5521 136.068 10.099 135.906 9.57812C135.75 9.05208 135.672 8.48177 135.672 7.86719ZM137.125 7.70312V7.86719C137.125 8.28906 137.167 8.6849 137.25 9.05469C137.339 9.42448 137.474 9.75 137.656 10.0312C137.839 10.3125 138.07 10.5339 138.352 10.6953C138.633 10.8516 138.969 10.9297 139.359 10.9297C139.839 10.9297 140.232 10.8281 140.539 10.625C140.852 10.4219 141.102 10.1536 141.289 9.82031C141.477 9.48698 141.622 9.125 141.727 8.73438V6.85156C141.664 6.5651 141.573 6.28906 141.453 6.02344C141.339 5.7526 141.188 5.51302 141 5.30469C140.818 5.09115 140.591 4.92188 140.32 4.79688C140.055 4.67188 139.74 4.60938 139.375 4.60938C138.979 4.60938 138.638 4.69271 138.352 4.85938C138.07 5.02083 137.839 5.24479 137.656 5.53125C137.474 5.8125 137.339 6.14062 137.25 6.51562C137.167 6.88542 137.125 7.28125 137.125 7.70312ZM150.539 3.54688H151.852V11.8203C151.852 12.5651 151.701 13.2005 151.398 13.7266C151.096 14.2526 150.674 14.651 150.133 14.9219C149.596 15.1979 148.977 15.3359 148.273 15.3359C147.982 15.3359 147.638 15.2891 147.242 15.1953C146.852 15.1068 146.466 14.9531 146.086 14.7344C145.711 14.5208 145.396 14.2318 145.141 13.8672L145.898 13.0078C146.253 13.4349 146.622 13.7318 147.008 13.8984C147.398 14.0651 147.784 14.1484 148.164 14.1484C148.622 14.1484 149.018 14.0625 149.352 13.8906C149.685 13.7188 149.943 13.4635 150.125 13.125C150.312 12.7917 150.406 12.3802 150.406 11.8906V5.40625L150.539 3.54688ZM144.719 7.86719V7.70312C144.719 7.05729 144.794 6.47135 144.945 5.94531C145.102 5.41406 145.323 4.95833 145.609 4.57812C145.901 4.19792 146.253 3.90625 146.664 3.70312C147.076 3.49479 147.539 3.39062 148.055 3.39062C148.586 3.39062 149.049 3.48438 149.445 3.67188C149.846 3.85417 150.185 4.1224 150.461 4.47656C150.742 4.82552 150.964 5.2474 151.125 5.74219C151.286 6.23698 151.398 6.79688 151.461 7.42188V8.14062C151.404 8.76042 151.292 9.31771 151.125 9.8125C150.964 10.3073 150.742 10.7292 150.461 11.0781C150.185 11.4271 149.846 11.6953 149.445 11.8828C149.044 12.0651 148.576 12.1562 148.039 12.1562C147.534 12.1562 147.076 12.0495 146.664 11.8359C146.258 11.6224 145.909 11.3229 145.617 10.9375C145.326 10.5521 145.102 10.099 144.945 9.57812C144.794 9.05208 144.719 8.48177 144.719 7.86719ZM146.164 7.70312V7.86719C146.164 8.28906 146.206 8.6849 146.289 9.05469C146.378 9.42448 146.51 9.75 146.688 10.0312C146.87 10.3125 147.102 10.5339 147.383 10.6953C147.664 10.8516 148 10.9297 148.391 10.9297C148.87 10.9297 149.266 10.8281 149.578 10.625C149.891 10.4219 150.138 10.1536 150.32 9.82031C150.508 9.48698 150.654 9.125 150.758 8.73438V6.85156C150.701 6.5651 150.612 6.28906 150.492 6.02344C150.378 5.7526 150.227 5.51302 150.039 5.30469C149.857 5.09115 149.63 4.92188 149.359 4.79688C149.089 4.67188 148.771 4.60938 148.406 4.60938C148.01 4.60938 147.669 4.69271 147.383 4.85938C147.102 5.02083 146.87 5.24479 146.688 5.53125C146.51 5.8125 146.378 6.14062 146.289 6.51562C146.206 6.88542 146.164 7.28125 146.164 7.70312ZM157.555 12.1562C156.966 12.1562 156.432 12.0573 155.953 11.8594C155.479 11.6562 155.07 11.3724 154.727 11.0078C154.388 10.6432 154.128 10.2109 153.945 9.71094C153.763 9.21094 153.672 8.66406 153.672 8.07031V7.74219C153.672 7.05469 153.773 6.44271 153.977 5.90625C154.18 5.36458 154.456 4.90625 154.805 4.53125C155.154 4.15625 155.549 3.8724 155.992 3.67969C156.435 3.48698 156.893 3.39062 157.367 3.39062C157.971 3.39062 158.492 3.49479 158.93 3.70312C159.372 3.91146 159.734 4.20312 160.016 4.57812C160.297 4.94792 160.505 5.38542 160.641 5.89062C160.776 6.39062 160.844 6.9375 160.844 7.53125V8.17969H154.531V7H159.398V6.89062C159.378 6.51562 159.299 6.15104 159.164 5.79688C159.034 5.44271 158.826 5.15104 158.539 4.92188C158.253 4.69271 157.862 4.57812 157.367 4.57812C157.039 4.57812 156.737 4.64844 156.461 4.78906C156.185 4.92448 155.948 5.1276 155.75 5.39844C155.552 5.66927 155.398 6 155.289 6.39062C155.18 6.78125 155.125 7.23177 155.125 7.74219V8.07031C155.125 8.47135 155.18 8.84896 155.289 9.20312C155.404 9.55208 155.568 9.85938 155.781 10.125C156 10.3906 156.263 10.599 156.57 10.75C156.883 10.901 157.237 10.9766 157.633 10.9766C158.143 10.9766 158.576 10.8724 158.93 10.6641C159.284 10.4557 159.594 10.1771 159.859 9.82812L160.734 10.5234C160.552 10.7995 160.32 11.0625 160.039 11.3125C159.758 11.5625 159.411 11.7656 159 11.9219C158.594 12.0781 158.112 12.1562 157.555 12.1562ZM166.07 3.54688V4.65625H161.5V3.54688H166.07ZM163.047 1.49219H164.492V9.90625C164.492 10.1927 164.536 10.4089 164.625 10.5547C164.714 10.7005 164.828 10.7969 164.969 10.8438C165.109 10.8906 165.26 10.9141 165.422 10.9141C165.542 10.9141 165.667 10.9036 165.797 10.8828C165.932 10.8568 166.034 10.8359 166.102 10.8203L166.109 12C165.995 12.0365 165.844 12.0703 165.656 12.1016C165.474 12.138 165.253 12.1562 164.992 12.1562C164.638 12.1562 164.312 12.0859 164.016 11.9453C163.719 11.8047 163.482 11.5703 163.305 11.2422C163.133 10.9089 163.047 10.4609 163.047 9.89844V1.49219ZM172.688 9.75781C172.688 9.54948 172.641 9.35677 172.547 9.17969C172.458 8.9974 172.273 8.83333 171.992 8.6875C171.716 8.53646 171.299 8.40625 170.742 8.29688C170.273 8.19792 169.849 8.08073 169.469 7.94531C169.094 7.8099 168.773 7.64583 168.508 7.45312C168.247 7.26042 168.047 7.03385 167.906 6.77344C167.766 6.51302 167.695 6.20833 167.695 5.85938C167.695 5.52604 167.768 5.21094 167.914 4.91406C168.065 4.61719 168.276 4.35417 168.547 4.125C168.823 3.89583 169.154 3.71615 169.539 3.58594C169.924 3.45573 170.354 3.39062 170.828 3.39062C171.505 3.39062 172.083 3.51042 172.562 3.75C173.042 3.98958 173.409 4.3099 173.664 4.71094C173.919 5.10677 174.047 5.54688 174.047 6.03125H172.602C172.602 5.79688 172.531 5.57031 172.391 5.35156C172.255 5.1276 172.055 4.94271 171.789 4.79688C171.529 4.65104 171.208 4.57812 170.828 4.57812C170.427 4.57812 170.102 4.64062 169.852 4.76562C169.607 4.88542 169.427 5.03906 169.312 5.22656C169.203 5.41406 169.148 5.61198 169.148 5.82031C169.148 5.97656 169.174 6.11719 169.227 6.24219C169.284 6.36198 169.383 6.47396 169.523 6.57812C169.664 6.67708 169.862 6.77083 170.117 6.85938C170.372 6.94792 170.698 7.03646 171.094 7.125C171.786 7.28125 172.357 7.46875 172.805 7.6875C173.253 7.90625 173.586 8.17448 173.805 8.49219C174.023 8.8099 174.133 9.19531 174.133 9.64844C174.133 10.0182 174.055 10.3568 173.898 10.6641C173.747 10.9714 173.526 11.237 173.234 11.4609C172.948 11.6797 172.604 11.8516 172.203 11.9766C171.807 12.0964 171.362 12.1562 170.867 12.1562C170.122 12.1562 169.492 12.0234 168.977 11.7578C168.461 11.4922 168.07 11.1484 167.805 10.7266C167.539 10.3047 167.406 9.85938 167.406 9.39062H168.859C168.88 9.78646 168.995 10.1016 169.203 10.3359C169.411 10.5651 169.667 10.7292 169.969 10.8281C170.271 10.9219 170.57 10.9688 170.867 10.9688C171.263 10.9688 171.594 10.9167 171.859 10.8125C172.13 10.7083 172.336 10.5651 172.477 10.3828C172.617 10.2005 172.688 9.99219 172.688 9.75781ZM176.055 11.2344C176.055 10.9896 176.13 10.7839 176.281 10.6172C176.438 10.4453 176.661 10.3594 176.953 10.3594C177.245 10.3594 177.466 10.4453 177.617 10.6172C177.773 10.7839 177.852 10.9896 177.852 11.2344C177.852 11.474 177.773 11.6771 177.617 11.8438C177.466 12.0104 177.245 12.0938 176.953 12.0938C176.661 12.0938 176.438 12.0104 176.281 11.8438C176.13 11.6771 176.055 11.474 176.055 11.2344ZM183.633 10.9688C183.977 10.9688 184.294 10.8984 184.586 10.7578C184.878 10.6172 185.117 10.4245 185.305 10.1797C185.492 9.92969 185.599 9.64583 185.625 9.32812H187C186.974 9.82812 186.805 10.2943 186.492 10.7266C186.185 11.1536 185.781 11.5 185.281 11.7656C184.781 12.026 184.232 12.1562 183.633 12.1562C182.997 12.1562 182.443 12.0443 181.969 11.8203C181.5 11.5964 181.109 11.2891 180.797 10.8984C180.49 10.5078 180.258 10.0599 180.102 9.55469C179.951 9.04427 179.875 8.50521 179.875 7.9375V7.60938C179.875 7.04167 179.951 6.50521 180.102 6C180.258 5.48958 180.49 5.03906 180.797 4.64844C181.109 4.25781 181.5 3.95052 181.969 3.72656C182.443 3.5026 182.997 3.39062 183.633 3.39062C184.294 3.39062 184.872 3.52604 185.367 3.79688C185.862 4.0625 186.25 4.42708 186.531 4.89062C186.818 5.34896 186.974 5.86979 187 6.45312H185.625C185.599 6.10417 185.5 5.78906 185.328 5.50781C185.161 5.22656 184.932 5.0026 184.641 4.83594C184.354 4.66406 184.018 4.57812 183.633 4.57812C183.19 4.57812 182.818 4.66667 182.516 4.84375C182.219 5.01562 181.982 5.25 181.805 5.54688C181.633 5.83854 181.508 6.16406 181.43 6.52344C181.357 6.8776 181.32 7.23958 181.32 7.60938V7.9375C181.32 8.30729 181.357 8.67188 181.43 9.03125C181.503 9.39062 181.625 9.71615 181.797 10.0078C181.974 10.2995 182.211 10.5339 182.508 10.7109C182.81 10.8828 183.185 10.9688 183.633 10.9688ZM188.242 7.86719V7.6875C188.242 7.07812 188.331 6.51302 188.508 5.99219C188.685 5.46615 188.94 5.01042 189.273 4.625C189.607 4.23438 190.01 3.93229 190.484 3.71875C190.958 3.5 191.49 3.39062 192.078 3.39062C192.672 3.39062 193.206 3.5 193.68 3.71875C194.159 3.93229 194.565 4.23438 194.898 4.625C195.237 5.01042 195.495 5.46615 195.672 5.99219C195.849 6.51302 195.938 7.07812 195.938 7.6875V7.86719C195.938 8.47656 195.849 9.04167 195.672 9.5625C195.495 10.0833 195.237 10.5391 194.898 10.9297C194.565 11.3151 194.161 11.6172 193.688 11.8359C193.219 12.0495 192.688 12.1562 192.094 12.1562C191.5 12.1562 190.966 12.0495 190.492 11.8359C190.018 11.6172 189.612 11.3151 189.273 10.9297C188.94 10.5391 188.685 10.0833 188.508 9.5625C188.331 9.04167 188.242 8.47656 188.242 7.86719ZM189.688 7.6875V7.86719C189.688 8.28906 189.737 8.6875 189.836 9.0625C189.935 9.43229 190.083 9.76042 190.281 10.0469C190.484 10.3333 190.737 10.5599 191.039 10.7266C191.341 10.888 191.693 10.9688 192.094 10.9688C192.49 10.9688 192.836 10.888 193.133 10.7266C193.435 10.5599 193.685 10.3333 193.883 10.0469C194.081 9.76042 194.229 9.43229 194.328 9.0625C194.432 8.6875 194.484 8.28906 194.484 7.86719V7.6875C194.484 7.27083 194.432 6.8776 194.328 6.50781C194.229 6.13281 194.078 5.80208 193.875 5.51562C193.677 5.22396 193.427 4.99479 193.125 4.82812C192.828 4.66146 192.479 4.57812 192.078 4.57812C191.682 4.57812 191.333 4.66146 191.031 4.82812C190.734 4.99479 190.484 5.22396 190.281 5.51562C190.083 5.80208 189.935 6.13281 189.836 6.50781C189.737 6.8776 189.688 7.27083 189.688 7.6875ZM199.188 5.22656V12H197.734V3.54688H199.109L199.188 5.22656ZM198.891 7.45312L198.219 7.42969C198.224 6.85156 198.299 6.31771 198.445 5.82812C198.591 5.33333 198.807 4.90365 199.094 4.53906C199.38 4.17448 199.737 3.89323 200.164 3.69531C200.591 3.49219 201.086 3.39062 201.648 3.39062C202.044 3.39062 202.409 3.44792 202.742 3.5625C203.076 3.67188 203.365 3.84635 203.609 4.08594C203.854 4.32552 204.044 4.63281 204.18 5.00781C204.315 5.38281 204.383 5.83594 204.383 6.36719V12H202.938V6.4375C202.938 5.99479 202.862 5.64062 202.711 5.375C202.565 5.10938 202.357 4.91667 202.086 4.79688C201.815 4.67188 201.497 4.60938 201.133 4.60938C200.706 4.60938 200.349 4.6849 200.062 4.83594C199.776 4.98698 199.547 5.19531 199.375 5.46094C199.203 5.72656 199.078 6.03125 199 6.375C198.927 6.71354 198.891 7.07292 198.891 7.45312ZM204.367 6.65625L203.398 6.95312C203.404 6.48958 203.479 6.04427 203.625 5.61719C203.776 5.1901 203.992 4.8099 204.273 4.47656C204.56 4.14323 204.911 3.88021 205.328 3.6875C205.745 3.48958 206.221 3.39062 206.758 3.39062C207.211 3.39062 207.612 3.45052 207.961 3.57031C208.315 3.6901 208.612 3.875 208.852 4.125C209.096 4.36979 209.281 4.6849 209.406 5.07031C209.531 5.45573 209.594 5.91406 209.594 6.44531V12H208.141V6.42969C208.141 5.95573 208.065 5.58854 207.914 5.32812C207.768 5.0625 207.56 4.8776 207.289 4.77344C207.023 4.66406 206.706 4.60938 206.336 4.60938C206.018 4.60938 205.737 4.66406 205.492 4.77344C205.247 4.88281 205.042 5.03385 204.875 5.22656C204.708 5.41406 204.581 5.63021 204.492 5.875C204.409 6.11979 204.367 6.38021 204.367 6.65625Z" fill="#191D22"/>
</svg>
