<svg width="98" height="22" viewBox="0 0 98 22" fill="none" xmlns="http://www.w3.org/2000/svg">
<path d="M96.7891 9.9375V11.6719C96.7891 12.6042 96.7057 13.3906 96.5391 14.0312C96.3724 14.6719 96.1328 15.1875 95.8203 15.5781C95.5078 15.9688 95.1302 16.2526 94.6875 16.4297C94.25 16.6016 93.7552 16.6875 93.2031 16.6875C92.7656 16.6875 92.362 16.6328 91.9922 16.5234C91.6224 16.4141 91.2891 16.2396 90.9922 16C90.7005 15.7552 90.4505 15.4375 90.2422 15.0469C90.0339 14.6562 89.875 14.1823 89.7656 13.625C89.6562 13.0677 89.6016 12.4167 89.6016 11.6719V9.9375C89.6016 9.00521 89.6849 8.22396 89.8516 7.59375C90.0234 6.96354 90.2656 6.45833 90.5781 6.07812C90.8906 5.69271 91.2656 5.41667 91.7031 5.25C92.1458 5.08333 92.6406 5 93.1875 5C93.6302 5 94.0365 5.05469 94.4062 5.16406C94.7812 5.26823 95.1146 5.4375 95.4062 5.67188C95.6979 5.90104 95.9453 6.20833 96.1484 6.59375C96.3568 6.97396 96.5156 7.4401 96.625 7.99219C96.7344 8.54427 96.7891 9.19271 96.7891 9.9375ZM95.3359 11.9062V9.69531C95.3359 9.1849 95.3047 8.73698 95.2422 8.35156C95.1849 7.96094 95.099 7.6276 94.9844 7.35156C94.8698 7.07552 94.724 6.85156 94.5469 6.67969C94.375 6.50781 94.1745 6.38281 93.9453 6.30469C93.7214 6.22135 93.4688 6.17969 93.1875 6.17969C92.8438 6.17969 92.5391 6.24479 92.2734 6.375C92.0078 6.5 91.7839 6.70052 91.6016 6.97656C91.4245 7.2526 91.2891 7.61458 91.1953 8.0625C91.1016 8.51042 91.0547 9.05469 91.0547 9.69531V11.9062C91.0547 12.4167 91.0833 12.8672 91.1406 13.2578C91.2031 13.6484 91.2943 13.987 91.4141 14.2734C91.5339 14.5547 91.6797 14.7865 91.8516 14.9688C92.0234 15.151 92.2214 15.2865 92.4453 15.375C92.6745 15.4583 92.9271 15.5 93.2031 15.5C93.5573 15.5 93.8672 15.4323 94.1328 15.2969C94.3984 15.1615 94.6198 14.9505 94.7969 14.6641C94.9792 14.3724 95.1146 14 95.2031 13.5469C95.2917 13.0885 95.3359 12.5417 95.3359 11.9062Z" fill="#191D22"/>
<path d="M82.4766 11.1172L81.3203 10.8203L81.8906 5.15625H87.7266V6.49219H83.1172L82.7734 9.58594C82.9818 9.46615 83.2448 9.35417 83.5625 9.25C83.8854 9.14583 84.2552 9.09375 84.6719 9.09375C85.1979 9.09375 85.6693 9.1849 86.0859 9.36719C86.5026 9.54427 86.8568 9.79948 87.1484 10.1328C87.4453 10.4661 87.6719 10.8672 87.8281 11.3359C87.9844 11.8047 88.0625 12.3281 88.0625 12.9062C88.0625 13.4531 87.987 13.9557 87.8359 14.4141C87.6901 14.8724 87.4688 15.2734 87.1719 15.6172C86.875 15.9557 86.5 16.2188 86.0469 16.4062C85.599 16.5938 85.0703 16.6875 84.4609 16.6875C84.0026 16.6875 83.5677 16.625 83.1562 16.5C82.75 16.3698 82.3854 16.1745 82.0625 15.9141C81.7448 15.6484 81.4844 15.3203 81.2812 14.9297C81.0833 14.5339 80.9583 14.0703 80.9062 13.5391H82.2812C82.3438 13.9661 82.4688 14.3255 82.6562 14.6172C82.8438 14.9089 83.0885 15.1302 83.3906 15.2812C83.6979 15.4271 84.0547 15.5 84.4609 15.5C84.8047 15.5 85.1094 15.4401 85.375 15.3203C85.6406 15.2005 85.8646 15.0286 86.0469 14.8047C86.2292 14.5807 86.3672 14.3099 86.4609 13.9922C86.5599 13.6745 86.6094 13.3177 86.6094 12.9219C86.6094 12.5625 86.5599 12.2292 86.4609 11.9219C86.362 11.6146 86.2135 11.3464 86.0156 11.1172C85.8229 10.888 85.5859 10.7109 85.3047 10.5859C85.0234 10.4557 84.7005 10.3906 84.3359 10.3906C83.8516 10.3906 83.4844 10.4557 83.2344 10.5859C82.9896 10.7161 82.737 10.8932 82.4766 11.1172Z" fill="#191D22"/>
<path d="M76.3984 5.09375V16.5312H74.9531V6.89844L72.0391 7.96094V6.65625L76.1719 5.09375H76.3984Z" fill="#191D22"/>
<path d="M70.3359 12.7031V13.8906H62.1172V13.0391L67.2109 5.15625H68.3906L67.125 7.4375L63.7578 12.7031H70.3359ZM68.75 5.15625V16.5312H67.3047V5.15625H68.75Z" fill="#191D22"/>
<path d="M58.6094 15.7656C58.6094 15.5208 58.6849 15.3151 58.8359 15.1484C58.9922 14.9766 59.2161 14.8906 59.5078 14.8906C59.7995 14.8906 60.0208 14.9766 60.1719 15.1484C60.3281 15.3151 60.4062 15.5208 60.4062 15.7656C60.4062 16.0052 60.3281 16.2083 60.1719 16.375C60.0208 16.5417 59.7995 16.625 59.5078 16.625C59.2161 16.625 58.9922 16.5417 58.8359 16.375C58.6849 16.2083 58.6094 16.0052 58.6094 15.7656Z" fill="#191D22"/>
<path d="M51.5391 10.1328H52.5703C53.0755 10.1328 53.4922 10.0495 53.8203 9.88281C54.1536 9.71094 54.401 9.47917 54.5625 9.1875C54.7292 8.89062 54.8125 8.55729 54.8125 8.1875C54.8125 7.75 54.7396 7.38281 54.5938 7.08594C54.4479 6.78906 54.2292 6.5651 53.9375 6.41406C53.6458 6.26302 53.276 6.1875 52.8281 6.1875C52.4219 6.1875 52.0625 6.26823 51.75 6.42969C51.4427 6.58594 51.2005 6.8099 51.0234 7.10156C50.8516 7.39323 50.7656 7.73698 50.7656 8.13281H49.3203C49.3203 7.55469 49.4661 7.02865 49.7578 6.55469C50.0495 6.08073 50.4583 5.70312 50.9844 5.42188C51.5156 5.14062 52.1302 5 52.8281 5C53.5156 5 54.1172 5.1224 54.6328 5.36719C55.1484 5.60677 55.5495 5.96615 55.8359 6.44531C56.1224 6.91927 56.2656 7.51042 56.2656 8.21875C56.2656 8.50521 56.1979 8.8125 56.0625 9.14062C55.9323 9.46354 55.7266 9.76562 55.4453 10.0469C55.1693 10.3281 54.8099 10.5599 54.3672 10.7422C53.9245 10.9193 53.3932 11.0078 52.7734 11.0078H51.5391V10.1328ZM51.5391 11.3203V10.4531H52.7734C53.4974 10.4531 54.0964 10.5391 54.5703 10.7109C55.0443 10.8828 55.4167 11.112 55.6875 11.3984C55.9635 11.6849 56.1562 12 56.2656 12.3438C56.3802 12.6823 56.4375 13.0208 56.4375 13.3594C56.4375 13.8906 56.3464 14.362 56.1641 14.7734C55.987 15.1849 55.7344 15.5339 55.4062 15.8203C55.0833 16.1068 54.7031 16.3229 54.2656 16.4688C53.8281 16.6146 53.3516 16.6875 52.8359 16.6875C52.3411 16.6875 51.875 16.6172 51.4375 16.4766C51.0052 16.3359 50.6224 16.1328 50.2891 15.8672C49.9557 15.5964 49.6953 15.2656 49.5078 14.875C49.3203 14.4792 49.2266 14.0286 49.2266 13.5234H50.6719C50.6719 13.9193 50.7578 14.2656 50.9297 14.5625C51.1068 14.8594 51.3568 15.0911 51.6797 15.2578C52.0078 15.4193 52.3932 15.5 52.8359 15.5C53.2786 15.5 53.6589 15.4245 53.9766 15.2734C54.2995 15.1172 54.5469 14.8828 54.7188 14.5703C54.8958 14.2578 54.9844 13.8646 54.9844 13.3906C54.9844 12.9167 54.8854 12.5286 54.6875 12.2266C54.4896 11.9193 54.2083 11.6927 53.8438 11.5469C53.4844 11.3958 53.0599 11.3203 52.5703 11.3203H51.5391Z" fill="#191D22"/>
<path d="M41.8672 15.3203H42.0156C42.849 15.3203 43.526 15.2031 44.0469 14.9688C44.5677 14.7344 44.9688 14.4193 45.25 14.0234C45.5312 13.6276 45.724 13.1823 45.8281 12.6875C45.9323 12.1875 45.9844 11.6745 45.9844 11.1484V9.40625C45.9844 8.89062 45.9245 8.43229 45.8047 8.03125C45.6901 7.63021 45.5286 7.29427 45.3203 7.02344C45.1172 6.7526 44.8854 6.54688 44.625 6.40625C44.3646 6.26562 44.0885 6.19531 43.7969 6.19531C43.4635 6.19531 43.1641 6.26302 42.8984 6.39844C42.638 6.52865 42.4167 6.71354 42.2344 6.95312C42.0573 7.19271 41.9219 7.47396 41.8281 7.79688C41.7344 8.11979 41.6875 8.47135 41.6875 8.85156C41.6875 9.1901 41.7292 9.51823 41.8125 9.83594C41.8958 10.1536 42.0234 10.4401 42.1953 10.6953C42.3672 10.9505 42.5807 11.1536 42.8359 11.3047C43.0964 11.4505 43.401 11.5234 43.75 11.5234C44.0729 11.5234 44.375 11.4609 44.6562 11.3359C44.9427 11.2057 45.1953 11.0312 45.4141 10.8125C45.638 10.5885 45.8151 10.3359 45.9453 10.0547C46.0807 9.77344 46.1589 9.47917 46.1797 9.17188H46.8672C46.8672 9.60417 46.7812 10.0312 46.6094 10.4531C46.4427 10.8698 46.2083 11.25 45.9062 11.5938C45.6042 11.9375 45.25 12.2135 44.8438 12.4219C44.4375 12.625 43.9948 12.7266 43.5156 12.7266C42.9531 12.7266 42.4661 12.6172 42.0547 12.3984C41.6432 12.1797 41.3047 11.888 41.0391 11.5234C40.7786 11.1589 40.5833 10.7526 40.4531 10.3047C40.3281 9.85156 40.2656 9.39323 40.2656 8.92969C40.2656 8.38802 40.3411 7.88021 40.4922 7.40625C40.6432 6.93229 40.8672 6.51562 41.1641 6.15625C41.4609 5.79167 41.8281 5.50781 42.2656 5.30469C42.7083 5.10156 43.2188 5 43.7969 5C44.4479 5 45.0026 5.13021 45.4609 5.39062C45.9193 5.65104 46.2917 6 46.5781 6.4375C46.8698 6.875 47.0833 7.36719 47.2188 7.91406C47.3542 8.46094 47.4219 9.02344 47.4219 9.60156V10.125C47.4219 10.7135 47.3828 11.3125 47.3047 11.9219C47.2318 12.526 47.0885 13.1042 46.875 13.6562C46.6667 14.2083 46.362 14.7031 45.9609 15.1406C45.5599 15.5729 45.0365 15.9167 44.3906 16.1719C43.75 16.4219 42.9583 16.5469 42.0156 16.5469H41.8672V15.3203Z" fill="#191D22"/>
<path d="M36.9766 5.14062H37.1016V6.36719H36.9766C36.2109 6.36719 35.5703 6.49219 35.0547 6.74219C34.5391 6.98698 34.1302 7.31771 33.8281 7.73438C33.526 8.14583 33.3073 8.60938 33.1719 9.125C33.0417 9.64062 32.9766 10.1641 32.9766 10.6953V12.3672C32.9766 12.8724 33.0365 13.3203 33.1562 13.7109C33.276 14.0964 33.4401 14.4219 33.6484 14.6875C33.8568 14.9531 34.0911 15.1536 34.3516 15.2891C34.6172 15.4245 34.8932 15.4922 35.1797 15.4922C35.513 15.4922 35.8099 15.4297 36.0703 15.3047C36.3307 15.1745 36.5495 14.9948 36.7266 14.7656C36.9089 14.5312 37.0469 14.2552 37.1406 13.9375C37.2344 13.6198 37.2812 13.2708 37.2812 12.8906C37.2812 12.5521 37.2396 12.2266 37.1562 11.9141C37.0729 11.5964 36.9453 11.3151 36.7734 11.0703C36.6016 10.8203 36.3854 10.625 36.125 10.4844C35.8698 10.3385 35.5651 10.2656 35.2109 10.2656C34.8099 10.2656 34.4349 10.3646 34.0859 10.5625C33.7422 10.7552 33.4583 11.0104 33.2344 11.3281C33.0156 11.6406 32.8906 11.9818 32.8594 12.3516L32.0938 12.3438C32.1667 11.7604 32.3021 11.263 32.5 10.8516C32.7031 10.4349 32.9531 10.0964 33.25 9.83594C33.5521 9.57031 33.888 9.3776 34.2578 9.25781C34.6328 9.13281 35.0286 9.07031 35.4453 9.07031C36.013 9.07031 36.5026 9.17708 36.9141 9.39062C37.3255 9.60417 37.6641 9.89062 37.9297 10.25C38.1953 10.6042 38.3906 11.0052 38.5156 11.4531C38.6458 11.8958 38.7109 12.3516 38.7109 12.8203C38.7109 13.3568 38.6354 13.8594 38.4844 14.3281C38.3333 14.7969 38.1068 15.2083 37.8047 15.5625C37.5078 15.9167 37.1406 16.1927 36.7031 16.3906C36.2656 16.5885 35.7578 16.6875 35.1797 16.6875C34.5651 16.6875 34.0286 16.5625 33.5703 16.3125C33.112 16.0573 32.7318 15.7188 32.4297 15.2969C32.1276 14.875 31.901 14.4062 31.75 13.8906C31.599 13.375 31.5234 12.8516 31.5234 12.3203V11.6406C31.5234 10.8385 31.6042 10.0521 31.7656 9.28125C31.9271 8.51042 32.2057 7.8125 32.6016 7.1875C33.0026 6.5625 33.5573 6.0651 34.2656 5.69531C34.974 5.32552 35.8776 5.14062 36.9766 5.14062Z" fill="#191D22"/>
<path d="M27.3906 15.7656C27.3906 15.5208 27.4661 15.3151 27.6172 15.1484C27.7734 14.9766 27.9974 14.8906 28.2891 14.8906C28.5807 14.8906 28.8021 14.9766 28.9531 15.1484C29.1094 15.3151 29.1875 15.5208 29.1875 15.7656C29.1875 16.0052 29.1094 16.2083 28.9531 16.375C28.8021 16.5417 28.5807 16.625 28.2891 16.625C27.9974 16.625 27.7734 16.5417 27.6172 16.375C27.4661 16.2083 27.3906 16.0052 27.3906 15.7656Z" fill="#191D22"/>
<path d="M22.9609 5.09375V16.5312H21.5156V6.89844L18.6016 7.96094V6.65625L22.7344 5.09375H22.9609Z" fill="#191D22"/>
<path d="M16.3516 9.9375V11.6719C16.3516 12.6042 16.2682 13.3906 16.1016 14.0312C15.9349 14.6719 15.6953 15.1875 15.3828 15.5781C15.0703 15.9688 14.6927 16.2526 14.25 16.4297C13.8125 16.6016 13.3177 16.6875 12.7656 16.6875C12.3281 16.6875 11.9245 16.6328 11.5547 16.5234C11.1849 16.4141 10.8516 16.2396 10.5547 16C10.263 15.7552 10.013 15.4375 9.80469 15.0469C9.59635 14.6562 9.4375 14.1823 9.32812 13.625C9.21875 13.0677 9.16406 12.4167 9.16406 11.6719V9.9375C9.16406 9.00521 9.2474 8.22396 9.41406 7.59375C9.58594 6.96354 9.82812 6.45833 10.1406 6.07812C10.4531 5.69271 10.8281 5.41667 11.2656 5.25C11.7083 5.08333 12.2031 5 12.75 5C13.1927 5 13.599 5.05469 13.9688 5.16406C14.3438 5.26823 14.6771 5.4375 14.9688 5.67188C15.2604 5.90104 15.5078 6.20833 15.7109 6.59375C15.9193 6.97396 16.0781 7.4401 16.1875 7.99219C16.2969 8.54427 16.3516 9.19271 16.3516 9.9375ZM14.8984 11.9062V9.69531C14.8984 9.1849 14.8672 8.73698 14.8047 8.35156C14.7474 7.96094 14.6615 7.6276 14.5469 7.35156C14.4323 7.07552 14.2865 6.85156 14.1094 6.67969C13.9375 6.50781 13.737 6.38281 13.5078 6.30469C13.2839 6.22135 13.0312 6.17969 12.75 6.17969C12.4062 6.17969 12.1016 6.24479 11.8359 6.375C11.5703 6.5 11.3464 6.70052 11.1641 6.97656C10.987 7.2526 10.8516 7.61458 10.7578 8.0625C10.6641 8.51042 10.6172 9.05469 10.6172 9.69531V11.9062C10.6172 12.4167 10.6458 12.8672 10.7031 13.2578C10.7656 13.6484 10.8568 13.987 10.9766 14.2734C11.0964 14.5547 11.2422 14.7865 11.4141 14.9688C11.5859 15.151 11.7839 15.2865 12.0078 15.375C12.237 15.4583 12.4896 15.5 12.7656 15.5C13.1198 15.5 13.4297 15.4323 13.6953 15.2969C13.9609 15.1615 14.1823 14.9505 14.3594 14.6641C14.5417 14.3724 14.6771 14 14.7656 13.5469C14.8542 13.0885 14.8984 12.5417 14.8984 11.9062Z" fill="#191D22"/>
<path d="M7.66406 15.3438V16.5312H0.21875V15.4922L3.94531 11.3438C4.40365 10.8333 4.75781 10.401 5.00781 10.0469C5.26302 9.6875 5.4401 9.36719 5.53906 9.08594C5.64323 8.79948 5.69531 8.50781 5.69531 8.21094C5.69531 7.83594 5.61719 7.4974 5.46094 7.19531C5.3099 6.88802 5.08594 6.64323 4.78906 6.46094C4.49219 6.27865 4.13281 6.1875 3.71094 6.1875C3.20573 6.1875 2.78385 6.28646 2.44531 6.48438C2.11198 6.67708 1.86198 6.94792 1.69531 7.29688C1.52865 7.64583 1.44531 8.04688 1.44531 8.5H0C0 7.85938 0.140625 7.27344 0.421875 6.74219C0.703125 6.21094 1.11979 5.78906 1.67188 5.47656C2.22396 5.15885 2.90365 5 3.71094 5C4.42969 5 5.04427 5.1276 5.55469 5.38281C6.0651 5.63281 6.45573 5.98698 6.72656 6.44531C7.0026 6.89844 7.14062 7.42969 7.14062 8.03906C7.14062 8.3724 7.08333 8.71094 6.96875 9.05469C6.85938 9.39323 6.70573 9.73177 6.50781 10.0703C6.3151 10.4089 6.08854 10.7422 5.82812 11.0703C5.57292 11.3984 5.29948 11.7214 5.00781 12.0391L1.96094 15.3438H7.66406Z" fill="#191D22"/>
</svg>
