<svg width="200" height="43" viewBox="0 0 200 43" fill="none" xmlns="http://www.w3.org/2000/svg">
<g clip-path="url(#clip0)">
<path d="M80.9203 15.0422L80.7357 16.0112L80.5744 15.0192L77.1366 2.56104H70.9077V19.4026H75.1065V7.77498L74.9913 5.5602L75.5218 7.89034L78.8208 19.4026H82.6045L85.9498 7.86727L86.4573 5.51409L86.3649 7.77498V19.4026H90.5409V2.56104H84.4503L80.9203 15.0422Z" fill="#FAF5EB"/>
<path d="M99.4576 19.633C103.98 19.633 106.54 16.7261 106.54 12.9426C106.54 9.15896 104.118 6.229 99.4576 6.229C94.936 6.229 92.375 9.11281 92.375 12.9656C92.375 16.8645 94.7283 19.633 99.4576 19.633ZM99.4576 16.357C97.4275 16.357 96.6662 15.065 96.6893 12.9426C96.6893 10.8201 97.5427 9.43582 99.4576 9.43582C101.465 9.43582 102.226 10.797 102.226 12.9426C102.226 15.042 101.419 16.357 99.4576 16.357Z" fill="#FAF5EB"/>
<path d="M122.013 12.8502C122.013 8.39761 119.775 6.34433 116.799 6.34433C114.745 6.34433 113.292 7.35942 112.484 9.29736V1.03809H108.309V19.4023H112.461V16.703C113.13 18.3872 114.33 19.5407 116.522 19.5407C119.682 19.5407 122.013 17.1875 122.013 12.8502ZM115.022 16.357C112.992 16.357 112.231 15.065 112.231 12.9425C112.254 10.82 113.084 9.43579 115.022 9.43579C116.983 9.43579 117.791 10.797 117.791 12.9425C117.791 15.0419 116.983 16.357 115.022 16.357Z" fill="#FAF5EB"/>
<path d="M123.383 2.56084C123.383 4.01429 124.306 5.0294 125.967 5.0294C127.536 5.0294 128.505 4.01429 128.505 2.56084C128.505 1.06125 127.559 0 125.967 0C124.306 0 123.383 1.06125 123.383 2.56084ZM123.798 6.48283V19.4024H127.997V6.48283H123.798Z" fill="#FAF5EB"/>
<path d="M130.388 1.03809V19.4023H134.564V1.03809H130.388Z" fill="#FAF5EB"/>
<path d="M146.024 14.6959C145.447 15.9187 144.686 16.4262 143.325 16.4262C141.548 16.4262 140.51 15.5034 140.302 13.8192H149.946V12.5734C149.946 9.25125 147.892 6.229 143.325 6.229C138.872 6.229 136.311 9.29739 136.311 13.0579C136.311 16.8415 138.572 19.633 143.255 19.633C146.554 19.633 148.538 18.1565 149.623 16.034L146.024 14.6959ZM143.232 9.27432C144.986 9.27432 145.793 10.2894 145.885 11.7659H140.348C140.625 10.1741 141.64 9.27432 143.232 9.27432Z" fill="#FAF5EB"/>
<path d="M75.1539 28.614V41.7872H79.4682V28.614H84.4516V24.9458H70.1938V28.614H75.1539Z" fill="#FAF5EB"/>
<path d="M92.9652 37.0811C92.3882 38.3039 91.6269 38.8114 90.2657 38.8114C88.4893 38.8114 87.4512 37.8885 87.2435 36.2046H96.8872V34.9586C96.8872 31.6366 94.8337 28.6143 90.2657 28.6143C85.8131 28.6143 83.2524 31.6827 83.2524 35.443C83.2524 39.2268 85.5133 42.0182 90.1965 42.0182C93.4958 42.0182 95.4798 40.5417 96.564 38.4194L92.9652 37.0811ZM90.1735 31.6596C91.9268 31.6596 92.7345 32.6747 92.8266 34.1512H87.2896C87.5664 32.5595 88.5818 31.6596 90.1735 31.6596Z" fill="#FAF5EB"/>
<path d="M100.998 41.7875L103.674 38.0502L106.351 41.7875H111.034L106.166 35.2358L110.826 28.8682H106.097L103.721 32.3055L101.298 28.8682H96.5458L101.206 35.1664L96.2456 41.7875H100.998Z" fill="#FAF5EB"/>
<path d="M120.853 38.2806C120.322 38.4882 119.907 38.6498 119.261 38.6498C118.177 38.6498 117.646 38.1654 117.646 36.8732V32.1208H120.853V28.8678H117.646V23.8384L113.793 25.684V28.8678H110.979V32.1208H113.747V37.5193C113.747 38.9727 114.047 40.1033 114.67 40.8646C115.293 41.6259 116.446 42.0179 118.084 42.0179C119.215 42.0179 120.184 41.718 120.853 41.326V38.2806Z" fill="#FAF5EB"/>
<path d="M131.059 41.7872L132.074 38.8573H138.58L139.595 41.7872H144.047L137.703 24.9458H132.927L126.606 41.7872H131.059ZM135.281 29.1677L135.627 30.4828L137.541 35.9043H133.089L134.958 30.4828L135.281 29.1677Z" fill="#FAF5EB"/>
<path d="M145.146 23.4233V41.7874H149.323V23.4233H145.146Z" fill="#FAF5EB"/>
<path d="M160.781 37.0811C160.204 38.3039 159.443 38.8114 158.082 38.8114C156.306 38.8114 155.267 37.8885 155.06 36.2046H164.703V34.9586C164.703 31.6366 162.65 28.6143 158.082 28.6143C153.629 28.6143 151.068 31.6827 151.068 35.443C151.068 39.2268 153.329 42.0182 158.013 42.0182C161.312 42.0182 163.296 40.5417 164.38 38.4194L160.781 37.0811ZM157.99 31.6596C159.743 31.6596 160.55 32.6747 160.643 34.1512H155.106C155.383 32.5595 156.398 31.6596 157.99 31.6596Z" fill="#FAF5EB"/>
<path d="M174.052 28.6836C172.044 28.6836 171.052 29.8371 170.522 32.4441V28.8682H166.369V41.7876H170.545V35.6508C170.545 33.5286 171.652 32.4441 173.013 32.4441C173.844 32.4441 174.444 32.6057 175.021 32.8825L176.036 29.0296C175.551 28.822 174.882 28.6836 174.052 28.6836Z" fill="#FAF5EB"/>
<path d="M186.778 38.2806C186.247 38.4882 185.832 38.6498 185.186 38.6498C184.102 38.6498 183.571 38.1654 183.571 36.8732V32.1208H186.778V28.8678H183.571V23.8384L179.718 25.684V28.8678H176.904V32.1208H179.672V37.5193C179.672 38.9727 179.972 40.1033 180.595 40.8646C181.218 41.6259 182.371 42.0179 184.009 42.0179C185.14 42.0179 186.109 41.718 186.778 41.326V38.2806Z" fill="#FAF5EB"/>
<path d="M187.542 39.5956C188.995 41.1415 191.164 42.0644 194.324 42.0644C196.008 42.0644 197.3 41.6721 198.223 40.8878C199.146 40.0801 199.607 39.065 199.607 37.8423C199.607 36.6426 199.169 35.7892 198.269 35.2586C197.393 34.7277 196.239 34.3357 194.786 34.128C192.548 33.7821 191.533 33.6435 191.533 32.8822C191.533 32.3053 191.971 31.8208 193.286 31.8208C194.855 31.8208 196.216 32.4208 197.162 33.6205L200 31.0826C198.338 29.2601 196.17 28.5449 193.494 28.5449C189.941 28.5449 188.072 30.4598 188.072 32.7437C188.072 33.8743 188.441 34.7047 189.203 35.2356C189.964 35.7661 190.979 36.112 192.248 36.3197C194.739 36.712 196.055 36.8042 196.055 37.6346C196.055 38.2577 195.57 38.7652 194.278 38.7652C192.778 38.7652 191.44 38.1885 190.356 36.9658L187.542 39.5956Z" fill="#FAF5EB"/>
<path d="M19.3795 21.2932C19.3795 14.6327 23.2935 8.89079 28.9464 6.23027C27.4103 5.5083 25.7451 5.01368 23.994 4.79248C18.9064 8.50677 15.5977 14.5129 15.5977 21.2932C15.5977 28.0736 18.9064 34.0797 23.9909 37.794C25.742 37.5697 27.4072 37.0782 28.9433 36.3562C23.2935 33.6957 19.3795 27.9538 19.3795 21.2932Z" fill="#FF8C68"/>
<path d="M36.7435 0.869629H36.0215C33.533 0.869629 31.149 1.3151 28.9463 2.12923C30.7281 2.78668 32.3902 3.68991 33.8986 4.78976C34.5929 4.70066 35.3026 4.65151 36.0215 4.65151H36.7435C46.3349 4.65151 54.1075 12.4242 54.1075 22.0156V37.9326H36.0215C35.3026 37.9326 34.5929 37.8804 33.8986 37.7943C32.3902 38.8942 30.7281 39.7974 28.9463 40.4549C31.1521 41.269 33.533 41.7145 36.0215 41.7145H57.8894V22.0156C57.8894 10.3381 48.4209 0.869629 36.7435 0.869629Z" fill="#FF8C68"/>
<path d="M21.8679 37.9357H3.78187V22.0156C3.78187 12.4242 11.5545 4.65151 21.1459 4.65151H21.8679C22.5868 4.65151 23.2965 4.70374 23.9908 4.78976C25.4992 3.68991 27.1644 2.78975 28.9462 2.12923C26.7404 1.3151 24.3594 0.869629 21.871 0.869629H21.149C9.46851 0.869629 0 10.3381 0 22.0156V41.7145H21.8679C24.3564 41.7145 26.7404 41.269 28.9432 40.4549C27.1613 39.7974 25.4992 38.8942 23.9908 37.7943C23.2965 37.8834 22.5899 37.9357 21.8679 37.9357Z" fill="#4B94D8"/>
<path d="M38.5112 21.2932C38.5112 27.9538 34.5972 33.6957 28.9443 36.3562C30.4804 37.0782 32.1456 37.5728 33.8967 37.794C38.9843 34.0797 42.29 28.0736 42.29 21.2932C42.29 14.5129 38.9812 8.50677 33.8967 4.79248C32.1456 5.01675 30.4804 5.5083 28.9443 6.23027C34.5972 8.89079 38.5112 14.6327 38.5112 21.2932Z" fill="#4B94D8"/>
<path d="M28.9467 6.23064C30.4828 5.50867 32.148 5.01405 33.8991 4.79285C32.3907 3.693 30.7286 2.78977 28.9467 2.13232C27.1648 2.78977 25.4997 3.68993 23.9912 4.79285C25.7424 5.01405 27.4075 5.50867 28.9467 6.23064Z" fill="#FFCFE8"/>
<path d="M28.9465 36.3564C27.4104 37.0784 25.7453 37.573 23.9941 37.7942C25.5026 38.8941 27.1646 39.7973 28.9465 40.4548C30.7284 39.7973 32.3904 38.8941 33.8989 37.7942C32.1477 37.573 30.4826 37.0784 28.9465 36.3564Z" fill="#FFCFE8"/>
</g>
<defs>
<clipPath id="clip0">
<rect width="200" height="42.0891" fill="white"/>
</clipPath>
</defs>
</svg>
