<?xml version="1.0" standalone="no"?>
<!DOCTYPE svg PUBLIC "-//W3C//DTD SVG 20010904//EN"
 "http://www.w3.org/TR/2001/REC-SVG-20010904/DTD/svg10.dtd">
<svg version="1.0" xmlns="http://www.w3.org/2000/svg"
 width="300.000000pt" height="300.000000pt" viewBox="0 0 300.000000 300.000000"
 preserveAspectRatio="xMidYMid meet">
<metadata>
Created by potrace 1.11, written by Peter Selinger 2001-2013
</metadata>
<g transform="translate(0.000000,300.000000) scale(0.100000,-0.100000)"
fill="#000000" stroke="none">
<path d="M1359 2966 c-2 -2 -26 -6 -54 -9 -252 -28 -514 -141 -735 -315 -69
-55 -188 -179 -245 -257 -192 -262 -281 -515 -292 -835 -5 -140 -2 -184 16
-289 73 -426 314 -784 687 -1019 147 -93 319 -156 539 -197 63 -12 335 -18
335 -7 0 5 -10 8 -22 6 -13 -3 31 15 97 39 66 23 165 66 220 94 76 39 114 53
157 56 40 4 55 2 52 -7 -4 -10 -55 -51 -112 -89 -30 -19 -125 -49 -217 -67
-33 -7 -67 -14 -75 -15 -8 -2 -32 -4 -52 -4 -21 -1 -38 -5 -38 -10 0 -18 168
11 320 55 47 14 139 52 205 84 423 205 727 609 803 1066 23 138 29 339 10 362
-9 11 -9 14 -1 8 14 -8 11 26 -13 157 -83 459 -395 860 -824 1061 -192 89
-361 127 -591 133 -91 2 -167 2 -170 -1z m455 -42 c68 -17 69 -18 47 -33 -65
-42 -182 -134 -177 -138 2 -3 40 22 83 54 117 88 130 95 164 88 36 -8 36 -19
-1 -75 -16 -24 -28 -45 -27 -46 1 -1 29 -5 62 -8 106 -11 117 -15 109 -39 -12
-40 -44 -97 -55 -97 -5 0 -23 7 -39 15 -95 49 -360 121 -456 125 -8 0 -10 20
-8 58 5 78 20 110 52 114 58 8 180 -1 246 -18z m-204 -180 l44 -6 -24 -20
c-82 -65 -160 -137 -273 -252 -71 -72 -127 -126 -126 -121 4 24 -2 37 -16 31
-8 -3 -14 0 -12 7 1 7 -4 11 -11 9 -8 -1 -11 2 -8 7 4 5 -7 24 -23 40 -27 28
-33 30 -56 19 -14 -6 -25 -17 -25 -24 0 -7 -4 -16 -10 -19 -6 -3 -7 1 -4 10 5
11 -9 7 -45 -14 -51 -30 -53 -31 -124 -20 -40 5 -106 12 -147 16 -41 3 -77 7
-78 8 -8 8 101 78 198 129 193 100 409 164 571 169 66 2 74 6 70 35 -2 10 6
12 26 8 15 -2 48 -8 73 -12z m638 -45 c24 -10 56 -27 71 -39 42 -29 46 -25 12
13 -76 80 -8 41 123 -72 94 -80 156 -149 237 -261 58 -81 67 -111 85 -275 3
-27 7 -62 9 -77 2 -16 2 -28 0 -28 -2 0 -19 21 -36 48 -76 111 -199 249 -306
342 l-51 45 -4 127 c-2 70 -7 130 -11 134 -4 4 -5 -50 -3 -120 2 -69 3 -126 1
-126 -2 0 -41 27 -87 60 -46 32 -120 80 -165 105 -83 47 -83 47 -69 73 8 15
21 44 29 64 l16 37 53 -15 c29 -9 72 -24 96 -35z m-501 16 c102 -26 273 -93
273 -107 0 -4 -11 -31 -24 -60 -43 -95 -64 -142 -79 -180 -9 -21 -21 -38 -27
-38 -19 0 -54 21 -72 44 -17 21 -17 21 -35 2 -10 -10 -13 -16 -8 -13 6 3 17 1
25 -4 13 -9 13 -10 0 -8 -8 1 -20 1 -26 0 -14 -1 -47 -50 -47 -68 0 -6 -5 -11
-11 -10 -5 1 -12 -7 -14 -18 -4 -18 -3 -18 14 -5 17 14 18 14 6 -2 -8 -10 -20
-14 -29 -11 -9 4 -14 2 -11 -3 3 -5 -3 -16 -12 -25 -16 -15 -22 -14 -74 7 -31
13 -109 39 -174 59 -143 44 -162 52 -162 64 0 29 385 391 416 391 7 0 39 -7
71 -15z m473 -214 c30 -19 78 -52 106 -73 l50 -38 -2 -57 c-1 -32 -2 -62 -3
-66 -1 -5 -29 28 -62 74 -34 45 -98 118 -143 163 -86 84 -82 84 54 -3z m-226
-23 c-4 -13 -9 -25 -9 -28 -27 -101 -40 -130 -57 -130 -22 0 -22 -1 -4 36 8
16 26 57 41 92 27 59 46 80 29 30z m-825 -82 c-3 -3 -11 5 -18 17 -13 21 -12
21 5 5 10 -10 16 -20 13 -22z m-428 0 c147 -11 209 -22 209 -38 0 -6 -3 -8 -6
-5 -8 8 -64 -31 -64 -44 0 -6 5 -7 11 -3 8 5 8 1 0 -13 -7 -14 -7 -24 2 -33
10 -12 9 -12 -5 -1 -9 7 -15 18 -12 26 9 22 -15 27 -28 5 -7 -11 -17 -20 -21
-20 -5 0 -33 -24 -63 -54 -36 -35 -51 -56 -42 -59 10 -4 10 -6 -1 -6 -26 -2
-152 152 -150 183 0 14 79 77 88 72 3 -2 40 -7 82 -10z m299 10 c0 -2 -8 -10
-17 -17 -16 -13 -17 -12 -4 4 13 16 21 21 21 13z m67 -13 c0 -9 -4 -10 -14 -2
-7 6 -13 12 -13 14 0 1 6 2 13 2 8 0 14 -6 14 -14z m-22 -21 c-3 -3 -11 0 -18
7 -9 10 -8 11 6 5 10 -3 15 -9 12 -12z m1421 -100 c97 -95 204 -224 258 -310
27 -43 27 -46 25 -187 -1 -79 -6 -170 -10 -202 -4 -32 -13 -96 -20 -141 l-11
-84 -32 38 c-17 21 -36 45 -43 53 -6 9 -14 13 -17 10 -3 -3 14 -29 39 -58 25
-29 45 -55 45 -58 0 -34 -72 -264 -103 -327 l-22 -44 -175 85 c-96 46 -204 98
-240 115 -79 37 -74 32 -61 57 11 19 20 20 169 18 160 -1 301 8 315 22 4 4 9
18 12 30 6 34 7 202 1 231 -3 14 -8 47 -11 73 -18 159 -109 414 -207 583 -22
38 -33 71 -32 92 1 17 2 48 3 67 0 19 5 35 10 35 5 0 53 -44 107 -98z m-1559
53 c0 -8 -3 -13 -5 -10 -3 3 -10 0 -17 -5 -8 -7 -12 -5 -12 5 0 8 4 12 8 9 4
-2 10 0 14 6 9 14 12 13 12 -5z m49 -7 c12 -14 13 -18 3 -10 -9 6 -18 10 -21
7 -2 -3 -5 2 -5 10 0 19 0 19 23 -7z m87 -6 c15 -16 15 -19 2 -19 -8 0 -13 3
-10 5 3 3 0 11 -6 19 -17 20 -5 16 14 -5z m87 -17 c0 -5 -5 -3 -10 5 -5 8 -10
20 -10 25 0 6 5 3 10 -5 5 -8 10 -19 10 -25z m617 18 c0 -9 -4 -10 -14 -2 -7
6 -13 12 -13 14 0 1 6 2 13 2 8 0 14 -6 14 -14z m80 0 c0 -9 -4 -10 -14 -2 -7
6 -13 12 -13 14 0 1 6 2 13 2 8 0 14 -6 14 -14z m-811 -15 c3 -4 -1 -5 -10 -4
-8 1 -18 5 -22 8 -3 4 1 5 10 4 8 -1 18 -5 22 -8z m788 4 c3 -5 -1 -9 -9 -9
-8 0 -12 4 -9 9 3 4 7 8 9 8 2 0 6 -4 9 -8z m-898 -22 c0 -12 -4 -16 -9 -11
-5 5 -6 14 -3 20 10 15 12 14 12 -9z m38 -10 c-6 -6 -10 -3 -10 10 0 13 4 16
10 10 7 -7 7 -13 0 -20z m167 13 c13 -16 12 -17 -3 -4 -10 7 -18 15 -18 17 0
8 8 3 21 -13z m96 2 c0 -8 -4 -12 -9 -9 -5 3 -6 10 -3 15 9 13 12 11 12 -6z
m243 -45 c63 -23 123 -44 132 -47 9 -3 19 -12 22 -20 3 -8 1 -11 -4 -8 -6 3
-10 1 -10 -5 0 -6 -7 -18 -15 -27 -8 -8 -12 -19 -9 -25 4 -6 2 -8 -4 -4 -5 3
-12 1 -14 -6 -3 -9 -8 -9 -19 0 -32 29 -123 81 -131 76 -5 -3 -7 0 -6 6 2 7
-5 17 -16 23 -10 7 -32 24 -48 40 -17 15 -34 27 -38 27 -4 0 -10 6 -13 14 -7
17 13 12 173 -44z m275 42 c-3 -3 -1 -10 5 -16 6 -8 3 -12 -8 -12 -10 0 -18 8
-18 16 0 9 6 17 13 17 7 0 11 -3 8 -5z m96 -15 c-10 -9 -11 -8 -5 6 3 10 9 15
12 12 3 -3 0 -11 -7 -18z m-830 -10 c-10 -9 -11 -8 -5 6 3 10 9 15 12 12 3 -3
0 -11 -7 -18z m-187 -26 c-2 -3 -12 3 -22 13 -16 17 -16 18 5 5 12 -7 20 -15
17 -18z m98 14 c2 3 5 -2 5 -10 0 -19 0 -19 -23 7 -12 14 -13 18 -3 10 9 -6
18 -10 21 -7z m68 12 c0 -2 -8 -11 -18 -20 -15 -14 -19 -15 -19 -2 0 8 4 12 8
9 4 -2 10 0 14 6 6 10 15 14 15 7z m90 -12 c-7 -8 -17 -15 -23 -15 -6 0 -2 7
9 15 25 19 30 19 14 0z m81 -18 c-10 -9 -11 -8 -5 6 3 10 9 15 12 12 3 -3 0
-11 -7 -18z m62 5 c15 -16 15 -19 2 -19 -8 0 -13 3 -10 5 3 3 0 11 -6 19 -17
20 -5 16 14 -5z m84 -6 c18 -21 18 -21 -3 -3 -11 9 -23 14 -26 11 -3 -3 -8 -1
-12 4 -11 18 25 8 41 -12z m-437 10 c0 -2 -8 -10 -17 -17 -16 -13 -17 -12 -4
4 13 16 21 21 21 13z m161 -13 c13 -16 12 -17 -3 -4 -10 7 -18 15 -18 17 0 8
8 3 21 -13z m314 -11 c-1 -9 2 -24 8 -32 9 -12 9 -13 -3 -2 -15 13 -23 65 -9
57 4 -3 6 -13 4 -23z m526 5 c-6 -8 -8 -17 -4 -20 3 -4 1 -7 -5 -7 -15 0 -15
13 0 28 16 16 23 15 9 -1z m-863 -22 c-3 -3 -9 2 -12 12 -6 14 -5 15 5 6 7 -7
10 -15 7 -18z m283 8 c13 -16 12 -17 -3 -4 -10 7 -18 15 -18 17 0 8 8 3 21
-13z m-501 -18 c14 -19 14 -19 -2 -6 -10 7 -18 18 -18 24 0 6 1 8 3 6 1 -2 9
-13 17 -24z m395 15 c3 -5 1 -10 -4 -10 -6 0 -11 5 -11 10 0 6 2 10 4 10 3 0
8 -4 11 -10z m1684 -260 c32 -101 49 -184 57 -265 l5 -50 -29 65 c-45 102 -64
142 -93 190 -21 34 -29 64 -34 122 -3 43 -10 104 -15 135 -6 32 -10 63 -9 68
2 23 91 -177 118 -265z m-1998 243 c13 -16 12 -17 -3 -5 -9 8 -23 10 -29 6 -8
-4 -9 -3 -5 4 10 17 21 15 37 -5z m120 0 c13 -16 12 -17 -3 -4 -10 7 -18 15
-18 17 0 8 8 3 21 -13z m76 2 c0 -8 -10 -23 -21 -32 -21 -18 -21 -18 -2 5 11
12 16 22 12 22 -4 0 -4 5 -1 10 9 14 12 13 12 -5z m-323 -4 c3 -5 -2 -15 -12
-22 -15 -12 -16 -12 -5 2 7 9 10 19 6 22 -3 4 -4 7 0 7 3 0 8 -4 11 -9z m296
5 c0 -2 -8 -10 -17 -17 -16 -13 -17 -12 -4 4 13 16 21 21 21 13z m749 -30 c-3
-3 -11 5 -18 17 -13 21 -12 21 5 5 10 -10 16 -20 13 -22z m-867 9 c2 3 5 -2 5
-10 0 -19 0 -19 -23 7 -12 14 -13 18 -3 10 9 -6 18 -10 21 -7z m47 2 c8 -10 7
-14 -2 -14 -8 0 -14 6 -14 14 0 7 1 13 2 13 2 0 8 -6 14 -13z m271 -2 c-7 -8
-17 -15 -23 -15 -6 0 -2 7 9 15 25 19 30 19 14 0z m72 -8 c-7 -8 -10 -16 -7
-19 3 -2 -1 -5 -9 -5 -12 0 -11 5 2 23 9 12 19 20 21 18 2 -2 -1 -10 -7 -17z
m535 -4 c1 -22 -1 -24 -8 -10 -6 9 -7 22 -4 27 9 14 10 13 12 -17z m-1016 4
c-6 -8 -9 -16 -6 -19 3 -2 -2 -5 -10 -5 -13 0 -13 3 2 19 19 21 31 25 14 5z
m33 4 c3 -5 -2 -15 -12 -22 -15 -12 -16 -12 -5 2 7 9 10 19 6 22 -3 4 -4 7 0
7 3 0 8 -4 11 -9z m407 -4 c-6 -8 -7 -18 -3 -22 4 -5 1 -5 -6 -1 -10 6 -10 11
-1 22 6 8 14 14 16 14 3 0 0 -6 -6 -13z m479 3 c0 -5 -2 -10 -4 -10 -3 0 -8 5
-11 10 -3 6 -1 10 4 10 6 0 11 -4 11 -10z m-965 -28 c-3 -3 -11 0 -18 7 -9 10
-8 11 6 5 10 -3 15 -9 12 -12z m208 -2 c-3 -12 -8 -19 -11 -16 -5 6 5 36 12
36 2 0 2 -9 -1 -20z m154 5 c0 -8 -4 -12 -9 -9 -4 3 -8 9 -8 15 0 5 4 9 8 9 5
0 9 -7 9 -15z m208 6 c-9 -8 -36 -10 -30 -2 2 4 11 8 20 8 8 0 13 -3 10 -6z
m331 -3 c4 -7 3 -8 -4 -4 -7 4 -12 2 -12 -4 0 -6 -5 -8 -11 -4 -8 4 -7 9 2 15
18 11 17 11 25 -3z m-800 -13 c-1 -8 -5 -17 -8 -21 -5 -4 -4 16 1 34 3 9 9 -1
7 -13z m78 -15 c-6 -6 -10 -3 -10 10 0 13 4 16 10 10 7 -7 7 -13 0 -20z m287
13 c13 -16 12 -17 -3 -4 -17 13 -22 21 -14 21 2 0 10 -8 17 -17z m155 -3 c0
-12 -4 -16 -9 -11 -5 5 -6 14 -3 20 10 15 12 14 12 -9z m-366 5 c0 -1 -10 -10
-22 -21 -14 -12 -18 -13 -10 -3 6 9 10 18 7 21 -3 2 2 5 10 5 8 0 15 -1 15 -2z
m436 -15 c0 -12 -4 -16 -9 -11 -5 5 -6 14 -3 20 10 15 12 14 12 -9z m-245 -7
c13 -16 12 -17 -3 -4 -17 13 -22 21 -14 21 2 0 10 -8 17 -17z m-391 2 c0 -2
-6 -8 -13 -14 -10 -8 -14 -7 -14 2 0 8 6 14 14 14 7 0 13 -1 13 -2z m259 -9
c10 -12 8 -17 -11 -26 -20 -10 -21 -10 -6 3 13 10 15 16 6 25 -7 7 -9 12 -6
12 3 0 11 -6 17 -14z m414 -3 c-4 -10 -2 -14 4 -10 13 8 11 -18 -1 -30 -4 -4
-6 -1 -4 7 2 8 -3 14 -9 13 -15 -3 -13 18 2 29 14 11 15 10 8 -9z m114 0 c0
-9 -4 -10 -14 -2 -7 6 -13 12 -13 14 0 1 6 2 13 2 8 0 14 -6 14 -14z m50 2 c5
-4 2 -5 -6 0 -10 6 -13 4 -9 -7 4 -8 1 -15 -6 -15 -6 0 -12 8 -12 17 0 18 19
21 33 5z m-607 1 c0 -2 -8 -10 -17 -17 -16 -13 -17 -12 -4 4 13 16 21 21 21
13z m139 -10 c9 -10 8 -15 -2 -19 -8 -3 -13 3 -13 14 0 23 0 23 15 5z m109 5
c16 12 16 12 0 -6 -18 -19 -18 -19 -35 0 -17 18 -17 18 0 6 14 -11 20 -11 35
0z m67 -1 c4 -6 10 -8 14 -6 4 3 8 -1 8 -9 0 -12 -4 -12 -21 2 -12 10 -23 19
-25 20 -2 2 1 3 7 3 6 0 14 -5 17 -10z m337 -5 c2 3 5 -2 5 -10 0 -19 0 -19
-23 7 -12 14 -13 18 -3 10 9 -6 18 -10 21 -7z m-923 -9 c9 -11 9 -16 -1 -22
-7 -4 -10 -4 -6 1 4 4 3 14 -3 22 -6 7 -9 13 -6 13 2 0 10 -6 16 -14z m61 10
c0 -2 -8 -10 -17 -17 -16 -13 -17 -12 -4 4 13 16 21 21 21 13z m50 -21 c14
-19 14 -19 -2 -6 -10 7 -18 18 -18 24 0 6 1 8 3 6 1 -2 9 -13 17 -24z m550 20
c0 -2 -6 -8 -13 -14 -10 -8 -14 -7 -14 2 0 8 6 14 14 14 7 0 13 -1 13 -2z
m-513 -37 c4 -28 -6 -18 -12 12 -2 12 -1 20 2 16 4 -4 8 -16 10 -28z m403 28
c0 -2 -8 -10 -17 -17 -16 -13 -17 -12 -4 4 13 16 21 21 21 13z m-239 -19 c-6
-8 -9 -16 -6 -18 2 -3 -6 -5 -20 -5 -13 0 -21 4 -19 8 3 5 9 6 14 3 4 -3 13 2
20 10 7 8 15 15 17 15 3 0 0 -6 -6 -13z m129 9 c0 -2 -8 -10 -17 -17 -16 -13
-17 -12 -4 4 13 16 21 21 21 13z m35 -6 c3 -6 -1 -7 -9 -4 -18 7 -21 14 -7 14
6 0 13 -4 16 -10z m196 -3 c-6 -8 -7 -18 -3 -22 4 -5 1 -5 -6 -1 -10 6 -10 11
-1 22 6 8 14 14 16 14 3 0 0 -6 -6 -13z m-580 -14 c13 -16 12 -17 -3 -4 -10 7
-18 15 -18 17 0 8 8 3 21 -13z m155 -3 c0 -12 -4 -16 -9 -11 -5 5 -6 14 -3 20
10 15 12 14 12 -9z m120 5 c-1 -8 -5 -17 -8 -21 -5 -4 -4 16 1 34 3 9 9 -1 7
-13z m222 -10 c-3 -3 -9 2 -12 12 -6 14 -5 15 5 6 7 -7 10 -15 7 -18z m355 10
c-3 -9 -8 -14 -10 -11 -3 3 -2 9 2 15 9 16 15 13 8 -4z m-883 -1 c0 -8 -19
-13 -24 -6 -3 5 1 9 9 9 8 0 15 -2 15 -3z m400 2 c0 -2 -8 -10 -17 -17 -16
-13 -17 -12 -4 4 13 16 21 21 21 13z m105 -5 c3 -5 2 -12 -3 -15 -5 -3 -9 1
-9 9 0 17 3 19 12 6z m79 -7 c3 -9 2 -12 -5 -9 -5 4 -18 1 -27 -6 -13 -11 -12
-8 2 9 23 26 22 26 30 6z m66 -8 c0 -2 -7 -7 -16 -10 -8 -3 -12 -2 -9 4 6 10
25 14 25 6z m124 -4 c3 -5 -1 -9 -9 -9 -8 0 -12 4 -9 9 3 4 7 8 9 8 2 0 6 -4
9 -8z m46 4 c0 -2 -8 -10 -17 -17 -16 -13 -17 -12 -4 4 13 16 21 21 21 13z
m-713 -20 c0 -8 -5 -14 -11 -13 -6 1 -9 -5 -8 -13 2 -8 0 -11 -4 -7 -11 11
-14 38 -4 32 5 -3 11 -1 15 5 8 14 12 13 12 -4z m120 -1 c0 -8 -3 -13 -5 -10
-3 3 -12 -1 -21 -7 -10 -8 -9 -4 3 10 23 26 23 26 23 7z m240 0 c0 -8 -4 -12
-8 -9 -4 2 -10 0 -14 -6 -3 -5 -11 -10 -17 -10 -7 0 26 35 38 40 0 0 1 -7 1
-15z m63 12 c0 -2 -8 -11 -18 -20 -15 -14 -19 -15 -19 -2 0 8 4 12 8 9 4 -2
10 0 14 6 6 10 15 14 15 7z m-146 -23 c3 -8 2 -12 -4 -9 -6 3 -10 10 -10 16 0
14 7 11 14 -7z m183 9 c-4 -3 -1 -13 6 -22 11 -14 10 -14 -5 -2 -16 12 -16 31
-1 31 4 0 3 -3 0 -7z m32 -7 c9 -11 9 -16 -1 -22 -7 -4 -10 -4 -6 1 4 4 3 14
-3 22 -6 7 -9 13 -6 13 2 0 10 -6 16 -14z m241 10 c0 -2 -8 -10 -17 -17 -16
-13 -17 -12 -4 4 13 16 21 21 21 13z m94 -8 c-2 -3 -13 -6 -24 -5 -24 2 -18
13 9 13 11 0 18 -4 15 -8z m-754 -12 c0 -2 -9 -6 -20 -9 -11 -3 -18 -1 -14 4
5 9 34 13 34 5z m173 -21 c9 2 17 0 17 -5 0 -4 -13 -7 -29 -6 -16 0 -28 3 -25
5 2 2 -2 11 -8 20 -11 14 -10 14 7 0 11 -9 28 -15 38 -14z m-127 -5 c0 -12 -4
-16 -9 -11 -5 5 -6 14 -3 20 10 15 12 14 12 -9z m38 -10 c-6 -6 -10 -3 -10 10
0 13 4 16 10 10 7 -7 7 -13 0 -20z m206 26 c0 -2 -6 -9 -14 -15 -11 -9 -16 -9
-22 0 -4 7 -3 9 4 5 6 -3 13 -2 17 4 6 10 15 14 15 6z m441 -13 c13 -16 12
-17 -3 -4 -10 7 -18 15 -18 17 0 8 8 3 21 -13z m-777 -1 c3 -5 -1 -9 -9 -9 -8
0 -12 4 -9 9 3 4 7 8 9 8 2 0 6 -4 9 -8z m33 1 c-4 -3 -1 -13 6 -22 11 -14 10
-14 -5 -2 -16 12 -16 31 -1 31 4 0 3 -3 0 -7z m126 -13 c3 -11 1 -18 -4 -14
-5 3 -9 12 -9 20 0 20 7 17 13 -6z m128 3 c13 -16 12 -17 -3 -4 -10 7 -18 15
-18 17 0 8 8 3 21 -13z m320 -6 c-10 -9 -11 -8 -5 6 3 10 9 15 12 12 3 -3 0
-11 -7 -18z m109 19 c0 -3 -4 -8 -10 -11 -5 -3 -10 -1 -10 4 0 6 5 11 10 11 6
0 10 -2 10 -4z m41 -23 c13 -16 12 -17 -3 -4 -17 13 -22 21 -14 21 2 0 10 -8
17 -17z m-921 -28 c0 -5 -5 -3 -10 5 -5 8 -10 20 -10 25 0 6 5 3 10 -5 5 -8
10 -19 10 -25z m77 20 c0 -8 -4 -12 -9 -9 -5 3 -6 10 -3 15 9 13 12 11 12 -6z
m178 -7 c5 4 5 1 1 -6 -6 -10 -11 -10 -22 -1 -8 6 -14 14 -14 16 0 3 6 0 13
-6 8 -6 18 -7 22 -3z m139 -17 c-2 -3 -12 3 -22 13 -16 17 -16 18 5 5 12 -7
20 -15 17 -18z m406 26 c0 -2 -8 -11 -18 -20 -15 -14 -19 -15 -19 -2 0 8 4 12
8 9 4 -2 10 0 14 6 6 10 15 14 15 7z m-490 -12 c0 -2 -6 -8 -13 -14 -10 -8
-14 -7 -14 2 0 8 6 14 14 14 7 0 13 -1 13 -2z m261 -12 c13 -17 13 -17 -6 -3
-11 8 -22 16 -24 17 -2 2 0 3 6 3 6 0 17 -8 24 -17z m-371 3 c0 -2 -8 -10 -17
-17 -16 -13 -17 -12 -4 4 13 16 21 21 21 13z m161 -13 c13 -16 12 -17 -3 -4
-10 7 -18 15 -18 17 0 8 8 3 21 -13z m-40 -6 c-6 -8 -9 -16 -6 -19 3 -3 -3
-11 -12 -19 -16 -13 -17 -12 -4 4 7 9 10 17 6 17 -4 0 -2 7 5 15 7 8 15 15 17
15 3 0 0 -6 -6 -13z m123 5 c2 -4 -4 -8 -14 -8 -10 0 -16 4 -14 8 3 4 9 8 14
8 5 0 11 -4 14 -8z m366 4 c0 -2 -8 -10 -17 -17 -16 -13 -17 -12 -4 4 13 16
21 21 21 13z m35 -6 c3 -6 -1 -7 -9 -4 -18 7 -21 14 -7 14 6 0 13 -4 16 -10z
m66 -7 c13 -17 13 -17 -6 -3 -11 8 -22 16 -24 17 -2 2 0 3 6 3 6 0 17 -8 24
-17z m-975 -13 c0 -12 -4 -16 -9 -11 -5 5 -6 14 -3 20 10 15 12 14 12 -9z m81
5 c0 -8 -4 -12 -9 -9 -5 3 -6 10 -3 15 9 13 12 11 12 -6z m118 5 c-3 -5 -14
-10 -23 -9 -14 0 -13 2 3 9 27 11 27 11 20 0z m-164 -17 c13 -16 12 -17 -3 -4
-10 7 -18 15 -18 17 0 8 8 3 21 -13z m309 2 c-5 -7 -8 -14 -5 -17 3 -2 -2 -5
-10 -5 -10 0 -12 4 -5 12 5 7 8 14 5 17 -3 2 2 5 10 5 10 0 12 -4 5 -12z m300
9 c0 -8 -19 -13 -24 -6 -3 5 1 9 9 9 8 0 15 -2 15 -3z m184 -6 c-3 -4 -9 -8
-15 -8 -5 0 -9 4 -9 8 0 5 7 9 15 9 8 0 12 -4 9 -9z m111 -15 c-1 -16 2 -33 6
-39 5 -6 3 -11 -4 -11 -9 0 -13 12 -11 36 2 39 2 41 7 41 2 0 3 -12 2 -27z
m1138 -77 c26 -53 59 -130 73 -173 24 -72 26 -86 20 -190 -8 -146 -13 -157
-71 -173 l-47 -13 -34 39 c-45 52 -48 66 -30 170 21 124 27 191 28 326 1 64 4
115 8 113 4 -2 28 -47 53 -99z m-1888 74 c3 -6 -1 -7 -9 -4 -18 7 -21 14 -7
14 6 0 13 -4 16 -10z m110 -8 c-3 -3 -11 0 -18 7 -9 10 -8 11 6 5 10 -3 15 -9
12 -12z m242 1 c0 -9 -4 -10 -14 -2 -7 6 -13 12 -13 14 0 1 6 2 13 2 8 0 14
-6 14 -14z m45 10 c-10 -4 -10 -8 0 -21 7 -10 9 -14 4 -10 -5 4 -18 3 -30 -3
-19 -9 -19 -9 -4 4 11 9 14 17 8 23 -6 6 -2 10 13 11 12 0 16 -1 9 -4z m-505
-16 c0 -8 -6 -14 -14 -14 -9 0 -10 4 -2 14 6 7 12 13 14 13 1 0 2 -6 2 -13z
m155 -2 c2 3 5 -2 5 -10 0 -19 0 -19 -23 7 -12 14 -13 18 -3 10 9 -6 18 -10
21 -7z m165 -4 c-1 -15 -4 -17 -14 -9 -15 12 -17 22 -3 13 6 -3 10 -1 10 4 0
6 2 11 4 11 3 0 4 -9 3 -19z m49 -3 c12 -14 13 -18 3 -10 -9 6 -18 10 -21 7
-2 -3 -5 2 -5 10 0 19 0 19 23 -7z m65 -5 c13 -17 13 -17 -6 -3 -11 8 -22 16
-24 17 -2 2 0 3 6 3 6 0 17 -8 24 -17z m335 -11 c-17 -16 -18 -16 -5 5 7 12
15 20 18 17 3 -2 -3 -12 -13 -22z m-866 14 c0 -2 -8 -10 -17 -17 -16 -13 -17
-12 -4 4 13 16 21 21 21 13z m170 -10 c0 -2 -8 -10 -17 -17 -16 -13 -17 -12
-4 4 13 16 21 21 21 13z m221 -13 c13 -16 12 -17 -3 -4 -10 7 -18 15 -18 17 0
8 8 3 21 -13z m123 8 c3 -4 -4 -17 -17 -27 l-22 -19 18 21 c14 17 15 23 5 27
-9 4 -9 6 -1 6 6 1 14 -3 17 -8z m291 -1 c3 -6 -1 -7 -9 -4 -18 7 -21 14 -7
14 6 0 13 -4 16 -10z m-330 -12 c5 4 5 1 1 -6 -6 -10 -11 -10 -22 -1 -8 6 -14
14 -14 16 0 3 6 0 13 -6 8 -6 18 -7 22 -3z m-184 -15 c12 -16 12 -17 -2 -6 -9
7 -19 10 -22 6 -4 -3 -7 -1 -7 5 0 17 16 15 31 -5z m259 13 c0 -2 -8 -10 -17
-17 -16 -13 -17 -12 -4 4 13 16 21 21 21 13z m250 -10 c0 -2 -8 -10 -17 -17
-16 -13 -17 -12 -4 4 13 16 21 21 21 13z m-446 -14 c3 -5 -1 -9 -9 -9 -8 0
-12 4 -9 9 3 4 7 8 9 8 2 0 6 -4 9 -8z m92 -4 c3 -4 -1 -5 -10 -4 -8 1 -18 5
-22 8 -3 4 1 5 10 4 8 -1 18 -5 22 -8z m112 -8 c-7 -10 -14 -17 -17 -15 -4 4
18 35 25 35 2 0 -1 -9 -8 -20z m77 2 c-3 -3 -11 0 -18 7 -9 10 -8 11 6 5 10
-3 15 -9 12 -12z m-575 4 c0 -2 -8 -10 -17 -17 -16 -13 -17 -12 -4 4 13 16 21
21 21 13z m216 -8 c5 4 6 3 2 -2 -4 -5 -3 -15 4 -23 8 -10 8 -12 -3 -8 -8 3
-21 15 -28 28 -13 19 -12 21 1 10 8 -7 19 -9 24 -5z m541 -10 c0 -13 -1 -17
-4 -10 -3 6 -10 9 -16 5 -7 -4 -6 1 2 10 17 21 17 21 18 -5z m99 7 c-1 -8 -5
-17 -8 -21 -5 -4 -4 16 1 34 3 9 9 -1 7 -13z m-985 -12 c13 -16 12 -17 -3 -4
-10 7 -18 15 -18 17 0 8 8 3 21 -13z m40 -6 c-10 -9 -11 -8 -5 6 3 10 9 15 12
12 3 -3 0 -11 -7 -18z m163 7 c3 -8 2 -12 -4 -9 -6 3 -10 10 -10 16 0 14 7 11
14 -7z m265 13 c-2 -1 -13 -9 -24 -17 -19 -14 -19 -14 -6 3 7 9 18 17 24 17 6
0 8 -1 6 -3z m82 -10 c-6 -8 -7 -18 -3 -22 4 -5 1 -5 -6 -1 -10 6 -10 11 -1
22 6 8 14 14 16 14 3 0 0 -6 -6 -13z m115 -18 c2 -35 -5 -33 -12 5 -2 14 -1
26 3 26 5 0 9 -14 9 -31z m84 -3 c0 -6 -5 -3 -11 7 -6 9 -15 14 -21 11 -7 -4
-8 -2 -4 5 9 14 36 -3 36 -23z m-605 3 c-4 -5 -12 -9 -18 -8 -9 0 -8 2 1 6 6
2 9 10 6 15 -4 7 -2 8 5 4 6 -4 9 -12 6 -17z m716 -6 c13 -16 12 -17 -3 -4
-17 13 -22 21 -14 21 2 0 10 -8 17 -17z m-754 -8 c0 -8 -4 -12 -9 -9 -5 3 -6
10 -3 15 9 13 12 11 12 -6z m499 -11 c1 -9 0 -13 -4 -10 -3 4 -7 14 -8 22 -1
9 0 13 4 10 3 -4 7 -14 8 -22z m-616 5 c0 -4 -9 -7 -19 -6 -11 0 -18 4 -16 7
6 9 35 8 35 -1z m434 -5 c3 -8 2 -12 -4 -9 -6 3 -10 10 -10 16 0 14 7 11 14
-7z m86 6 c0 -5 -2 -10 -4 -10 -3 0 -8 5 -11 10 -3 6 -1 10 4 10 6 0 11 -4 11
-10z m314 -2 c-5 -7 13 -12 43 -11 7 1 10 -3 7 -8 -3 -5 2 -9 11 -9 20 0 16
-17 -35 -120 l-37 -77 -49 25 c-62 31 -61 29 -45 54 7 11 9 18 4 15 -5 -3 -9
3 -9 13 0 15 3 17 15 7 12 -10 14 -8 9 11 -4 12 -3 20 1 17 4 -2 18 18 30 45
16 35 27 48 41 47 10 -1 16 -5 14 -9z m137 -5 c13 -16 12 -17 -3 -4 -10 7 -18
15 -18 17 0 8 8 3 21 -13z m-896 -11 c-3 -3 0 -11 6 -19 17 -20 5 -16 -14 5
-15 16 -15 19 -2 19 8 0 13 -3 10 -5z m160 0 c-3 -3 0 -11 6 -19 17 -20 5 -16
-14 5 -15 16 -15 19 -2 19 8 0 13 -3 10 -5z m40 0 c-3 -3 3 -15 12 -26 14 -15
14 -18 2 -8 -9 6 -20 8 -25 4 -5 -4 -6 -3 -2 2 4 5 3 14 -2 21 -7 8 -5 12 5
12 8 0 13 -3 10 -5z m42 -9 c0 -9 -4 -10 -14 -2 -7 6 -13 12 -13 14 0 1 6 2
13 2 8 0 14 -6 14 -14z m158 9 c-3 -3 0 -11 6 -19 17 -20 5 -16 -14 5 -15 16
-15 19 -2 19 8 0 13 -3 10 -5z m-481 -31 c-2 -3 -12 3 -22 13 -16 17 -16 18 5
5 12 -7 20 -15 17 -18z m576 14 c-7 -8 -17 -15 -23 -15 -6 0 -2 7 9 15 25 19
30 19 14 0z m87 0 c0 -8 -3 -13 -5 -10 -3 3 -12 -1 -21 -7 -10 -8 -9 -4 3 10
23 26 23 26 23 7z m-270 -7 c11 -19 13 -39 2 -32 -5 3 -7 9 -4 14 3 5 -3 13
-12 19 -10 6 -13 11 -6 11 6 0 15 -6 20 -12z m589 -15 c-2 -16 -23 -67 -46
-114 -41 -83 -45 -86 -67 -76 -13 5 -23 14 -23 18 0 4 19 46 41 93 35 72 45
86 65 86 13 0 24 5 24 10 0 6 2 10 5 10 2 0 3 -12 1 -27z m-1017 4 c8 -10 7
-14 -4 -14 -8 0 -12 4 -9 8 2 4 -2 10 -8 12 -8 4 -9 6 -2 6 6 1 17 -5 23 -12z
m562 -4 c13 -16 12 -17 -3 -4 -10 7 -18 15 -18 17 0 8 8 3 21 -13z m-476 -2
c-9 -8 -36 -10 -30 -2 2 4 11 8 20 8 8 0 13 -3 10 -6z m85 5 c0 -2 -8 -10 -17
-17 -16 -13 -17 -12 -4 4 13 16 21 21 21 13z m75 -5 c-9 -8 -36 -10 -30 -2 2
4 11 8 20 8 8 0 13 -3 10 -6z m161 -3 c3 -4 -1 -5 -10 -4 -8 1 -18 5 -22 8 -3
4 1 5 10 4 8 -1 18 -5 22 -8z m68 -4 c3 -8 2 -12 -4 -9 -6 3 -10 10 -10 16 0
14 7 11 14 -7z m176 12 c0 -2 -9 -6 -20 -9 -11 -3 -18 -1 -14 4 5 9 34 13 34
5z m110 0 c0 -2 -7 -7 -16 -10 -8 -3 -12 -2 -9 4 6 10 25 14 25 6z m40 -2 c0
-8 -19 -13 -24 -6 -3 5 1 9 9 9 8 0 15 -2 15 -3z m-672 -15 c-2 -6 -8 -11 -13
-11 -6 0 -17 -5 -25 -11 -13 -10 -13 -10 -1 5 7 10 17 15 22 12 5 -3 9 0 9 5
0 6 3 11 6 11 3 0 4 -5 2 -11z m160 0 c-2 -6 -8 -11 -13 -11 -6 0 -17 -5 -25
-11 -13 -10 -13 -10 -1 5 7 10 17 15 22 12 5 -3 9 0 9 5 0 6 3 11 6 11 3 0 4
-5 2 -11z m412 7 c0 -2 -6 -9 -14 -15 -11 -9 -16 -9 -22 0 -4 7 -3 9 4 5 6 -3
13 -2 17 4 6 10 15 14 15 6z m-729 -23 c13 -16 12 -17 -3 -4 -10 7 -18 15 -18
17 0 8 8 3 21 -13z m360 -6 c-10 -9 -11 -8 -5 6 3 10 9 15 12 12 3 -3 0 -11
-7 -18z m320 6 c12 -16 12 -17 -2 -6 -9 7 -20 9 -24 5 -5 -4 -5 -1 -1 6 9 16
11 15 27 -5z m-611 3 c0 -2 -8 -10 -17 -17 -16 -13 -17 -12 -4 4 13 16 21 21
21 13z m355 -33 c-1 -21 2 -47 7 -58 8 -18 8 -19 -5 -3 -11 14 -16 15 -27 5
-10 -9 -10 -7 0 7 8 11 16 32 16 48 2 32 3 38 7 38 2 0 3 -17 2 -37z m-37 7
c-7 -10 -14 -17 -17 -15 -4 4 18 35 25 35 2 0 -1 -9 -8 -20z m178 -13 c2 -12
0 -16 -2 -9 -3 6 -10 10 -14 7 -5 -3 -12 -1 -15 5 -4 6 -1 9 7 8 7 -2 12 4 10
12 -2 8 0 12 4 7 4 -4 9 -18 10 -30z m189 24 c-9 -8 -36 -10 -30 -2 2 4 11 8
20 8 8 0 13 -3 10 -6z m-668 -14 c0 -8 -6 -14 -14 -14 -9 0 -10 4 -2 14 6 7
12 13 14 13 1 0 2 -6 2 -13z m63 10 c0 -2 -8 -11 -18 -20 -15 -14 -19 -15 -19
-2 0 8 4 12 8 9 4 -2 10 0 14 6 6 10 15 14 15 7z m160 -1 c0 -2 -6 -9 -14 -15
-11 -9 -16 -9 -22 0 -4 7 -3 9 4 5 6 -3 13 -2 17 4 6 10 15 14 15 6z m-320
-17 c0 -4 -9 -7 -19 -6 -11 0 -18 4 -16 7 6 9 35 8 35 -1z m236 -11 c19 -23
19 -23 -2 -5 -11 9 -24 14 -29 10 -4 -5 -5 -2 -1 5 9 16 10 16 32 -10z m38 0
c1 -7 5 -18 8 -24 4 -6 2 -11 -5 -11 -7 0 -13 13 -14 29 -1 28 7 33 11 6z
m516 18 c0 -2 -8 -10 -17 -17 -16 -13 -17 -12 -4 4 13 16 21 21 21 13z m-160
-10 c0 -2 -7 -7 -16 -10 -8 -3 -12 -2 -9 4 6 10 25 14 25 6z m-542 -24 c7 7
12 9 12 6 0 -3 -6 -11 -14 -17 -12 -10 -17 -8 -26 11 -10 20 -10 21 3 6 10
-13 16 -15 25 -6z m392 14 c0 -2 -7 -7 -16 -10 -8 -3 -12 -2 -9 4 6 10 25 14
25 6z m37 -13 c0 -9 -4 -10 -14 -2 -7 6 -13 12 -13 14 0 1 6 2 13 2 8 0 14 -6
14 -14z m55 -8 c2 3 5 -2 5 -10 0 -19 1 -20 -28 12 -17 20 -18 23 -3 10 11 -9
23 -15 26 -12z m65 7 c-17 -18 -51 -27 -41 -10 3 5 9 6 14 3 4 -3 13 2 20 10
7 8 15 15 18 15 3 0 -2 -8 -11 -18z m47 10 c3 -5 -1 -9 -9 -9 -8 0 -12 4 -9 9
3 4 7 8 9 8 2 0 6 -4 9 -8z m-664 -6 c0 -2 -8 -10 -17 -17 -16 -13 -17 -12 -4
4 13 16 21 21 21 13z m361 -13 c13 -16 12 -17 -3 -4 -10 7 -18 15 -18 17 0 8
8 3 21 -13z m-330 -10 c13 -16 12 -17 -3 -4 -10 7 -18 15 -18 17 0 8 8 3 21
-13z m186 -7 c18 -21 18 -21 -3 -3 -11 9 -23 14 -26 11 -3 -3 -8 -1 -12 4 -11
18 25 8 41 -12z m254 7 c12 -16 12 -17 -2 -6 -9 7 -20 9 -24 5 -5 -4 -5 -1 -1
6 9 16 11 15 27 -5z m-125 -15 c3 -4 -1 -5 -10 -4 -8 1 -18 5 -22 8 -3 4 1 5
10 4 8 -1 18 -5 22 -8z m193 -22 c-3 -3 -11 5 -18 17 -13 21 -12 21 5 5 10
-10 16 -20 13 -22z m159 17 c-6 -7 -12 -13 -13 -13 -2 0 -5 6 -8 13 -3 7 3 13
14 13 13 0 15 -3 7 -13z m-752 -8 c-10 -8 -12 -16 -6 -23 7 -9 7 -9 -2 -2 -19
16 -17 36 4 36 17 0 17 -2 4 -11z m70 3 c5 4 6 3 2 -2 -4 -5 -3 -14 2 -21 7
-8 5 -12 -5 -12 -8 0 -13 3 -10 5 3 3 -3 15 -12 26 -14 15 -14 18 -2 8 9 -6
20 -8 25 -4z m185 -5 c8 -9 9 -14 2 -10 -6 4 -13 1 -16 -5 -3 -7 -4 -3 -4 10
1 26 1 26 18 5z m271 2 c2 3 5 -2 5 -10 0 -19 0 -19 -23 7 -12 14 -13 18 -3
10 9 -6 18 -10 21 -7z m128 11 c0 -2 -8 -10 -17 -17 -16 -13 -17 -12 -4 4 13
16 21 21 21 13z m52 -11 c3 3 11 -3 19 -12 12 -16 12 -17 -2 -6 -9 7 -18 11
-21 8 -3 -3 -11 3 -19 12 -12 16 -12 17 2 6 9 -7 18 -11 21 -8z m83 6 c3 -5 2
-12 -3 -15 -5 -3 -9 1 -9 9 0 17 3 19 12 6z m-611 -9 c3 -5 -1 -9 -9 -9 -8 0
-15 4 -15 9 0 4 4 8 9 8 6 0 12 -4 15 -8z m175 5 c-2 -1 -13 -9 -24 -17 -19
-14 -19 -14 -6 3 7 9 18 17 24 17 6 0 8 -1 6 -3z m82 -10 c-6 -8 -9 -16 -6
-19 3 -2 -2 -5 -10 -5 -13 0 -13 3 2 19 19 21 31 25 14 5z m33 4 c3 -5 -2 -15
-12 -22 -15 -12 -16 -12 -5 2 7 9 10 19 6 22 -3 4 -4 7 0 7 3 0 8 -4 11 -9z
m411 -13 c25 -12 45 -28 45 -35 0 -7 -37 -90 -83 -185 -46 -95 -90 -188 -97
-205 -8 -18 -18 -33 -22 -33 -3 0 -27 9 -52 19 l-45 20 17 43 c9 24 26 63 38
88 21 42 21 46 6 65 -16 19 -16 19 1 5 16 -12 20 -12 28 1 13 21 11 33 -4 23
-7 -5 -3 0 10 11 27 24 31 44 6 24 -10 -7 -6 0 9 15 15 14 31 39 34 54 4 15
11 30 17 33 5 4 10 18 10 32 1 14 5 23 8 21 4 -2 9 3 13 11 7 19 7 19 61 -7z
m-846 -1 c8 -10 7 -14 -2 -14 -8 0 -14 6 -14 14 0 7 1 13 2 13 2 0 8 -6 14
-13z m638 0 c0 -8 -6 -14 -14 -14 -9 0 -10 4 -2 14 6 7 12 13 14 13 1 0 2 -6
2 -13z m-396 -10 c-6 -8 -7 -18 -3 -22 4 -5 1 -5 -6 -1 -10 6 -10 11 -1 22 6
8 14 14 16 14 3 0 0 -6 -6 -13z m-101 -18 c0 -5 -4 -9 -8 -9 -5 0 -9 7 -9 15
0 8 4 12 9 9 4 -3 8 -9 8 -15z m316 6 c-1 -8 -5 -17 -8 -21 -5 -4 -4 16 1 34
3 9 9 -1 7 -13z m120 0 c-1 -8 -5 -17 -8 -21 -5 -4 -4 16 1 34 3 9 9 -1 7 -13z
m99 5 c3 -6 -1 -7 -9 -4 -18 7 -21 14 -7 14 6 0 13 -4 16 -10z m-738 -15 c0
-8 -4 -12 -9 -9 -4 3 -8 9 -8 15 0 5 4 9 8 9 5 0 9 -7 9 -15z m387 4 c-2 -4
-12 -6 -22 -4 -9 1 -26 -5 -37 -14 -17 -14 -18 -14 -7 0 6 9 10 18 7 20 -2 3
11 5 30 5 18 0 32 -3 29 -7z m187 -16 c-12 -20 -14 -14 -5 12 4 9 9 14 11 11
3 -2 0 -13 -6 -23z m-436 -1 c-3 -3 0 -11 6 -19 17 -20 5 -16 -14 5 -15 16
-15 19 -2 19 8 0 13 -3 10 -5z m38 -10 c15 -16 15 -19 2 -19 -8 0 -13 3 -10 5
3 3 0 11 -6 19 -17 20 -5 16 14 -5z m122 0 c-3 -3 -11 0 -18 7 -9 10 -8 11 6
5 10 -3 15 -9 12 -12z m128 5 c-2 -4 1 -16 9 -25 11 -15 11 -15 -3 -5 -9 7
-20 9 -25 5 -5 -4 -6 -3 -2 2 4 5 4 14 -2 20 -6 8 -3 12 10 12 10 0 16 -4 13
-9z m47 8 c0 -2 -6 -8 -13 -14 -10 -8 -14 -7 -14 2 0 8 6 14 14 14 7 0 13 -1
13 -2z m191 -8 c-6 -8 -7 -18 -3 -22 4 -5 1 -5 -6 -1 -10 6 -10 11 -1 22 6 8
14 14 16 14 3 0 0 -6 -6 -13z m49 8 c0 -1 -10 -10 -22 -21 -14 -12 -18 -13
-10 -3 6 9 10 18 7 21 -3 2 2 5 10 5 8 0 15 -1 15 -2z m35 -5 c3 -6 -1 -7 -9
-4 -18 7 -21 14 -7 14 6 0 13 -4 16 -10z m40 0 c-3 -5 -12 -10 -18 -10 -7 0
-6 4 3 10 19 12 23 12 15 0z m237 -19 c43 -37 120 -75 237 -117 53 -19 142
-57 199 -84 l102 -50 -31 -62 c-17 -34 -60 -108 -96 -165 -76 -119 -49 -114
-253 -54 -244 71 -410 128 -410 141 0 4 43 96 95 204 52 108 95 201 95 206 0
19 30 10 62 -19z m-952 4 c-7 -8 -17 -15 -23 -15 -6 0 -2 7 9 15 25 19 30 19
14 0z m167 2 c0 -8 -6 -14 -14 -14 -9 0 -10 4 -2 14 6 7 12 13 14 13 1 0 2 -6
2 -13z m369 -9 c12 -14 13 -18 3 -10 -9 6 -18 10 -21 7 -2 -3 -5 2 -5 10 0 19
0 19 23 -7z m-588 -12 c16 -20 16 -20 -2 -6 -10 8 -25 15 -33 16 -24 4 -27 13
-4 11 12 -1 30 -10 39 -21z m472 20 c0 -2 -8 -10 -17 -17 -16 -13 -17 -12 -4
4 13 16 21 21 21 13z m50 -21 c14 -19 14 -19 -2 -6 -10 7 -18 18 -18 24 0 6 1
8 3 6 1 -2 9 -13 17 -24z m-435 -4 c-9 -8 -36 -10 -30 -2 2 4 11 8 20 8 8 0
13 -3 10 -6z m567 -5 c10 6 11 4 0 -7 -10 -11 -15 -10 -30 6 -15 17 -15 18 0
6 9 -7 23 -9 30 -5z m63 6 c-3 -3 2 -14 12 -24 24 -27 10 -22 -15 5 -17 18
-19 24 -7 24 8 0 13 -3 10 -5z m36 -9 c13 -16 12 -17 -3 -4 -10 7 -18 15 -18
17 0 8 8 3 21 -13z m-775 -19 c1 -9 0 -13 -4 -10 -3 4 -7 14 -8 22 -1 9 0 13
4 10 3 -4 7 -14 8 -22z m419 14 c5 4 5 1 1 -6 -6 -10 -11 -10 -22 -1 -8 6 -14
14 -14 16 0 3 6 0 13 -6 8 -6 18 -7 22 -3z m103 -13 c-3 -3 -9 2 -12 12 -6 14
-5 15 5 6 7 -7 10 -15 7 -18z m76 -5 c-6 -6 -10 -3 -10 10 0 13 4 16 10 10 7
-7 7 -13 0 -20z m-464 16 c0 -2 -8 -10 -17 -17 -16 -13 -17 -12 -4 4 13 16 21
21 21 13z m90 -21 c14 -19 14 -19 -2 -6 -10 7 -18 18 -18 24 0 6 1 8 3 6 1 -2
9 -13 17 -24z m51 8 c12 -16 12 -17 -2 -6 -9 7 -20 9 -24 5 -5 -4 -5 -1 -1 6
9 16 11 15 27 -5z m160 -6 c-10 -9 -11 -8 -5 6 3 10 9 15 12 12 3 -3 0 -11 -7
-18z m280 6 c13 -16 12 -17 -3 -4 -17 13 -22 21 -14 21 2 0 10 -8 17 -17z
m-650 -10 c13 -16 12 -17 -3 -4 -17 13 -22 21 -14 21 2 0 10 -8 17 -17z m439
13 c0 -2 -8 -10 -17 -17 -16 -13 -17 -12 -4 4 13 16 21 21 21 13z m118 -26
c-7 -10 -14 -17 -17 -15 -4 4 18 35 25 35 2 0 -1 -9 -8 -20z m38 -12 c-2 -21
3 -38 13 -46 14 -11 13 -12 -5 -3 -15 7 -25 7 -35 -2 -8 -7 -7 -3 2 8 9 11 15
32 14 48 -1 15 2 27 6 27 4 0 6 -15 5 -32z m-617 9 c8 -10 7 -14 -2 -14 -8 0
-14 6 -14 14 0 7 1 13 2 13 2 0 8 -6 14 -13z m471 -2 c-6 -8 -8 -20 -4 -27 6
-10 3 -9 -9 1 -16 13 -16 14 0 27 24 18 28 17 13 -1z m51 -2 c13 -16 12 -17
-3 -4 -10 7 -18 15 -18 17 0 8 8 3 21 -13z m-616 -1 c-9 -9 25 -33 36 -26 7 4
9 3 6 -3 -9 -14 51 -66 65 -57 6 4 8 3 5 -3 -4 -6 6 -19 21 -29 52 -34 52 -35
37 -122 -8 -44 -17 -109 -21 -144 -3 -34 -8 -65 -10 -68 -1 -4 -6 -69 -9 -145
-4 -77 -9 -142 -10 -143 -2 -2 -50 43 -107 100 -134 134 -216 241 -221 291 -2
20 -2 37 0 37 2 0 20 -12 39 -26 38 -30 34 -35 59 76 9 41 30 119 47 172 25
77 34 96 49 95 10 -1 16 -3 14 -5z m195 -27 c0 -5 -5 -3 -10 5 -5 8 -10 20
-10 25 0 6 5 3 10 -5 5 -8 10 -19 10 -25z m70 29 c0 -8 -19 -13 -24 -6 -3 5 1
9 9 9 8 0 15 -2 15 -3z m89 3 c-2 -1 -13 -9 -24 -17 -19 -14 -19 -14 -6 3 7 9
18 17 24 17 6 0 8 -1 6 -3z m387 -25 c-17 -16 -18 -16 -5 5 7 12 15 20 18 17
3 -2 -3 -12 -13 -22z m-147 5 c8 -10 7 -14 -2 -14 -8 0 -14 6 -14 14 0 7 1 13
2 13 2 0 8 -6 14 -13z m-198 -10 c-6 -8 -9 -16 -7 -18 3 -2 -9 -5 -25 -5 -16
-1 -29 2 -29 7 0 4 9 6 19 4 11 -2 25 3 32 11 6 8 14 14 16 14 3 0 0 -6 -6
-13z m55 -17 c0 -12 -4 -16 -9 -11 -5 5 -6 14 -3 20 10 15 12 14 12 -9z m205
3 c13 -16 12 -17 -3 -4 -10 7 -18 15 -18 17 0 8 8 3 21 -13z m112 2 c-3 -9 -8
-14 -10 -11 -3 3 -2 9 2 15 9 16 15 13 8 -4z m1526 -51 c31 -43 33 -48 27
-107 -10 -95 -63 -257 -85 -257 -6 0 -91 38 -99 45 -1 1 11 33 27 71 27 65 56
155 81 252 6 23 12 42 14 42 1 0 17 -21 35 -46z m-1701 19 c-12 -15 -22 -18
-14 -4 4 5 0 11 -6 14 -7 3 -3 4 9 4 17 -1 19 -4 11 -14z m47 7 c3 -6 -1 -7
-9 -4 -18 7 -21 14 -7 14 6 0 13 -4 16 -10z m-277 -9 c16 12 16 12 0 -6 -18
-19 -18 -19 -35 0 -17 18 -17 18 0 6 14 -11 20 -11 35 0z m67 -1 c4 -6 10 -8
14 -6 4 3 8 -1 8 -9 0 -12 -4 -12 -21 2 -12 10 -23 19 -25 20 -2 2 1 3 7 3 6
0 14 -5 17 -10z m-144 -17 c13 -16 12 -17 -3 -4 -15 11 -21 11 -35 0 -16 -13
-17 -12 -4 4 7 9 17 17 21 17 4 0 14 -8 21 -17z m280 0 c13 -17 13 -17 -6 -3
-11 8 -22 16 -24 17 -2 2 0 3 6 3 6 0 17 -8 24 -17z m59 13 c0 -2 -8 -10 -17
-17 -16 -13 -17 -12 -4 4 13 16 21 21 21 13z m51 -9 c-6 -8 -9 -16 -6 -19 3
-2 -2 -5 -10 -5 -13 0 -13 3 2 19 19 21 31 25 14 5z m72 -5 c15 -16 15 -19 2
-19 -8 0 -13 3 -10 5 3 3 0 11 -6 19 -17 20 -5 16 14 -5z m-353 4 c0 -2 -8
-10 -17 -17 -16 -13 -17 -12 -4 4 13 16 21 21 21 13z m1148 -15 c37 -2 92 -15
92 -21 0 -37 -12 -38 -78 -8 -77 36 -100 52 -54 38 18 -5 36 -9 40 -9z m-1028
5 c0 -2 -7 -7 -16 -10 -8 -3 -12 -2 -9 4 6 10 25 14 25 6z m31 -13 c13 -16 12
-17 -3 -4 -10 7 -18 15 -18 17 0 8 8 3 21 -13z m173 9 c2 -4 -4 -8 -14 -8 -10
0 -16 4 -14 8 3 4 9 8 14 8 5 0 11 -4 14 -8z m-272 -17 c2 3 5 -2 5 -10 0 -10
-4 -12 -12 -5 -7 5 -14 8 -17 5 -2 -3 -5 2 -5 10 0 10 4 12 12 5 7 -5 14 -8
17 -5z m-139 -15 c10 -10 9 -11 -3 -4 -8 5 -21 9 -28 10 -8 2 -17 5 -20 8 -3
4 4 5 16 3 12 -2 28 -9 35 -17z m327 10 c0 -4 -7 -7 -15 -6 -23 3 -26 12 -5
13 11 1 20 -2 20 -7z m-239 -17 c13 -16 12 -17 -3 -4 -10 7 -18 15 -18 17 0 8
8 3 21 -13z m-151 1 c0 -8 -19 -13 -24 -6 -3 5 1 9 9 9 8 0 15 -2 15 -3z m320
2 c0 -2 -8 -10 -17 -17 -16 -13 -17 -12 -4 4 13 16 21 21 21 13z m105 -4 c-3
-3 0 -11 6 -19 17 -20 5 -16 -14 5 -15 16 -15 19 -2 19 8 0 13 -3 10 -5z
m-313 -25 c-7 -8 -10 -16 -7 -19 3 -2 -1 -5 -9 -5 -12 0 -11 5 2 23 9 12 19
20 21 18 2 -2 -1 -10 -7 -17z m-88 -3 c3 -8 2 -12 -4 -9 -6 3 -10 10 -10 16 0
14 7 11 14 -7z m120 7 c3 -5 -2 -15 -12 -22 -15 -12 -16 -12 -5 2 7 9 10 19 6
22 -3 4 -4 7 0 7 3 0 8 -4 11 -9z m117 -8 c12 -16 12 -17 -2 -6 -9 7 -20 9
-24 5 -5 -4 -5 -1 -1 6 9 16 11 15 27 -5z m100 0 c13 -17 13 -17 -6 -3 -11 8
-22 16 -24 17 -2 2 0 3 6 3 6 0 17 -8 24 -17z m-282 -81 c69 -45 117 -82 112
-88 -32 -37 -104 -254 -135 -412 l-21 -104 -63 42 c-35 23 -65 40 -68 37 -3
-3 25 -25 61 -48 l67 -44 -7 -60 c-3 -33 -8 -69 -10 -80 -2 -11 -4 -39 -4 -63
l-1 -43 -28 17 c-69 40 -73 46 -79 119 -13 151 -7 485 11 581 2 10 7 44 11 74
11 86 24 150 30 150 2 0 58 -35 124 -78z m244 55 c4 3 7 4 7 0 0 -17 -20 -14
-36 6 -19 22 -19 22 2 4 11 -9 24 -14 27 -10z m-79 -17 c-6 -6 -10 -3 -10 10
0 13 4 16 10 10 7 -7 7 -13 0 -20z m219 17 c4 3 7 1 7 -5 0 -17 -16 -15 -31 6
-12 15 -12 16 2 5 9 -7 19 -10 22 -6z m1025 -32 c37 -18 138 -67 225 -109 86
-41 157 -78 157 -82 0 -13 -95 -182 -134 -239 l-42 -60 -92 0 c-51 0 -97 2
-102 5 -5 3 1 26 14 50 46 88 49 84 -66 103 -147 23 -248 48 -248 59 0 5 29
56 64 111 35 56 75 126 90 155 31 61 27 60 134 7z m-1112 23 c3 -4 -1 -5 -10
-4 -8 1 -18 5 -22 8 -3 4 1 5 10 4 8 -1 18 -5 22 -8z m44 8 c0 -2 -8 -10 -17
-17 -16 -13 -17 -12 -4 4 13 16 21 21 21 13z m-300 -20 c0 -2 -8 -10 -17 -17
-16 -13 -17 -12 -4 4 13 16 21 21 21 13z m70 -41 c14 -19 14 -19 -2 -6 -10 7
-18 18 -18 24 0 6 1 8 3 6 1 -2 9 -13 17 -24z m45 15 c-3 -5 -12 -10 -18 -10
-7 0 -6 4 3 10 19 12 23 12 15 0z m-619 -250 c27 -36 97 -113 156 -171 l107
-105 7 -134 7 -134 -44 34 c-55 44 -186 174 -221 220 -37 49 -56 129 -74 310
-7 73 -9 73 62 -20z m2326 46 c35 -14 45 -22 40 -35 -10 -26 -56 -96 -113
-171 l-53 -70 -53 0 -53 0 25 38 c31 47 132 224 141 246 4 9 9 16 13 14 3 -2
27 -11 53 -22z m-328 -285 l68 -1 -38 -47 c-68 -84 -107 -124 -196 -199 -134
-112 -188 -144 -255 -147 l-56 -4 24 20 c100 80 212 209 283 325 36 57 41 61
70 57 17 -2 62 -4 100 -4z m169 -26 c-27 -36 -206 -211 -297 -288 -52 -44 -88
-67 -105 -67 -14 -1 -44 -3 -66 -6 -40 -6 -39 -6 45 55 94 67 220 185 294 274
46 55 49 57 97 57 l50 0 -18 -25z m-571 -387 c-4 -3 -44 -25 -89 -47 -116 -59
-314 -123 -392 -128 -81 -4 -74 4 20 24 119 24 254 77 321 124 16 12 40 24 53
27 32 9 96 9 87 0z"/>
</g>
</svg>
